<svg width="36" height="39" viewBox="0 0 36 39" fill="none" xmlns="http://www.w3.org/2000/svg">
<g clip-path="url(#clip0_69_4185)">
<path d="M32.4476 21.1657C32.3379 18.8566 32.8118 16.5406 32.1148 14.2215C31.5295 12.2739 30.1564 10.6438 28.7421 9.57358C27.0914 8.32475 25.2506 8.35334 23.5888 7.20967C22.7992 6.66642 22.1798 5.77571 21.4485 5.11619C20.7021 4.44384 19.9332 3.9598 19.0758 3.67779C17.6202 3.19641 16.0466 3.45646 14.7909 4.12105C14.0603 4.50639 13.3546 4.94496 12.5889 5.24833C11.8327 5.54783 11.0096 5.63535 10.249 5.92681C9.00015 6.40568 7.95242 7.42478 7.20175 8.69866C6.85954 9.28004 6.83919 10.0932 6.80665 10.8297C6.80017 10.9715 6.7881 11.1104 6.77044 11.2466C6.04405 12.7602 4.94304 13.8902 4.18624 15.4087C3.28566 17.2129 3.28575 19.5656 3.62066 21.7883C3.96416 24.0652 5.34174 26.1507 6.6634 27.8436C7.38494 28.7684 8.0385 29.7567 8.79694 30.6393C9.51594 31.4756 9.93229 32.6056 10.4872 33.5905C11.5567 35.488 13.142 36.1086 14.7359 35.6852C15.5633 35.4654 16.3268 35.0519 17.1353 34.7751C18.2271 34.4022 19.35 34.6799 20.4984 35.068C22.485 35.7384 24.3349 35.9084 26.2463 35.4914C27.8048 35.1517 29.4622 34.5944 30.7631 33.5775C33.8713 31.1506 32.6445 25.3056 32.4476 21.1657Z" fill="url(#paint0_radial_69_4185)"/>
<g style="mix-blend-mode:multiply" opacity="0.6">
<path d="M32.4476 21.1657C32.3379 18.8566 32.8118 16.5406 32.1148 14.2215C31.5295 12.2739 30.1564 10.6438 28.7421 9.57358C27.0914 8.32475 25.2506 8.35334 23.5888 7.20967C22.7992 6.66642 22.1798 5.77571 21.4485 5.11619C20.7021 4.44384 19.9332 3.9598 19.0758 3.67779C17.6202 3.19641 16.0466 3.45646 14.7909 4.12105C14.0603 4.50639 13.3546 4.94496 12.5889 5.24833C11.8327 5.54783 11.0096 5.63535 10.249 5.92681C9.00015 6.40568 7.95242 7.42478 7.20175 8.69866C6.85954 9.28004 6.83919 10.0932 6.80665 10.8297C6.80017 10.9715 6.7881 11.1104 6.77044 11.2466C6.04405 12.7602 4.94304 13.8902 4.18624 15.4087C3.28566 17.2129 3.28575 19.5656 3.62066 21.7883C3.96416 24.0652 5.34174 26.1507 6.6634 27.8436C7.38494 28.7684 8.0385 29.7567 8.79694 30.6393C9.51594 31.4756 9.93229 32.6056 10.4872 33.5905C11.5567 35.488 13.142 36.1086 14.7359 35.6852C15.5633 35.4654 16.3268 35.0519 17.1353 34.7751C18.2271 34.4022 19.35 34.6799 20.4984 35.068C22.485 35.7384 24.3349 35.9084 26.2463 35.4914C27.8048 35.1517 29.4622 34.5944 30.7631 33.5775C33.8713 31.1506 32.6445 25.3056 32.4476 21.1657ZM25.472 13.178C25.2606 13.6716 24.8078 13.8698 24.4046 14.0683C23.8061 14.3625 23.3444 14.7335 23.0116 15.4335C22.6763 16.1393 22.4366 16.9193 22.1552 17.6668C21.9407 18.2344 21.7261 18.9182 21.3021 19.2799C21.0388 19.502 20.7302 19.6186 20.4663 19.8315C20.0867 20.1368 20.0999 20.5788 20.0416 21.1035C19.9755 21.6985 19.726 21.9445 19.2591 22.04C17.9449 22.3096 16.7238 23.2012 16.3089 24.7984C17.17 24.3606 18.09 23.828 19.102 24.2998C19.1245 24.3101 19.1448 24.3287 19.16 24.353C19.1752 24.3772 19.1844 24.4058 19.1864 24.4345C19.1885 24.4633 19.1831 24.4909 19.1712 24.5131C19.1592 24.5353 19.1413 24.5511 19.12 24.5582C17.954 24.9412 16.9156 26.6179 16.7171 28.1052C16.63 28.7552 16.7327 30.6696 15.8533 30.5196C15.3298 30.4299 14.8532 29.9847 14.3496 29.7571C13.659 29.4447 12.9111 29.2601 12.2634 29.5632C11.9418 29.7137 11.6341 30.1622 11.2506 30.0628C10.7503 29.9334 10.6623 28.9841 10.092 28.965C9.67647 28.9509 9.30547 29.0652 8.91758 28.6873C8.53589 28.3166 8.21249 27.8674 7.86701 27.4446C6.98569 26.3651 5.96331 25.3398 5.19811 24.1294C4.19942 22.5506 3.84611 20.4557 3.92651 18.6482C3.94908 18.1224 4.01167 17.6076 4.11348 17.1106C4.36523 15.9131 4.95121 14.9222 5.61962 14.0842C5.97036 13.6443 6.42849 13.3721 6.83914 13.0268C7.46078 12.5036 7.31483 11.752 7.24486 10.8491C7.23721 10.7398 7.35434 10.6689 7.42138 10.7678C7.77218 11.283 7.9158 11.8873 8.07486 12.491C8.16449 11.3919 8.27224 10.1025 9.09159 9.64449C9.32108 9.51616 9.81204 9.15644 10.0936 9.31611C10.458 9.52212 10.7105 9.94957 11.0046 10.2935C10.8164 9.68626 10.5855 9.09385 10.4131 8.47945C10.4037 8.44449 10.405 8.40825 10.4169 8.3784C10.4288 8.34855 10.4503 8.32745 10.4769 8.31958C10.9298 8.1456 11.0514 7.41614 11.5136 7.28968C11.6917 7.24538 11.8784 7.23791 12.0669 7.26755C11.9666 7.12623 11.8595 6.99243 11.7464 6.86711C11.6752 6.78935 11.7115 6.67405 11.7786 6.64581C12.0735 6.52198 12.4023 6.42947 12.6609 6.21929C12.4686 6.19239 12.2787 6.19308 12.085 6.18406C11.9545 6.17825 11.9379 5.96396 12.0385 5.91761C13.6934 5.1548 15.153 3.91872 17.0524 3.92554C17.6955 3.92768 18.524 4.06991 18.9597 4.85523C19.2616 5.39969 19.091 6.51402 18.9644 7.02632C18.9378 7.13434 18.7881 7.15625 18.7584 7.01127C18.6747 6.60928 18.6229 6.20647 18.5751 5.8031C18.5313 6.19978 18.4707 6.59066 18.3534 6.95796C18.3324 7.02298 18.2595 7.03251 18.2097 6.99488C17.8251 6.70601 17.4418 6.41294 17.0629 6.11134C17.1054 6.21755 17.146 6.32364 17.1901 6.42997C17.2343 6.5363 17.1594 6.69992 17.0558 6.60267C16.6619 6.23371 15.6288 5.67009 15.2953 6.22697C14.9917 6.73548 15.7313 7.57613 15.9198 8.06918C15.9282 8.09826 15.9289 8.12862 15.9219 8.15548C15.9149 8.18233 15.9004 8.20414 15.8809 8.21744C15.2585 8.56727 14.2924 8.60036 13.9689 9.42018C14.7 9.77807 15.5604 9.63928 16.2614 9.53855C16.5961 9.49026 16.9297 9.43724 17.2625 9.37948C17.4249 9.35079 17.65 9.27327 17.8181 9.40294C18.2526 9.73859 17.9837 10.5832 17.8344 10.9225C17.6111 11.4303 17.3691 11.9065 17.205 12.43C17.2028 12.4706 17.2031 12.5118 17.2059 12.5532C17.9687 12.2513 18.3318 11.2582 18.9584 10.7113C19.0136 10.6633 19.0961 10.7256 19.1213 10.8038C19.1924 11.0317 19.2061 11.2729 19.2331 11.5057C19.2523 11.6728 19.2659 11.8508 19.3045 12.0153C19.367 12.2815 19.5477 12.2373 19.595 12.0146C19.6933 11.5442 19.6887 11.002 19.8555 10.5672C19.9411 10.345 20.0837 10.1172 20.3244 10.267C20.7054 10.5036 20.9353 10.9052 21.3422 10.9923C21.2479 10.7121 21.0986 10.4827 20.9271 10.2405C20.9061 10.2135 20.8933 10.1789 20.8913 10.1439C20.8894 10.1088 20.8984 10.0762 20.9165 10.053C20.9346 10.0297 20.9603 10.0176 20.9883 10.0193C21.0162 10.0209 21.0441 10.0362 21.066 10.0618C21.7969 10.8499 22.6088 11.5256 23.4969 11.9278C24.1492 12.2236 24.8385 12.4565 25.4221 12.991C25.4708 13.0366 25.4999 13.1135 25.472 13.178Z" fill="#A998AB"/>
</g>
<g style="mix-blend-mode:color-dodge" opacity="0.6">
<path d="M7.42878 12.6917C6.96763 13.1193 6.6266 13.6948 6.15469 14.1216C5.76924 14.4703 5.42183 14.8768 5.11864 15.3338C4.41436 16.3917 4.12635 17.7285 4.12309 19.1801C4.11943 20.7334 4.5706 22.2767 5.32297 23.6359C5.73865 24.3883 6.25024 25.0175 6.75824 25.6701C7.15867 26.1849 7.51798 26.7633 7.99545 27.1684C8.03112 27.1995 8.098 27.117 8.06539 27.0741C6.39957 24.8762 4.72991 22.656 4.43449 19.679C4.27519 18.0753 4.609 16.6378 5.30729 15.4518C5.60983 14.9384 6.02037 14.5328 6.40942 14.1262C6.80872 13.7098 7.07011 13.1517 7.46144 12.7352C7.49193 12.7023 7.46044 12.6623 7.42878 12.6917Z" fill="#4B5DA7"/>
</g>
<path d="M12.0929 6.20188C11.9892 6.24086 11.6371 6.16857 11.3987 6.21286C11.3071 6.00337 10.9306 6.15009 10.8068 6.19988C10.1182 6.47633 9.44427 6.75298 8.83673 7.21729C8.56622 7.4211 8.32444 7.67407 8.1179 7.96937C7.77715 8.33378 7.41851 8.82027 7.43943 9.31164C7.43953 9.31308 7.43959 9.31394 7.43967 9.31509C7.43501 9.421 7.45529 9.53845 7.47135 9.64102C7.49672 9.79539 7.46056 9.94927 7.49852 10.1077C7.51516 10.1763 7.5935 10.0947 7.59287 10.0532C7.59092 9.90796 7.62914 9.75109 7.65582 9.61479C7.66172 9.57423 7.66314 9.53208 7.66004 9.48943C7.7896 9.4889 7.95392 9.43835 8.08809 9.38646C8.09665 9.43393 8.10791 9.48416 8.12148 9.53828C8.15634 9.69671 8.18422 9.85618 8.205 10.0159C8.22733 10.1627 8.294 10.3995 8.27285 10.5433C8.2597 10.632 8.35792 10.5938 8.37301 10.5458C8.43757 10.3388 8.40068 10.0522 8.40316 9.82392C8.4062 9.68182 8.39648 9.53742 8.37419 9.39337C8.36833 9.35036 8.36532 9.30734 8.36519 9.26475C8.79224 9.06602 9.19586 8.76676 9.57495 8.43914C9.58533 8.45732 9.59594 8.47552 9.60613 8.49426C9.67765 8.62773 9.74863 8.75688 9.81238 8.89664C9.83915 8.95372 9.91187 8.8862 9.89472 8.83639C9.84922 8.69918 9.79697 8.56455 9.7383 8.43337C9.72377 8.40146 9.71091 8.36739 9.69641 8.33263L9.76397 8.27272C9.82156 8.38947 9.89014 8.50387 9.93613 8.60777C10.0591 8.88381 10.1732 9.17349 10.332 9.42559C10.3617 9.47261 10.4261 9.39676 10.4121 9.35232C10.3181 9.05155 10.2626 8.7453 10.1545 8.44807C10.1156 8.34098 10.063 8.19118 10.0016 8.0553C10.0888 7.97342 10.1753 7.89177 10.2601 7.81084C10.3359 7.73841 10.4091 7.66207 10.482 7.58428C10.6973 7.39104 10.9016 7.18082 11.0942 6.95465C11.1081 6.93637 11.1201 6.91577 11.1297 6.89327C11.1906 6.91085 11.2565 6.91538 11.3117 6.93198C11.4513 6.97388 11.5892 7.0408 11.7279 7.09321C11.7658 7.1074 11.8311 7.01506 11.7815 6.98287C11.6328 6.88975 11.429 6.71149 11.2477 6.6651C11.2555 6.65596 11.2632 6.64538 11.2709 6.63538C11.2907 6.63645 11.3104 6.63588 11.3298 6.63368C11.4271 6.62537 11.5315 6.68155 11.6309 6.70509C11.6503 6.70966 11.6873 6.65866 11.6598 6.64608C11.5698 6.60409 11.4801 6.54555 11.3885 6.51201C11.6291 6.44876 11.9028 6.44791 12.1079 6.29381C12.1423 6.27004 12.1535 6.17917 12.0929 6.20188ZM11.127 6.49948C11.1074 6.49976 11.0834 6.52771 11.093 6.55012C11.0263 6.41071 9.15138 7.665 9.02629 7.77182C8.61773 8.11757 8.13456 8.47786 7.79791 8.94339C7.78935 8.8628 7.78586 8.78241 7.78748 8.70299C7.79087 8.6961 7.79478 8.6901 7.79819 8.68349C8.37412 7.79986 9.06735 7.17673 9.95766 6.78249C10.2654 6.64617 10.5772 6.52243 10.8899 6.3976C11.1427 6.29726 11.1839 6.36482 11.127 6.49948V6.49948Z" fill="url(#paint1_radial_69_4185)"/>
<path d="M14.748 32.9922C14.5165 32.0208 13.4182 30.9743 12.6636 31.1722C12.6598 31.1737 12.6562 31.1757 12.6528 31.178C12.2709 31.1007 11.9044 31.1519 11.9048 31.5975C11.9052 32.564 13.2073 33.4432 13.8252 33.7011C14.4223 33.9501 14.9568 33.8678 14.748 32.9922Z" fill="url(#paint2_radial_69_4185)"/>
<path d="M28.0102 17.4743C26.9321 17.9617 25.7865 19.1347 25.7716 20.7314C25.7293 20.6515 25.6808 20.5765 25.6268 20.5078C25.6128 20.0832 25.6023 19.6634 25.6721 19.25C25.6808 19.1984 25.6217 19.2275 25.6147 19.2576C25.5333 19.6081 25.4902 19.977 25.4865 20.3553C25.2479 20.1379 24.9575 20.0596 24.6344 20.0548C24.4022 20.0162 24.1715 20.0186 23.9493 20.0619C23.8841 19.8029 23.8285 19.5458 23.809 19.2539C23.7799 18.8379 23.7928 18.0454 24.0081 17.7306C24.0408 17.6833 23.9897 17.6527 23.9594 17.6845C23.6651 17.9872 23.6326 18.6752 23.6063 19.1491C23.5969 19.3403 23.5959 19.7724 23.6659 20.1357C23.3233 20.2483 22.9968 20.439 22.6747 20.6631C22.2483 20.9592 21.8473 21.3024 21.4758 21.6894C21.4509 21.6591 21.4221 21.6284 21.3962 21.5942C21.3134 21.4876 21.2297 21.3847 21.1499 21.2737C21.0723 21.1649 20.9866 21.0653 20.8943 20.9766C20.8118 20.8974 20.7163 20.8376 20.6416 20.7465C20.61 20.7082 20.547 20.7781 20.5753 20.8205C20.63 20.903 20.6989 20.9595 20.7612 21.034C20.8593 21.1502 20.9517 21.2737 21.0376 21.4038C21.1205 21.5301 21.2054 21.6525 21.2915 21.7768C21.3088 21.8023 21.3235 21.8243 21.3381 21.8439C21.3007 21.8857 21.2658 21.9312 21.2292 21.9742C21.2006 21.9435 21.1735 21.913 21.1475 21.8805C21.0749 21.7895 21.0079 21.6949 20.9243 21.6206C20.8986 21.5976 20.8466 21.6615 20.8727 21.6905C20.9525 21.7797 21.0132 21.8913 21.0801 21.9947C21.0983 22.0232 21.1183 22.0526 21.1396 22.0807C20.9956 22.2559 20.8557 22.4367 20.7268 22.6318C20.4316 22.4766 20.0347 22.4833 19.7908 22.4777C19.1482 22.4639 18.6552 22.6381 18.1161 22.9575C18.0943 22.9713 18.0905 23.0307 18.1261 23.0153C18.716 22.7545 19.2464 22.6459 19.9122 22.7214C20.1281 22.7463 20.3446 22.8054 20.5565 22.8973C20.5483 22.911 20.5395 22.9246 20.5313 22.9374C20.1954 23.5113 19.9224 24.2454 19.8686 25.0163C19.5414 25.0798 19.1896 25.2926 18.9936 25.4965C18.7949 25.7045 18.6197 25.9443 18.4715 26.2113C18.3532 26.4223 18.3249 26.8321 18.1827 27.0005C18.168 27.018 18.1681 27.062 18.1982 27.0485C18.419 26.9489 18.5559 26.3891 18.6914 26.1839C19.0068 25.704 19.4018 25.4775 19.8591 25.3138C19.8595 25.4204 19.8645 25.5276 19.8743 25.6351C19.8913 25.8315 19.9431 26.027 20.0259 26.2072C19.9339 26.2473 19.8455 26.3508 19.7975 26.417C19.6866 26.5706 19.6093 26.7571 19.5016 26.9141C19.4656 26.9663 19.5239 27.008 19.5574 26.9667C19.6412 26.8626 19.7133 26.7433 19.7896 26.6298C19.8341 26.5648 19.8833 26.5051 19.9366 26.4514C19.9859 26.4011 20.0486 26.3859 20.1044 26.3532C20.1946 26.4994 20.304 26.6265 20.4267 26.7277C20.3544 26.7786 20.2986 26.857 20.266 26.9534C20.2528 26.9941 20.2361 27.0325 20.2161 27.068C20.2044 27.0891 20.1802 27.1148 20.1968 27.1465L20.1969 27.1485C20.2022 27.1581 20.2155 27.1599 20.2222 27.1587C20.2742 27.1493 20.3057 27.0751 20.3317 27.0264C20.3813 26.9324 20.4464 26.8729 20.5112 26.7962C20.8487 27.0456 21.2669 27.1607 21.6319 27.1891C22.3233 27.2431 23.0925 27.2044 23.7973 26.9937C23.8179 27.1132 23.8735 27.2278 23.9293 27.3413C24.0118 27.5084 24.0675 27.6881 24.1815 27.831C24.2118 27.8692 24.2799 27.8042 24.2588 27.7606C24.1831 27.6063 24.1554 27.4352 24.1185 27.268C24.0975 27.1739 24.0561 27.0823 24.0277 26.9894C24.0211 26.9672 24.0153 26.9454 24.0093 26.9244C24.907 26.6038 25.6711 25.9781 25.9858 24.8695C26.1539 24.2774 26.2181 23.6323 26.1984 22.975C26.236 22.9492 26.2758 22.9278 26.3173 22.9112C26.3781 22.8871 26.444 22.8787 26.5065 22.8613C26.5396 22.8523 26.5855 22.7563 26.5238 22.7632C26.4063 22.776 26.2887 22.7746 26.1934 22.8362C26.1837 22.6231 26.1653 22.4091 26.1384 22.1952V22.1952C26.2258 22.0845 26.3597 22.0214 26.4782 21.9701C26.5617 21.9336 26.6413 21.8863 26.7227 21.8452C26.7649 21.8234 26.808 21.8048 26.8524 21.7887C26.8188 21.8022 27.1457 21.6895 26.9885 21.7806C26.9797 21.7854 26.9791 21.8085 26.9923 21.802C27.0335 21.7851 27.0726 21.7628 27.109 21.7354C27.1184 21.729 27.1313 21.7056 27.1161 21.6934C26.8953 21.5156 26.5507 21.7306 26.3552 21.8149C26.2673 21.8532 26.1832 21.9009 26.1035 21.9576C26.0729 21.7611 26.0363 21.5656 25.9926 21.3717C25.9819 21.3252 25.9704 21.2821 25.9587 21.2384C26.0956 20.4695 26.1624 19.7354 26.512 19.0795C26.8895 18.3716 27.4659 18.0093 28.0246 17.5659C28.0562 17.5397 28.0678 17.4483 28.0102 17.4743ZM25.7343 24.6343C25.351 26.6442 23.3772 26.7902 21.9179 26.8418C21.1454 26.8694 20.3107 26.5176 20.1371 25.4398C20.1492 25.4524 20.1627 25.464 20.1756 25.4758C20.5243 25.9643 21.4074 26.0916 21.7982 26.1467C22.4837 26.2431 23.1173 25.7938 23.6542 25.4129C24.1686 25.0472 24.9226 24.5664 25.2255 23.9091C25.4269 23.4725 25.4833 22.9894 25.5429 22.4739C25.5887 22.0773 25.5404 21.6148 25.5622 21.2057C25.6107 21.346 25.6498 21.4823 25.6823 21.5975C25.9632 22.6157 25.9154 23.6836 25.7343 24.6343Z" fill="url(#paint3_radial_69_4185)"/>
<path d="M30.5848 13.2796C30.5694 12.8901 30.2273 12.3681 30.0797 12.0817C29.6399 11.2312 29.0448 10.4705 28.3347 9.98879C28.0549 9.79926 27.5115 9.52877 27.1882 9.66795C26.9332 9.64275 26.6481 9.76044 26.4082 9.78233C26.0188 9.81929 25.5986 9.69262 25.2019 9.6285C25.187 9.62741 25.1468 9.66161 25.1688 9.68321C25.6392 10.1506 26.3513 10.0629 26.9081 9.90341C26.853 10.0262 26.865 10.1859 26.9117 10.355C26.6468 10.4233 26.3934 10.5879 26.125 10.6117C26.105 10.6133 26.0728 10.6741 26.1068 10.6772C26.4028 10.7022 26.687 10.6005 26.9717 10.535C27.0882 10.8334 27.2774 11.1351 27.3811 11.3092C27.4924 11.4943 27.6129 11.6712 27.7418 11.8386C27.7206 11.8607 27.7019 11.8839 27.6808 11.905C27.6711 11.9154 27.6603 11.9242 27.6485 11.9312C27.6464 11.931 27.6175 11.9506 27.6334 11.9426C27.6224 11.9481 27.6104 11.9624 27.6148 11.9801C27.6275 12.0319 27.7137 11.9705 27.7915 11.9013C27.8135 11.9295 27.8364 11.9569 27.8589 11.9851C27.8136 12.0286 27.7642 12.0656 27.7115 12.0954C27.6772 12.1135 27.6616 12.206 27.7152 12.1814C27.7845 12.1458 27.85 12.1017 27.911 12.0497C27.9672 12.1178 28.0241 12.1851 28.0829 12.2505C27.9671 12.3312 27.8565 12.4236 27.749 12.5086C27.6476 12.5937 27.5519 12.6882 27.4627 12.7916C27.38 12.8821 27.2963 13.0562 27.1944 13.1167C27.1845 13.1223 27.167 13.1622 27.1911 13.1648C27.2383 13.1682 27.2427 13.154 27.2787 13.114C27.3979 12.9757 27.5279 12.8506 27.6547 12.7228C27.8106 12.5657 28.0013 12.4688 28.1809 12.3565C28.3041 12.4889 28.4333 12.6166 28.5645 12.7373C28.5485 12.7593 28.5329 12.7813 28.5184 12.8022C28.3593 13.0282 28.2318 13.2928 28.104 13.5494C28.0808 13.5957 28.1275 13.6122 28.1478 13.5769C28.2715 13.362 28.3965 13.1489 28.5369 12.9521C28.572 12.9035 28.6095 12.8577 28.6491 12.8149C28.8007 12.9496 28.9548 13.0748 29.1082 13.1912C29.0229 13.3817 28.9788 13.6207 28.9072 13.8049C28.8853 13.8604 28.9504 13.8497 28.9659 13.8166C29.0253 13.6895 29.0726 13.5547 29.1234 13.4219C29.146 13.365 29.1713 13.3102 29.1992 13.2578C29.2877 13.3214 29.3764 13.385 29.4642 13.4423C29.6093 13.5389 29.7598 13.6178 29.9135 13.6779C29.7061 13.9695 29.6355 14.4813 29.6151 14.88C29.612 14.9403 29.6878 14.8907 29.6937 14.8572C29.7367 14.6299 29.7977 14.4115 29.8758 14.205C29.9321 14.0517 30.022 13.8909 30.044 13.7171C30.1239 13.739 30.2042 13.7448 30.2818 13.7345C30.1767 14.2466 30.2226 14.8904 30.2786 15.3889C30.2867 15.4586 30.3618 15.3987 30.3616 15.3538C30.357 14.6371 30.5085 14.0184 30.5908 13.3361C30.5934 13.3178 30.5913 13.2981 30.5848 13.2796ZM30.1265 13.4092C30.1286 13.3829 30.1322 13.3571 30.1375 13.3321C30.1405 13.3214 30.14 13.3091 30.1362 13.2976C30.1324 13.2861 30.1256 13.2761 30.117 13.2694C30.1119 13.2658 30.1065 13.2632 30.101 13.2617C30.0968 12.8475 28.9258 11.4101 28.8113 11.2935C28.6283 11.1068 27.4974 10.0633 27.2405 10.2527C27.2213 10.0465 27.291 9.90282 27.5898 9.99063C28.0365 10.1218 28.4315 10.4123 28.803 10.7811C29.397 11.37 29.879 12.2181 30.2359 13.0325C30.3753 13.3514 30.2894 13.4323 30.1265 13.4092Z" fill="url(#paint4_radial_69_4185)"/>
<path d="M22.4935 10.0553C21.8374 9.71177 21.1977 9.3377 20.5402 9.02917C20.5615 8.87106 20.4685 8.69746 20.3362 8.53613C20.3753 8.52442 20.4114 8.51306 20.4438 8.50714C20.9193 8.40221 21.4133 8.36662 21.8746 8.20467C21.9046 8.19401 21.9318 8.10059 21.881 8.11345C21.4757 8.21608 21.0448 8.22601 20.6281 8.27697C20.4721 8.29613 20.3173 8.32338 20.1621 8.34918C20.0285 8.22302 19.8903 8.10563 19.7481 7.9976C19.8048 7.94633 19.8568 7.88786 19.893 7.85823C20.0477 7.73186 20.2187 7.63039 20.348 7.46304C20.3772 7.42547 20.3466 7.38125 20.314 7.41657C20.1159 7.63259 19.8429 7.7249 19.6219 7.90669C19.5775 7.87939 19.5322 7.85473 19.4865 7.83281C19.4941 7.81881 19.5014 7.80534 19.5095 7.79166C19.5627 7.70471 19.6195 7.62088 19.6694 7.53056C19.7032 7.46934 19.6376 7.44655 19.6101 7.4931C19.5475 7.59763 19.4756 7.6932 19.4102 7.79497C19.3524 7.76961 19.293 7.7467 19.234 7.72783C19.0751 7.63295 18.9112 7.55696 18.7449 7.501C18.7363 7.28387 18.6874 7.04665 18.6659 6.85743C18.6164 6.41966 18.6326 5.96356 18.5086 5.53206C18.4959 5.48801 18.4419 5.54004 18.4492 5.57542C18.53 5.96892 18.4983 6.37876 18.5031 6.7667C18.5058 6.9874 18.5278 7.21351 18.537 7.43697C18.4184 7.4046 18.2991 7.37989 18.1823 7.36136C18.1443 7.18863 18.0381 7.01893 17.9771 6.85623C17.9567 6.8019 17.8867 6.8659 17.9015 6.91183C17.929 7.00181 17.9615 7.08959 17.9946 7.17741C18.0147 7.23144 18.0316 7.28722 18.0489 7.34276C17.8249 7.31331 17.6027 7.31625 17.3868 7.3515C17.338 7.30624 17.2907 7.26051 17.2407 7.21658C17.055 7.05021 16.7643 6.89301 16.651 6.63081C16.6279 6.57742 16.5606 6.64048 16.5754 6.68641C16.6545 6.93497 16.9009 7.1592 17.0643 7.32594C17.0935 7.35664 17.1235 7.3911 17.1538 7.4276C17.0966 7.45413 17.0435 7.49069 16.9961 7.53632C16.8872 7.49066 16.771 7.46646 16.6639 7.4335C16.427 7.35907 16.1934 7.32058 15.9579 7.2234C15.9344 7.2134 15.8953 7.26595 15.9236 7.28001C16.1024 7.36724 16.2842 7.43904 16.4675 7.49484C16.6133 7.54149 16.7654 7.62515 16.915 7.67035C16.8592 7.8725 17.039 8.11471 17.266 8.32437C17.2403 8.33506 17.2146 8.34547 17.1895 8.35763C17.0951 8.40442 16.9791 8.4368 16.9138 8.536C16.8885 8.57442 16.9189 8.60777 16.9519 8.58819C17.0862 8.50575 17.2398 8.47156 17.3906 8.43288C17.4237 8.46014 17.457 8.48657 17.4898 8.51181C17.3068 8.59527 17.126 8.68774 16.944 8.76213C16.5634 8.91798 16.1424 9.19712 15.7397 9.27195C15.7098 9.27777 15.6749 9.35805 15.7254 9.35402C16.0389 9.32952 16.3447 9.14907 16.6411 9.04962C16.994 8.93259 17.3481 8.80765 17.6899 8.65468C17.7366 8.68665 17.7804 8.71356 17.8189 8.73637C18.0606 8.87983 18.3096 8.99494 18.5624 9.08003C18.5424 9.18111 18.5278 9.28572 18.5135 9.39065C18.4731 9.68874 18.4291 9.98429 18.417 10.2905C18.414 10.3639 18.5111 10.3096 18.516 10.2626C18.5568 9.86995 18.66 9.50817 18.739 9.13635C18.9729 9.20299 19.2081 9.24701 19.4422 9.26799C19.483 9.34695 19.5349 9.421 19.5755 9.49651C19.5957 9.53426 19.655 9.47376 19.6397 9.43751C19.6179 9.38308 19.5957 9.33033 19.5736 9.27759C19.5919 9.27893 19.6105 9.28028 19.6288 9.28162C19.6533 9.28341 19.6826 9.28555 19.7137 9.28783C19.7466 9.32565 19.7804 9.36153 19.809 9.3959C19.9131 9.52004 20.0201 9.63982 20.1286 9.75829C20.1685 9.80176 20.2458 9.71887 20.2098 9.66853C20.125 9.55037 20.0425 9.4301 19.9613 9.30763C20.093 9.31411 20.2316 9.30967 20.3405 9.26793C20.5889 9.35405 20.8386 9.43114 21.0814 9.53142C21.5393 9.7214 21.9898 9.96539 22.4491 10.1403C22.4817 10.1533 22.5323 10.0756 22.4935 10.0553Z" fill="url(#paint5_radial_69_4185)"/>
<path d="M29.1642 31.8635C28.7505 32.0378 28.3465 32.2445 27.9538 32.4686C27.5538 32.6964 27.1084 32.9412 26.7344 33.2709C26.4217 33.424 26.1205 33.7031 25.9946 34.0352C25.7852 34.5883 26.535 34.5973 26.7907 34.5806C27.6087 34.5261 28.4055 34.1339 29.095 33.7004C29.6135 33.3742 30.3963 32.819 30.6612 32.1526C31.0925 31.0661 29.4193 31.7559 29.1642 31.8635Z" fill="url(#paint6_radial_69_4185)"/>
<path d="M10.3916 17.8729C9.87012 18.0107 9.22047 18.1497 8.66706 18.0853C8.27781 18.0397 7.91261 17.9634 7.52765 17.9498C7.4728 17.4228 7.35807 16.9123 7.16488 16.4558C7.30843 16.4143 7.45228 16.4096 7.60273 16.3983C7.78399 16.3847 7.96317 16.3187 8.13877 16.2796C8.17397 16.2716 8.21561 16.1732 8.15581 16.1811C7.96015 16.2071 7.76517 16.246 7.56716 16.2578C7.40839 16.2673 7.24954 16.2529 7.11568 16.3482C7.1044 16.3237 7.09293 16.2997 7.0821 16.2752C7.12729 16.2699 7.17382 16.2676 7.21952 16.2567C7.29188 16.2414 7.36045 16.2123 7.42303 16.1704C7.46454 16.142 7.45297 16.0612 7.39897 16.0935C7.31362 16.1425 7.21705 16.1631 7.11734 16.1538C7.08584 16.1507 7.0548 16.1532 7.02517 16.1614C6.99045 16.0975 6.95122 16.0372 6.90805 15.9814C6.94709 15.9849 6.98583 15.9844 7.02387 15.9799C7.20668 15.9558 7.36956 15.8098 7.5298 15.7235C7.77491 15.5906 8.04044 15.3652 8.12886 15.0369C8.14048 14.9947 8.08855 15.0077 8.07828 15.027C7.90057 15.3616 7.27237 15.6413 6.93395 15.58C6.72633 15.5423 6.56879 15.5693 6.44762 15.7127C6.35307 15.7221 6.26238 15.7769 6.18421 15.8934C5.97985 16.1955 5.85776 16.5439 5.78255 16.9177C5.25327 18.2438 5.16491 20.2144 5.47444 21.6311C5.55223 21.9879 5.74873 22.7557 6.13137 22.7979C6.28792 22.9359 6.53452 23.0456 6.6033 23.0846C6.82941 23.2168 7.05145 23.3631 7.26849 23.5228C7.58886 23.7527 7.71974 24.0739 7.95675 24.3983C7.98319 24.4345 8.03281 24.3753 8.02095 24.3393C7.94648 24.0835 7.84696 23.8363 7.72488 23.6036C7.62 23.4065 7.32769 23.2587 7.17262 23.1551C6.94828 23.0098 6.71869 22.8818 6.48531 22.7718C6.47233 22.7654 6.44243 22.7547 6.40454 22.7405C6.64106 22.615 6.8122 22.3133 6.94235 21.9989C7.03159 22.0405 7.12177 22.0794 7.20828 22.1211C7.40672 22.2165 7.56223 22.3721 7.74701 22.5033C7.782 22.5281 7.83986 22.4501 7.79946 22.4163C7.62103 22.2684 7.48337 22.1075 7.28838 21.9899C7.19633 21.934 7.10384 21.8784 7.01072 21.8268C7.06375 21.683 7.10952 21.5427 7.14938 21.4222C7.16423 21.3773 7.17846 21.3301 7.19291 21.2826C7.30619 21.3228 7.41958 21.3614 7.53359 21.3991C7.87593 21.5133 8.23611 21.6741 8.57795 21.7485C8.62189 21.758 8.68539 21.6564 8.62121 21.6343C8.44243 21.5727 8.26965 21.4404 8.09334 21.3586C7.93726 21.2861 7.77621 21.2369 7.61862 21.1754C7.51444 21.135 7.39192 21.0669 7.26968 21.0157C7.3888 20.5644 7.47295 20.0944 7.52108 19.6114C7.54093 19.5922 7.57436 19.5427 7.53795 19.5269C7.53484 19.5249 7.53191 19.5223 7.52923 19.5194C7.55232 19.2586 7.56364 18.9942 7.56314 18.7276C7.65724 18.7379 7.75124 18.7467 7.84551 18.7659C8.02714 18.8032 8.2073 18.878 8.38862 18.8979C8.42318 18.9004 8.47644 18.8152 8.42418 18.8039C8.2487 18.7665 8.07631 18.6725 7.9013 18.6192C7.78851 18.5863 7.67502 18.5665 7.56236 18.5601C7.56041 18.4606 7.55658 18.3613 7.55087 18.2623C7.61516 18.2795 7.68895 18.2826 7.78477 18.2979C8.09309 18.349 8.41166 18.4294 8.71813 18.4444C9.2546 18.4716 9.91075 18.1748 10.384 17.9631C10.4115 17.9483 10.4415 17.8594 10.3916 17.8729ZM7.00522 16.6349C6.74278 17.5297 6.38173 18.3139 6.27012 19.2975C6.17167 20.1694 6.36011 21.2551 6.58526 22.1427C6.38067 22.4057 6.13257 22.4764 5.90748 21.9284C5.74857 21.5418 5.70281 21.0991 5.67174 20.681C5.68288 20.6802 5.69282 20.6744 5.69974 20.6645C5.69974 20.6645 5.70135 20.6646 5.70193 20.6632C5.78375 20.671 5.86445 20.6652 5.94192 20.6459C5.95957 20.6426 5.97556 20.6334 5.98837 20.6193C6.00119 20.6053 6.01039 20.5868 6.01511 20.5656C6.01659 20.5607 6.01724 20.5553 6.01701 20.5498C6.01677 20.5443 6.01567 20.5387 6.01375 20.5334C6.01183 20.5281 6.00915 20.5232 6.00584 20.519C6.00254 20.5147 5.99869 20.5112 5.9945 20.5086C5.99503 20.5078 5.99543 20.5069 5.99568 20.5059C5.88846 20.4612 5.75891 20.4846 5.65839 20.3955C5.6557 20.3937 5.65293 20.3922 5.65009 20.3909C5.63985 20.2445 5.63146 20.092 5.62495 19.937C5.70508 19.9204 5.78219 19.8924 5.85485 19.8535C5.89883 19.831 5.92539 19.7158 5.85001 19.742C5.77731 19.7709 5.69971 19.7845 5.62006 19.7824C5.6023 19.2763 5.61497 18.7749 5.65795 18.2822C5.66271 18.3111 5.70362 18.2838 5.7074 18.2629C5.80172 17.6663 5.93014 17.0847 6.09175 16.5222C6.32209 15.7024 6.75557 16.1037 7.0277 16.6014C7.01787 16.6097 7.01015 16.6212 7.00522 16.6349V16.6349Z" fill="url(#paint7_radial_69_4185)"/>
<path d="M5.94219 19.0627C5.89948 19.0595 5.85756 19.061 5.81469 19.0556C5.76219 19.0489 5.74028 19.0183 5.6965 18.99C5.66694 18.9702 5.63409 19.0105 5.62844 19.0403C5.59684 19.209 5.84679 19.1702 5.91332 19.1697C5.94812 19.1702 5.99544 19.0671 5.94219 19.0627Z" fill="url(#paint8_radial_69_4185)"/>
<path d="M17.1773 32.5945C17.1198 32.1313 16.5101 31.7935 16.304 32.2134C16.2203 32.3841 16.2747 32.554 16.3858 32.6795C16.465 32.8325 16.5773 32.9573 16.7068 33.0363C16.9086 33.1558 17.1193 33.0199 17.1702 32.7808C17.1788 32.7393 17.1823 32.6956 17.1805 32.651C17.1921 32.631 17.1973 32.6068 17.1773 32.5945Z" fill="url(#paint9_radial_69_4185)"/>
<path d="M10.8868 30.6424C10.6689 30.3659 10.4559 30.0176 10.1385 30.1095C9.93758 30.168 9.87932 30.4031 9.9479 30.6249C9.94482 30.6768 9.95668 30.7312 9.98142 30.7785C10.1697 31.139 10.7522 31.6326 11.0315 31.3436C11.2275 31.1406 11.0439 30.8409 10.8868 30.6424Z" fill="url(#paint10_radial_69_4185)"/>
<path d="M29.1511 25.6544C29.031 25.6559 28.9224 25.7554 28.8441 25.8505C28.7618 25.9505 28.6902 26.0789 28.6889 26.2368C28.6886 26.2739 28.71 26.3294 28.7419 26.3435C28.8539 26.3913 28.9508 26.3659 29.0407 26.2973C29.1155 26.2399 29.25 26.0821 29.2207 25.9391C29.237 25.8942 29.2489 25.8465 29.2563 25.7966C29.2685 25.707 29.2228 25.6534 29.1511 25.6544Z" fill="url(#paint11_radial_69_4185)"/>
<path d="M31.3632 21.0147C31.1859 20.6876 30.8575 20.7053 30.6755 20.9165C30.5173 21.1003 30.438 21.3276 30.371 21.5709C30.2254 21.8853 30.1398 22.2681 30.1366 22.4918C30.1345 22.6884 30.164 22.8894 30.2235 23.0831C30.2291 23.1149 30.2341 23.1472 30.2413 23.1789C30.3228 23.5496 30.6707 23.8269 30.9189 23.6243C31.1288 23.5902 31.3023 23.4429 31.4334 23.2334C31.7756 22.6792 31.7115 21.6617 31.3632 21.0147Z" fill="url(#paint12_radial_69_4185)"/>
<path d="M30.5629 18.8436C30.5301 18.7878 30.4812 18.7853 30.4363 18.7946C30.362 18.8098 30.2876 18.8917 30.3008 18.9964C30.2952 19.0287 30.2918 19.0619 30.2907 19.0956C30.2884 19.1477 30.3344 19.1737 30.3675 19.1692C30.391 19.1643 30.4127 19.1531 30.4311 19.1362C30.4496 19.1194 30.4644 19.0973 30.4746 19.0714C30.4775 19.0647 30.4799 19.0569 30.4829 19.05C30.4921 19.0451 30.5011 19.0395 30.5097 19.0334C30.5541 19 30.6066 18.9173 30.5629 18.8436Z" fill="url(#paint13_radial_69_4185)"/>
<path d="M24.4247 10.6197C24.2874 10.4343 24.054 10.3836 23.9262 10.5413C23.903 10.5365 23.8718 10.5747 23.8791 10.6038C23.8793 10.607 23.8811 10.6106 23.882 10.6138C23.8503 10.6909 23.8536 10.7811 23.9338 10.846C23.9614 10.868 23.9906 10.8861 24.0207 10.8998C24.0562 10.9471 24.0981 10.986 24.1438 11.0144C24.1895 11.0427 24.238 11.0598 24.2864 11.0646C24.4759 11.0816 24.5638 10.8078 24.4247 10.6197Z" fill="url(#paint14_radial_69_4185)"/>
<g style="mix-blend-mode:color-dodge" opacity="0.6">
<path d="M18.3297 4.49333C16.4055 3.78834 14.5383 4.73358 12.972 5.72022C12.9391 5.74095 12.9335 5.82109 12.9858 5.80291C13.8207 5.51231 14.6044 5.06916 15.446 4.78305C16.3828 4.46333 17.2918 4.37522 18.3008 4.56805C18.33 4.5719 18.3707 4.50831 18.3297 4.49333Z" fill="#4B5DA7"/>
</g>
</g>
<defs>
<radialGradient id="paint0_radial_69_4185" cx="0" cy="0" r="1" gradientUnits="userSpaceOnUse" gradientTransform="translate(6.47722 -1.15253) rotate(4.17888) scale(32.2928 40.0758)">
<stop offset="0.41" stop-color="#6488AA"/>
<stop offset="0.91" stop-color="#A06E7F"/>
</radialGradient>
<radialGradient id="paint1_radial_69_4185" cx="0" cy="0" r="1" gradientUnits="userSpaceOnUse" gradientTransform="translate(34.8328 20.501) rotate(4.17888) scale(42.5529 52.8088)">
<stop offset="0.41" stop-color="#33495D"/>
<stop offset="0.91" stop-color="#A06E7F"/>
</radialGradient>
<radialGradient id="paint2_radial_69_4185" cx="0" cy="0" r="1" gradientUnits="userSpaceOnUse" gradientTransform="translate(13136.6 -15409.3) rotate(4.17888) scale(10158.4 9323.37)">
<stop offset="0.41" stop-color="#33495D"/>
<stop offset="0.91" stop-color="#A06E7F"/>
</radialGradient>
<radialGradient id="paint3_radial_69_4185" cx="0" cy="0" r="1" gradientUnits="userSpaceOnUse" gradientTransform="translate(49533.3 -64294.5) rotate(4.17888) scale(38628.1 38618.2)">
<stop offset="0.41" stop-color="#33495D"/>
<stop offset="0.91" stop-color="#A06E7F"/>
</radialGradient>
<radialGradient id="paint4_radial_69_4185" cx="0" cy="0" r="1" gradientUnits="userSpaceOnUse" gradientTransform="translate(24166.1 -33814.7) rotate(4.17888) scale(18956.5 20232.3)">
<stop offset="0.41" stop-color="#33495D"/>
<stop offset="0.91" stop-color="#A06E7F"/>
</radialGradient>
<radialGradient id="paint5_radial_69_4185" cx="0" cy="0" r="1" gradientUnits="userSpaceOnUse" gradientTransform="translate(32640.1 -28315.2) rotate(4.17888) scale(24748.5 17455.8)">
<stop offset="0.41" stop-color="#33495D"/>
<stop offset="0.91" stop-color="#A06E7F"/>
</radialGradient>
<radialGradient id="paint6_radial_69_4185" cx="0" cy="0" r="1" gradientUnits="userSpaceOnUse" gradientTransform="translate(23981.2 -19340.2) rotate(4.17888) scale(18101.9 12008.7)">
<stop offset="0.41" stop-color="#33495D"/>
<stop offset="0.91" stop-color="#A06E7F"/>
</radialGradient>
<radialGradient id="paint7_radial_69_4185" cx="0" cy="0" r="1" gradientUnits="userSpaceOnUse" gradientTransform="translate(22983 -58317.2) rotate(4.17888) scale(19350.2 34116.6)">
<stop offset="0.41" stop-color="#33495D"/>
<stop offset="0.91" stop-color="#A06E7F"/>
</radialGradient>
<radialGradient id="paint8_radial_69_4185" cx="0" cy="0" r="1" gradientUnits="userSpaceOnUse" gradientTransform="translate(1670.74 -1016.02) rotate(4.17888) scale(1242.45 657.436)">
<stop offset="0.41" stop-color="#33495D"/>
<stop offset="0.91" stop-color="#A06E7F"/>
</radialGradient>
<radialGradient id="paint9_radial_69_4185" cx="0" cy="0" r="1" gradientUnits="userSpaceOnUse" gradientTransform="translate(4245.5 -6293.7) rotate(4.17888) scale(3340.85 3771.85)">
<stop offset="0.41" stop-color="#33495D"/>
<stop offset="0.91" stop-color="#A06E7F"/>
</radialGradient>
<radialGradient id="paint10_radial_69_4185" cx="0" cy="0" r="1" gradientUnits="userSpaceOnUse" gradientTransform="translate(5352.43 -7841.47) rotate(4.17888) scale(4214.47 4697.22)">
<stop offset="0.41" stop-color="#33495D"/>
<stop offset="0.91" stop-color="#A06E7F"/>
</radialGradient>
<radialGradient id="paint11_radial_69_4185" cx="0" cy="0" r="1" gradientUnits="userSpaceOnUse" gradientTransform="translate(2802.19 -4468.2) rotate(4.17888) scale(2208.18 2669.88)">
<stop offset="0.41" stop-color="#33495D"/>
<stop offset="0.91" stop-color="#A06E7F"/>
</radialGradient>
<radialGradient id="paint12_radial_69_4185" cx="0" cy="0" r="1" gradientUnits="userSpaceOnUse" gradientTransform="translate(6693.98 -18308.8) rotate(4.17888) scale(5682.52 10697.3)">
<stop offset="0.41" stop-color="#33495D"/>
<stop offset="0.91" stop-color="#A06E7F"/>
</radialGradient>
<radialGradient id="paint13_radial_69_4185" cx="0" cy="0" r="1" gradientUnits="userSpaceOnUse" gradientTransform="translate(1416.29 -2354.1) rotate(4.17888) scale(1110.22 1407.01)">
<stop offset="0.41" stop-color="#33495D"/>
<stop offset="0.91" stop-color="#A06E7F"/>
</radialGradient>
<radialGradient id="paint14_radial_69_4185" cx="0" cy="0" r="1" gradientUnits="userSpaceOnUse" gradientTransform="translate(2955.88 -3639.74) rotate(4.17888) scale(2279.65 2197.22)">
<stop offset="0.41" stop-color="#33495D"/>
<stop offset="0.91" stop-color="#A06E7F"/>
</radialGradient>
<clipPath id="clip0_69_4185">
<rect width="32.691" height="35.2486" fill="white" transform="matrix(0.997341 0.0728705 0.069763 0.997564 0.627686 0.67334)"/>
</clipPath>
</defs>
</svg>
