<svg width="337" height="316" viewBox="0 0 337 316" fill="none" xmlns="http://www.w3.org/2000/svg">
<g clip-path="url(#clip0_67_3739)">
<path d="M158.475 212.556C152.674 224.602 104.836 299.167 92.7458 293.288C80.6558 287.408 109.087 203.604 114.887 191.558C116.266 188.696 118.194 186.134 120.563 184.017C122.931 181.901 125.693 180.271 128.692 179.223C134.747 177.104 141.396 177.479 147.176 180.263C152.956 183.048 157.394 188.014 159.512 194.07C161.631 200.126 161.258 206.776 158.475 212.556Z" fill="url(#paint0_linear_67_3739)"/>
<path d="M156.332 215.483C155.97 215.484 155.609 215.466 155.249 215.428C149.449 214.84 141.266 211.837 133.19 207.556C124.911 203.638 117.599 198.895 113.655 194.598C112.573 193.432 111.705 192.085 111.089 190.618C108.304 183.653 114.032 177.585 114.032 177.585L141.054 191.804L168.759 204.887C168.759 204.887 166.825 215.813 156.332 215.483Z" fill="#FF2F8D"/>
<g style="mix-blend-mode:multiply" opacity="0.5">
<path d="M156.332 215.483C156.26 214.44 155.992 213.42 155.543 212.476C154.511 210.634 152.937 209.154 151.035 208.236C149.185 207.244 147.197 206.62 145.269 205.816C135.206 201.59 126.988 193.103 116.305 190.945C114.589 190.583 112.829 190.481 111.083 190.643C108.297 183.678 114.025 177.609 114.025 177.609L141.047 191.829L168.759 204.887C168.759 204.887 166.825 215.813 156.332 215.483Z" fill="#750336"/>
</g>
<path d="M117.491 164.376L99.0611 160.756C98.5291 160.648 97.9766 160.721 97.4905 160.962L55.3383 180.744C54.8691 180.966 54.3432 181.038 53.8315 180.951C53.3199 180.865 52.8472 180.623 52.4774 180.259C52.1076 179.894 51.8585 179.426 51.7638 178.915C51.669 178.405 51.7332 177.878 51.9476 177.405L53.8128 173.32C55.5687 169.544 57.6881 164.9 60.0899 160.03C69.813 139.826 83.2411 113.69 88.707 111.915C92.2986 110.749 99.2954 110.769 106.41 111.278C109.589 111.503 112.875 111.77 115.716 112.087C122.725 112.842 128.205 113.697 128.205 113.697L117.491 164.376Z" fill="#FF2F8D"/>
<g style="mix-blend-mode:multiply" opacity="0.5">
<path d="M117.491 164.376L99.0611 160.756C98.5292 160.648 97.9766 160.721 97.4905 160.962L55.3383 180.744C54.8692 180.966 54.3432 181.038 53.8316 180.951C53.3199 180.865 52.8473 180.623 52.4775 180.259C52.1077 179.894 51.8586 179.425 51.7638 178.915C51.6691 178.405 51.7332 177.878 51.9477 177.405L53.8129 173.32C54.8174 172.74 55.8219 172.16 56.8109 171.589C64.3722 167.697 72.5821 165.286 80.4629 162.055C88.3437 158.824 95.9933 154.407 101.145 147.662C107.006 139.97 108.963 130.226 112.064 121.285C113.038 118.13 114.271 115.061 115.75 112.109C122.759 112.864 128.239 113.719 128.239 113.719L117.491 164.376Z" fill="#750336"/>
</g>
<path style="mix-blend-mode:screen" opacity="0.5" d="M106.456 111.251C106.291 111.282 106.128 111.321 105.967 111.368C101.3 112.89 96.9089 115.153 92.9626 118.073C88.5877 121.311 84.6177 125.063 81.1379 129.248C73.1638 138.777 67.2397 149.823 60.1005 159.942C69.8236 139.737 83.2518 113.602 88.7177 111.827C92.2986 110.749 99.2954 110.769 106.456 111.251Z" fill="url(#paint1_linear_67_3739)"/>
<path d="M207.581 255.283C207.329 255.737 206.946 256.104 206.481 256.335C206.016 256.565 205.492 256.648 204.978 256.573C204.464 256.498 203.986 256.268 203.606 255.914C203.227 255.56 202.964 255.098 202.854 254.591L193.429 208.965C193.329 208.436 193.052 207.956 192.643 207.605L178.712 195.039L212.809 156.023C212.809 156.023 216.853 159.994 221.776 165.272C223.682 167.324 225.695 169.562 227.622 171.83C232.351 177.343 236.724 183.062 237.907 186.645C239.74 192.14 226.695 218.94 216.3 238.873C214.194 242.933 212.206 246.698 210.458 249.953C209.436 251.966 208.415 253.73 207.581 255.283Z" fill="#FF2F8D"/>
<g style="mix-blend-mode:multiply" opacity="0.5">
<path d="M207.581 255.283C207.33 255.737 206.946 256.104 206.481 256.335C206.016 256.565 205.492 256.648 204.978 256.573C204.464 256.498 203.986 256.268 203.607 255.914C203.227 255.56 202.965 255.098 202.854 254.591L193.429 208.965C193.329 208.436 193.052 207.956 192.643 207.605L178.713 195.039L212.809 156.023C212.809 156.023 216.854 159.994 221.776 165.272C220.237 169.37 218.247 173.284 215.841 176.942C211.163 184.114 204.791 190.493 202.522 198.769C200.863 204.817 201.584 211.242 202.316 217.435C203.32 225.882 204.359 234.392 207.307 242.354C208.251 244.88 209.366 247.348 210.436 249.843C209.436 251.966 208.415 253.73 207.581 255.283Z" fill="#750336"/>
</g>
<path style="mix-blend-mode:screen" opacity="0.5" d="M216.314 238.824C216.163 238.76 216.023 238.674 215.898 238.569C214.326 237.416 214.3 235.123 214.55 233.165C215.838 223.725 220.186 215.052 223.734 206.244C227.282 197.436 230.216 187.849 228.447 178.505C227.958 176.766 227.621 174.989 227.44 173.192C227.424 172.731 227.447 172.269 227.509 171.812C232.238 177.326 236.611 183.044 237.794 186.627C239.691 192.127 226.709 218.891 216.314 238.824Z" fill="url(#paint2_linear_67_3739)"/>
<path d="M245.866 40.6145C243.949 16.5584 237.88 9.75818 234.744 7.85934C234.744 7.85934 233.745 7.34352 233.663 7.30846C230.264 5.95311 221.198 5.16938 200.731 18.0783C174.965 34.3353 126.262 92.5217 109.217 150.009C107.062 157.142 107.221 164.775 109.67 171.812C112.12 178.85 116.734 184.932 122.852 189.186C133.451 195.258 144.39 200.716 155.614 205.532C162.687 207.888 170.324 207.944 177.43 205.693C184.537 203.441 190.747 198.997 195.172 192.998C230.943 144.854 248.308 71.0037 245.866 40.6145Z" fill="white"/>
<path d="M245.36 59.8653C228.298 58.6747 211.963 52.488 198.392 42.0765C193.745 38.4972 189.464 34.4659 185.613 30.0417C190.303 25.6038 195.378 21.5909 200.778 18.0503C202.647 16.8268 204.455 15.7829 206.155 14.8015C222.806 5.31167 230.583 6.07671 233.664 7.30727L234.75 7.83378C237.911 9.73915 243.918 16.5751 245.849 40.5824C245.989 42.2531 246.066 44.0635 246.077 45.9738C246.08 50.6137 245.841 55.2505 245.36 59.8653Z" fill="#FF2F8D"/>
<g style="mix-blend-mode:multiply" opacity="0.5">
<path d="M245.359 59.8658C228.297 58.6752 211.962 52.4885 198.391 42.077C193.744 38.4977 189.463 34.4664 185.612 30.0422C190.302 25.6043 195.377 21.5914 200.777 18.0508C202.646 16.8273 204.454 15.7834 206.154 14.802C203.842 17.2914 201.746 20.3355 202.036 23.6923C202.325 27.0491 205.273 29.9427 207.995 32.2662C212.824 36.3823 217.819 40.6084 223.892 42.4191C227.725 43.3401 231.648 43.8396 235.59 43.9085C239.159 44.0501 242.68 44.7734 246.016 46.0498C246.037 50.6635 245.818 55.275 245.359 59.8658Z" fill="#750336"/>
</g>
<path style="mix-blend-mode:screen" opacity="0.5" d="M225.789 13.9767C224.243 16.8092 223.672 20.0717 224.164 23.2611C224.786 28.6923 227.144 33.7779 230.888 37.762C231.408 38.4628 232.083 39.0346 232.86 39.4331C233.636 39.8315 234.494 40.0461 235.367 40.06C235.902 39.9906 236.417 39.8162 236.884 39.5467C237.351 39.2771 237.759 38.9179 238.087 38.4897C238.742 37.6232 239.231 36.6422 239.528 35.5968C241.122 30.472 241.215 24.9975 239.795 19.8213C239.134 16.8686 237.744 14.1287 235.751 11.8522C235.389 11.3145 234.918 10.8591 234.368 10.5159C233.819 10.1727 233.203 9.94943 232.561 9.86061C231.27 9.87639 230.007 10.2423 228.907 10.9193C227.63 11.6643 226.559 12.7149 225.789 13.9767Z" fill="url(#paint3_linear_67_3739)"/>
<path d="M178.967 99.2271C187.789 108.831 202.724 109.466 212.326 100.645C221.928 91.8243 222.561 76.888 213.739 67.2839C204.918 57.6799 189.982 57.045 180.38 65.8659C170.778 74.6867 170.146 89.623 178.967 99.2271Z" fill="#13B5E3"/>
<path d="M191.939 102.041C202.31 104.478 212.693 98.0458 215.129 87.6735C217.564 77.3012 211.131 66.9168 200.759 64.4795C190.387 62.0421 180.005 68.4746 177.569 78.8469C175.133 89.2192 181.567 99.6036 191.939 102.041Z" fill="#88E4EF"/>
<path style="mix-blend-mode:screen" opacity="0.5" d="M194.264 83.9661C197.468 91.9057 210.074 94.3961 202.144 97.6141C198.337 99.1508 194.075 99.1119 190.296 97.5061C186.517 95.9004 183.531 92.8591 181.994 89.0515C180.457 85.2439 180.495 80.9818 182.1 77.2028C183.705 73.4239 186.746 70.4375 190.553 68.9009C198.467 65.6918 191.07 76.042 194.264 83.9661Z" fill="url(#paint4_linear_67_3739)"/>
<path d="M195.154 192.966C190.729 198.965 184.518 203.409 177.412 205.661C170.306 207.913 162.669 207.856 155.596 205.5C144.386 200.682 133.467 195.212 122.896 189.119C116.855 184.928 112.276 178.952 109.802 172.029C107.327 165.106 107.08 157.582 109.095 150.512L109.236 149.935C114.711 132.277 122.198 115.307 131.549 99.36C132.823 97.1408 134.13 94.9435 135.44 92.7861C138.443 95.3939 141.526 97.9143 144.689 100.347C168.438 118.614 195.94 131.388 225.215 137.752C224.129 140.44 222.997 143.154 221.85 145.878C216.506 158.288 210.186 170.254 202.949 181.664C200.448 185.54 197.853 189.326 195.154 192.966Z" fill="#A8D7E3"/>
<g style="mix-blend-mode:multiply" opacity="0.5">
<path d="M195.153 192.966C190.729 198.965 184.518 203.409 177.412 205.661C170.306 207.913 162.669 207.857 155.596 205.501C144.386 200.682 133.467 195.212 122.895 189.119C116.855 184.928 112.276 178.952 109.801 172.029C107.327 165.106 107.08 157.582 109.095 150.512C109.164 152.465 109.371 154.411 109.717 156.335C110.601 163.119 113.805 169.388 118.786 174.078C119.99 175.251 121.43 176.155 123.009 176.732C124.589 177.308 126.272 177.543 127.949 177.422C131.371 176.889 134.011 174.252 136.319 171.683C144.325 162.756 151.333 152.982 157.217 142.533C158.491 139.94 160.18 137.573 162.216 135.525C163.231 134.497 164.499 133.754 165.893 133.373C167.286 132.992 168.756 132.985 170.153 133.354C171.448 133.895 172.575 134.771 173.418 135.893C174.261 137.015 174.79 138.341 174.95 139.735C175.221 142.532 174.823 145.355 173.789 147.968C171.432 154.378 167.885 160.547 165.307 167.003C162.729 173.458 161.341 180.833 163.64 187.42C165.938 194.006 173.025 199.25 179.809 197.58C182.765 196.656 185.494 195.123 187.821 193.078C192.877 189.273 197.862 185.488 202.965 181.656C200.448 185.541 197.853 189.326 195.153 192.966Z" fill="#A8D7E3"/>
</g>
<g style="mix-blend-mode:screen" opacity="0.5">
<path d="M221.85 145.878C205.042 144.715 188.627 140.257 173.539 132.759C157.383 124.679 143.096 113.306 131.598 99.3731C132.872 97.1539 134.179 94.9567 135.488 92.7993C138.491 95.4071 141.574 97.9275 144.737 100.36C168.473 118.616 195.958 131.386 225.215 137.752C224.129 140.44 222.997 143.155 221.85 145.878Z" fill="#A8D7E3"/>
</g>
<path d="M171.448 139.908L165.942 137.153L122.83 223.337L128.336 226.092L171.448 139.908Z" fill="#13B5E3"/>
</g>
<defs>
<linearGradient id="paint0_linear_67_3739" x1="143.204" y1="189.229" x2="94.0448" y2="286.197" gradientUnits="userSpaceOnUse">
<stop offset="0.1" stop-color="#FCC006"/>
<stop offset="0.42" stop-color="#FCC006" stop-opacity="0.59"/>
<stop offset="0.7" stop-color="#FCC006" stop-opacity="0.27"/>
<stop offset="0.89" stop-color="#FCC006" stop-opacity="0.08"/>
<stop offset="0.98" stop-color="#FCC006" stop-opacity="0"/>
</linearGradient>
<linearGradient id="paint1_linear_67_3739" x1="74.4542" y1="128.876" x2="86.0447" y2="137.781" gradientUnits="userSpaceOnUse">
<stop stop-color="#FF2F8D" stop-opacity="0"/>
<stop offset="0.48" stop-color="#FF2F8D"/>
<stop offset="1" stop-color="#FF2F8D" stop-opacity="0"/>
</linearGradient>
<linearGradient id="paint2_linear_67_3739" x1="-739.028" y1="5038.42" x2="-270.776" y2="5849.45" gradientUnits="userSpaceOnUse">
<stop stop-color="#FF2F8D" stop-opacity="0"/>
<stop offset="0.48" stop-color="#FF2F8D"/>
<stop offset="1" stop-color="#FF2F8D" stop-opacity="0"/>
</linearGradient>
<linearGradient id="paint3_linear_67_3739" x1="661.71" y1="307.439" x2="860.89" y2="652.431" gradientUnits="userSpaceOnUse">
<stop stop-color="#FF2F8D" stop-opacity="0"/>
<stop offset="0.48" stop-color="#FF2F8D"/>
<stop offset="1" stop-color="#FF2F8D" stop-opacity="0"/>
</linearGradient>
<linearGradient id="paint4_linear_67_3739" x1="182.438" y1="75.9495" x2="206.043" y2="94.0867" gradientUnits="userSpaceOnUse">
<stop offset="0.11" stop-color="#88E4EF" stop-opacity="0"/>
<stop offset="0.47" stop-color="#88E4EF"/>
<stop offset="0.93" stop-color="#88E4EF" stop-opacity="0"/>
</linearGradient>
<clipPath id="clip0_67_3739">
<rect width="209.351" height="267.651" fill="white" transform="translate(231.792) rotate(60)"/>
</clipPath>
</defs>
</svg>
