<svg xmlns="http://www.w3.org/2000/svg" xmlns:xlink="http://www.w3.org/1999/xlink" viewBox="0 0 195.22 195.22"><defs><style>.cls-1{isolation:isolate;}.cls-2{fill:url(#Degradado_sin_nombre_9);}.cls-3{fill:url(#Degradado_sin_nombre_9-2);}.cls-4,.cls-5{fill:#88e4ef;}.cls-5,.cls-6,.cls-7,.cls-8{opacity:0.5;}.cls-5,.cls-8{mix-blend-mode:screen;}.cls-6{fill:#71caeb;}.cls-6,.cls-7{mix-blend-mode:multiply;}.cls-7{fill:#428ebd;}.cls-8{fill:url(#Degradado_sin_nombre_3);}</style><radialGradient id="Degradado_sin_nombre_9" cx="97.61" cy="97.61" r="97.61" gradientUnits="userSpaceOnUse"><stop offset="0.23" stop-color="#88e4ef"/><stop offset="0.32" stop-color="#88e4ef" stop-opacity="0.98"/><stop offset="0.42" stop-color="#88e4ef" stop-opacity="0.92"/><stop offset="0.52" stop-color="#88e4ef" stop-opacity="0.83"/><stop offset="0.63" stop-color="#88e4ef" stop-opacity="0.7"/><stop offset="0.74" stop-color="#88e4ef" stop-opacity="0.53"/><stop offset="0.85" stop-color="#88e4ef" stop-opacity="0.32"/><stop offset="0.96" stop-color="#88e4ef" stop-opacity="0.08"/><stop offset="1" stop-color="#88e4ef" stop-opacity="0"/></radialGradient><radialGradient id="Degradado_sin_nombre_9-2" cx="97.61" cy="97.61" r="86.84" xlink:href="#Degradado_sin_nombre_9"/><linearGradient id="Degradado_sin_nombre_3" x1="118.17" y1="62.73" x2="48.41" y2="116.28" gradientUnits="userSpaceOnUse"><stop offset="0.11" stop-color="#88e4ef" stop-opacity="0"/><stop offset="0.47" stop-color="#88e4ef"/><stop offset="0.93" stop-color="#88e4ef" stop-opacity="0"/></linearGradient></defs><g class="cls-1"><g id="Camada_2" data-name="Camada 2"><g id="OBJECTS"><circle class="cls-2" cx="97.61" cy="97.61" r="97.61"/><circle class="cls-3" cx="97.61" cy="97.61" r="86.84"/><circle class="cls-4" cx="97.61" cy="97.61" r="70.09"/><path class="cls-5" d="M167.7,97.61A70.09,70.09,0,0,1,29,111.9,70.1,70.1,0,0,0,165.35,89.05a70.92,70.92,0,0,0-1.46-14.3A70.28,70.28,0,0,1,167.7,97.61Z"/><path class="cls-5" d="M167.4,91.18A70.09,70.09,0,0,0,28.59,105q0,3.26.3,6.42A70.09,70.09,0,1,1,167.4,91.18Z"/><path class="cls-6" d="M158,98.45A59.54,59.54,0,0,1,48.43,130.74a59.55,59.55,0,0,0,82.21-82.38A59.44,59.44,0,0,1,158,98.45Z"/><path class="cls-7" d="M37.39,118.85a56.7,56.7,0,0,0,11.08,19.32c3.43,4.07,7.73,8,13,8.51a7.39,7.39,0,0,0,5.73-1.6c2.45-2.27,2.2-6.15,1.65-9.44a80.89,80.89,0,0,0-6-20.95A42.19,42.19,0,0,0,49.34,97.83,15.77,15.77,0,0,0,43.5,95C31.8,92.63,35.46,112.7,37.39,118.85Z"/><path class="cls-7" d="M78.22,61.1c6.13-.26,12.35-2.37,18.24-5.43,4.21-2.19,8.59-5.23,10.7-10.11a8.77,8.77,0,0,0,.66-5.84c-.93-2.9-3.94-3.68-6.61-4a55.68,55.68,0,0,0-17.84.22,36.49,36.49,0,0,0-17.18,8.39,17.66,17.66,0,0,0-4,4.8C56.54,59.54,72.93,61.32,78.22,61.1Z"/><path class="cls-7" d="M126.66,53.72A22.33,22.33,0,0,0,139.83,61a5.73,5.73,0,0,0,3.71-.33c1.84-1,2.27-3.49,2-5.57a17.4,17.4,0,0,0-8.09-12.22c-3.42-2.21-10.28-5.44-14-2.27C119.45,44,124.16,50.85,126.66,53.72Z"/><path class="cls-7" d="M138.26,78.27a5.25,5.25,0,0,0,5.12.41,5.12,5.12,0,0,0,2.25-5.45c-.81-4.19-6.5-9.36-10.88-6.73C130.08,69.31,135.09,76.32,138.26,78.27Z"/><path class="cls-7" d="M121,111.72c-4.16,5.06-7.41,11.24-7.31,17.79S118,142.8,124.4,144.22c3.47.77,7.13-.06,10.41-1.44a32.75,32.75,0,0,0,19.21-24c.86-4.88.52-10.16-2-14.43-2.84-4.79-9.59-8.63-14.95-5.81A54,54,0,0,0,121,111.72Z"/><path class="cls-7" d="M47.12,82.23a8.52,8.52,0,0,0,3,6.39,9.17,9.17,0,0,0,5.68,2.32,7.35,7.35,0,0,0,5.62-2.3C64,85.86,63.54,81.17,61,78.41,56.47,73.43,47.28,74.28,47.12,82.23Z"/><path class="cls-7" d="M73,87.48c6.89-1.5,2.86-11.14-3.26-9.78C63.44,79.1,67.14,88.75,73,87.48Z"/><circle class="cls-7" cx="92.66" cy="100.44" r="9.5"/><circle class="cls-7" cx="77.8" cy="150.5" r="5.36"/><circle class="cls-7" cx="159.04" cy="99.44" r="4.6"/><path class="cls-7" d="M57.79,58.83a3.94,3.94,0,1,1-3.94-3.94A3.94,3.94,0,0,1,57.79,58.83Z"/><path class="cls-8" d="M120,44.37c-12.6-7.82-29-8.53-42.79-3.21S52.06,57.4,44.85,70.35a54.6,54.6,0,0,0-6.94,20.42,34.89,34.89,0,0,0,3.9,21C46.48,120,54.89,125.54,63.72,129a56.8,56.8,0,0,0,23.87,4.09,40.41,40.41,0,0,0,22.56-8.26c7-5.51,11.6-13.47,15.08-21.66a111.75,111.75,0,0,0,8.06-30.05,37,37,0,0,0,0-11.45,18.64,18.64,0,0,0-5.17-9.54C125.46,49.24,123.42,46.5,120,44.37Z"/><path class="cls-5" d="M76.42,47.86A34,34,0,0,0,63.59,63.43a27.22,27.22,0,0,0-.09,20C66.88,91.69,75,97.7,83.76,99.14a31.26,31.26,0,0,0,24.92-7.28A37.67,37.67,0,0,0,121.1,68.77a34.58,34.58,0,0,0-.5-13.29c-.84-3.45-2.34-8.43-5.68-10.18-7.57-3.94-16.94-4.71-25.2-3A37.9,37.9,0,0,0,76.42,47.86Z"/><path class="cls-5" d="M41.28,99.27a13.84,13.84,0,0,0,4.26,10.6,11.33,11.33,0,0,0,10.94,2.51,12.51,12.51,0,0,0,6.73-5.88,16.26,16.26,0,0,0,.79-14C62.13,88,56.56,81.91,51.24,84.22A17.53,17.53,0,0,0,41.28,99.27Z"/><path class="cls-5" d="M89.13,47a9.69,9.69,0,0,0-4.2,5.8c-.69,3.78,2.11,7.4,5.37,9.45a16.82,16.82,0,0,0,12.83,2.29,13.2,13.2,0,0,0,9.43-8.65c1.48-4.91-.49-11.16-6-11.7C100.3,43.59,94.55,43.1,89.13,47Z"/><circle class="cls-5" cx="81.08" cy="65.56" r="6.73"/></g></g></g></svg>