<svg width="233" height="90" viewBox="0 0 233 90" fill="none" xmlns="http://www.w3.org/2000/svg">
<path d="M174.306 -40.6924C190.37 -3.66238 177.459 37.5861 145.466 51.4376C113.472 65.2891 74.5136 46.4961 58.448 9.46327C42.3825 -27.5695 55.2969 -68.8143 87.2903 -82.6658C119.284 -96.5174 158.242 -77.7243 174.306 -40.6924Z" fill="url(#paint0_radial_69_4012)"/>
<path d="M174.306 -40.6924C190.37 -3.66238 177.459 37.5861 145.466 51.4376C113.472 65.2891 74.5136 46.4961 58.448 9.46327C42.3825 -27.5695 55.2969 -68.8143 87.2903 -82.6658C119.284 -96.5174 158.242 -77.7243 174.306 -40.6924Z" fill="url(#paint1_radial_69_4012)"/>
<path style="mix-blend-mode:screen" opacity="0.3" d="M78.1124 12.9628C84.3777 11.5256 90.5295 9.78208 96.6407 7.8601C108.169 4.23584 119.349 0.00909171 129.79 -6.14328C135.349 -9.42215 140.721 -13.0117 146.111 -16.5906C150.957 -19.8093 155.664 -23.0656 161.081 -25.1947C166.383 -27.2791 171.351 -29.6298 175.514 -33.7425C175.881 -34.1055 176.234 -34.4808 176.585 -34.8583C175.903 -36.8101 175.146 -38.7577 174.306 -40.6922C172.911 -43.9064 171.32 -47.0305 169.543 -50.0407C168.952 -49.5124 168.358 -48.9838 167.761 -48.455C165.453 -46.4088 163.369 -44.2708 161.746 -41.5076C160.246 -38.9527 158.97 -36.2277 157.448 -33.6899C151.01 -22.9482 141.041 -16.6027 130.591 -11.2279C118.263 -4.88069 105.411 0.425227 92.1265 4.47152C86.0572 6.32196 80.1985 7.1312 73.7575 7.33332C70.5289 7.43046 67.2869 7.52012 64.1742 8.25163C62.2886 8.69539 60.4263 9.2221 58.5505 9.69153C59.3927 11.6217 60.3037 13.4953 61.2664 15.323C66.8636 14.3884 72.5599 14.2369 78.1124 12.9628Z" fill="url(#paint2_radial_69_4012)"/>
<path style="mix-blend-mode:screen" opacity="0.5" d="M65.9542 10.0999C64.8078 11.2768 69.9295 11.717 70.0847 11.7107C71.1893 11.6621 72.2845 11.5604 73.3706 11.4057C76.6818 10.9318 79.7501 10.4507 82.6369 8.78696C82.2505 8.53944 81.8386 8.35429 81.4151 8.23779C78.0902 8.30873 74.8045 8.6436 71.5224 8.99348C69.9559 9.15833 67.112 8.91301 65.9542 10.0999Z" fill="url(#paint3_radial_69_4012)"/>
<g style="mix-blend-mode:multiply" opacity="0.5">
<path d="M87.2904 -82.6658C55.2969 -68.8143 42.3843 -27.5653 58.448 9.46328C74.5118 46.4919 113.472 65.2877 145.461 51.4397C177.45 37.5917 190.366 -3.66029 174.301 -40.6903C158.237 -77.7203 119.284 -96.516 87.2904 -82.6658ZM133.268 35.1701C106.791 46.6345 74.5532 31.0816 61.2596 0.437204C47.966 -30.2072 58.6482 -64.343 85.126 -75.8059C111.604 -87.2688 143.843 -71.7165 157.138 -41.0712C170.433 -10.4259 159.745 23.7091 133.268 35.1701Z" fill="#32BAE6"/>
</g>
<g style="mix-blend-mode:color-dodge" opacity="0.7">
<path d="M87.4042 39.0306C73.3522 28.0962 65.2329 16.7459 60.535 7.36237L60.4845 7.27632C58.8429 4.37446 57.3895 1.36285 56.1367 -1.7329C58.9709 8.94435 65.7669 24.8075 82.0476 38.4602C109.555 61.5254 139.034 54.2677 151.671 45.5427C151.671 45.5427 120.025 64.4231 87.4042 39.0306Z" fill="#C3E6F8"/>
</g>
<g style="mix-blend-mode:multiply" opacity="0.8">
<path d="M165.396 9.85284C158.512 19.4508 155.897 32.4047 145.817 38.9147C140.397 42.4138 134.196 44.4032 127.844 45.534C121.637 46.6381 114.76 47.8172 108.281 46.6805C101.538 45.4984 95.0204 42.422 88.2461 41.5709C86.3247 41.327 84.4048 41.1722 82.4802 41.0395C100.959 55.6518 124.689 60.4359 145.473 51.4376C167.291 41.9915 180.233 19.8014 181.163 -5.10116C175.829 -0.194681 169.728 3.8176 165.396 9.85284Z" fill="#32BAE6"/>
</g>
<path opacity="0.5" d="M167.592 -53.1943C168.318 -52.0813 169.019 -50.9464 169.695 -49.7894C183.488 -52.7725 192.696 -52.7772 194.294 -49.0939C195.893 -45.4107 189.573 -38.6825 177.933 -30.6485C164.94 -21.6866 145.319 -11.0965 122.665 -1.29359C99.9444 8.54296 78.7335 15.6226 63.2927 18.9524C49.5463 21.9168 40.3715 21.9153 38.7764 18.2405C37.1814 14.5656 43.4358 7.8943 54.9707 -0.0853604C54.5864 -1.37408 54.2355 -2.66186 53.918 -3.94872C36.8534 7.29194 27.2444 17.1479 29.5617 22.501C31.879 27.8541 45.7305 27.5821 65.7015 22.7909C82.0975 18.8564 102.625 11.8821 124.307 2.49548C145.926 -6.86381 165.008 -17.0281 179.082 -26.2685C196.311 -37.5826 206.037 -47.5081 203.701 -52.8913C201.365 -58.2744 187.546 -57.9801 167.592 -53.1943Z" fill="url(#paint4_radial_69_4012)"/>
<g style="mix-blend-mode:screen">
<path d="M52.3559 -0.924196C48.5316 1.53579 44.8657 4.25746 41.3769 7.22689C39.65 8.72863 37.9844 10.3117 36.4942 12.0859C35.7486 12.9603 35.0819 13.9144 34.5018 14.9371C33.9548 15.9573 33.4958 17.1069 33.5765 18.2987C33.6127 18.883 33.8183 19.4591 34.1627 19.9415C34.3424 20.1888 34.5449 20.4155 34.7664 20.6175C34.9877 20.8153 35.2209 20.9954 35.4638 21.1561C36.4505 21.8344 37.5704 22.2651 38.6994 22.5555C40.9647 23.1398 43.2898 23.2591 45.5805 23.237C50.1703 23.1528 54.692 22.4615 59.1439 21.5545C63.5959 20.6476 67.9956 19.5091 72.3507 18.2553C76.7059 17.0015 81.0328 15.6304 85.3287 14.1814C89.6245 12.7324 93.8892 11.2023 98.1301 9.60436C102.371 8.00644 106.597 6.36836 110.799 4.66778C115.001 2.9672 119.184 1.23135 123.357 -0.536265C127.53 -2.30389 131.695 -4.09351 135.849 -5.90442C139.873 -7.87147 143.91 -10.0189 147.906 -12.1384C151.902 -14.2579 155.886 -16.4518 159.837 -18.6899C163.789 -20.928 167.702 -23.2162 171.592 -25.5555C175.483 -27.8948 179.325 -30.3178 183.087 -32.8675C186.849 -35.4171 190.539 -38.0878 193.95 -41.1307C195.636 -42.6615 197.287 -44.2762 198.574 -46.1962C199.192 -47.1526 199.756 -48.2252 199.81 -49.3857C199.828 -49.9519 199.645 -50.5273 199.299 -50.9915C198.97 -51.4796 198.452 -51.8007 197.949 -52.1114L197.921 -52.1292L197.89 -52.1539C197.441 -52.493 196.959 -52.7686 196.457 -52.9734C196.201 -53.0909 195.941 -53.1938 195.677 -53.2817C195.416 -53.3843 195.151 -53.4713 194.884 -53.5425L194.083 -53.7697L193.272 -53.9444C192.734 -54.0786 192.184 -54.1346 191.646 -54.2223C191.108 -54.3101 190.557 -54.3375 190.013 -54.3994C189.469 -54.4613 188.924 -54.4729 188.381 -54.4936C187.838 -54.5143 187.292 -54.5452 186.752 -54.5257L185.124 -54.5039C184.583 -54.4871 184.045 -54.4421 183.507 -54.4132C182.968 -54.3842 182.424 -54.3631 181.891 -54.295C180.825 -54.1622 179.744 -54.0928 178.68 -53.9331L177.086 -53.6997C176.548 -53.6162 176.019 -53.5564 175.492 -53.4497L172.325 -52.8657L175.478 -53.5396C175.999 -53.6608 176.531 -53.7383 177.06 -53.8328L178.649 -54.1072C179.713 -54.3007 180.783 -54.3985 181.852 -54.5457C182.391 -54.6264 182.929 -54.6434 183.468 -54.6937C184.006 -54.7439 184.546 -54.7919 185.088 -54.8172L186.723 -54.8655C187.266 -54.8965 187.814 -54.8727 188.361 -54.8655C188.908 -54.8583 189.456 -54.8544 190.006 -54.8018C190.556 -54.7492 191.105 -54.7444 191.65 -54.6532C192.195 -54.5619 192.753 -54.5277 193.304 -54.4025L194.133 -54.2386L194.956 -54.0228C195.232 -53.9569 195.505 -53.8648 195.784 -53.772C196.059 -53.6841 196.331 -53.5809 196.599 -53.4628C197.16 -53.2468 197.699 -52.9461 198.199 -52.57L198.139 -52.612C198.693 -52.2783 199.278 -51.935 199.702 -51.3352C200.147 -50.752 200.391 -50.0258 200.384 -49.3052C200.335 -47.8972 199.729 -46.765 199.095 -45.7501C197.774 -43.7323 196.119 -42.0824 194.427 -40.5062C191.016 -37.3865 187.33 -34.6656 183.591 -32.0449C176.091 -26.8334 168.301 -22.1174 160.408 -17.6056C156.459 -15.3539 152.486 -13.1511 148.487 -10.9971C144.474 -8.8484 140.505 -6.7125 136.389 -4.68028C132.237 -2.84997 128.076 -1.02455 123.903 0.744994C119.73 2.51454 115.525 4.23469 111.306 5.90945C107.088 7.5842 102.856 9.22631 98.5974 10.8036C94.3389 12.381 90.0548 13.893 85.7475 15.3387C81.4402 16.7844 77.0902 18.129 72.7138 19.3637C68.3204 20.5693 63.8879 21.659 59.3929 22.5166C54.8978 23.3742 50.3337 24.0175 45.6718 24.0484C43.3235 24.0307 40.9627 23.8855 38.6078 23.2506C37.4358 22.9307 36.259 22.4749 35.1771 21.7101C34.9037 21.517 34.6418 21.3029 34.3935 21.0694L34.0466 20.7088C33.9403 20.5673 33.8208 20.4382 33.72 20.2893C33.3102 19.6949 33.0704 18.9908 33.0357 18.2803C32.9705 16.8706 33.5012 15.6814 34.0826 14.6313C34.6932 13.5966 35.3925 12.6343 36.1721 11.7559C37.7083 9.99158 39.4163 8.43659 41.1783 6.96605C44.7244 4.06011 48.4576 1.42481 52.3559 -0.924196Z" fill="#44B0D6"/>
</g>
<defs>
<radialGradient id="paint0_radial_69_4012" cx="0" cy="0" r="1" gradientUnits="userSpaceOnUse" gradientTransform="translate(62.8019 -56.2874) rotate(-23.4133) scale(141.13 163.406)">
<stop stop-color="#E3F3FC"/>
<stop offset="0.28" stop-color="#3FB9C9"/>
<stop offset="0.36" stop-color="#38B2C5"/>
<stop offset="0.46" stop-color="#269FBB"/>
<stop offset="0.58" stop-color="#0881AA"/>
<stop offset="0.6" stop-color="#047DA8"/>
<stop offset="0.73" stop-color="#086892"/>
<stop offset="0.87" stop-color="#0D4E76"/>
</radialGradient>
<radialGradient id="paint1_radial_69_4012" cx="0" cy="0" r="1" gradientUnits="userSpaceOnUse" gradientTransform="translate(62.8019 -56.2874) rotate(-23.4133) scale(141.13 163.406)">
<stop stop-color="#E3F3FC"/>
<stop offset="0.28" stop-color="#3FB9C9"/>
<stop offset="0.36" stop-color="#38B2C5"/>
<stop offset="0.46" stop-color="#269FBB"/>
<stop offset="0.58" stop-color="#0881AA"/>
<stop offset="0.6" stop-color="#047DA8"/>
<stop offset="0.73" stop-color="#086892"/>
<stop offset="0.87" stop-color="#0D4E76"/>
</radialGradient>
<radialGradient id="paint2_radial_69_4012" cx="0" cy="0" r="1" gradientUnits="userSpaceOnUse" gradientTransform="translate(352114 -329971) rotate(-23.5754) scale(233399 46567.8)">
<stop stop-color="#E3F3FC"/>
<stop offset="0.28" stop-color="#3FB9C9"/>
<stop offset="0.36" stop-color="#38B7C7"/>
<stop offset="0.47" stop-color="#26B1C2"/>
<stop offset="0.59" stop-color="#07A7B9"/>
<stop offset="0.6" stop-color="#05A6B8"/>
<stop offset="0.68" stop-color="#078FA7"/>
<stop offset="0.85" stop-color="#0C567C"/>
<stop offset="0.87" stop-color="#0D4E76"/>
</radialGradient>
<radialGradient id="paint3_radial_69_4012" cx="0" cy="0" r="1" gradientUnits="userSpaceOnUse" gradientTransform="translate(38609.8 -56883.6) rotate(-23.5754) scale(29827 10585.5)">
<stop stop-color="#E3F3FC"/>
<stop offset="0.28" stop-color="#3FB9C9"/>
<stop offset="0.36" stop-color="#38B7C7"/>
<stop offset="0.47" stop-color="#26B1C2"/>
<stop offset="0.59" stop-color="#07A7B9"/>
<stop offset="0.6" stop-color="#05A6B8"/>
<stop offset="0.68" stop-color="#078FA7"/>
<stop offset="0.85" stop-color="#0C567C"/>
<stop offset="0.87" stop-color="#0D4E76"/>
</radialGradient>
<radialGradient id="paint4_radial_69_4012" cx="0" cy="0" r="1" gradientUnits="userSpaceOnUse" gradientTransform="translate(109.834 -36.6463) rotate(-23.4133) scale(69.5714 80.5522)">
<stop stop-color="#E3F3FC"/>
<stop offset="0.28" stop-color="#3FB9C9"/>
<stop offset="0.33" stop-color="#46BBCB"/>
<stop offset="0.4" stop-color="#59C0CF"/>
<stop offset="0.48" stop-color="#77C9D7"/>
<stop offset="0.52" stop-color="#8ED0DD"/>
</radialGradient>
</defs>
</svg>
