<svg width="379" height="388" viewBox="0 0 379 388" fill="none" xmlns="http://www.w3.org/2000/svg">
<path d="M367.9 172.39C367.669 267.346 292.29 344.131 199.53 343.894C106.77 343.658 31.7694 266.468 32.0005 171.512C32.2316 76.556 107.61 -0.236047 200.37 0.00054523C293.131 0.237137 368.131 77.4127 367.9 172.39Z" fill="url(#paint0_linear_154:53)"/>
<path d="M367.9 172.39C367.669 267.346 292.29 344.131 199.53 343.894C106.77 343.658 31.7694 266.468 32.0005 171.512C32.2316 76.556 107.61 -0.236047 200.37 0.00054523C293.131 0.237137 368.131 77.4127 367.9 172.39Z" fill="url(#paint1_linear_154:53)"/>
<g style="mix-blend-mode:multiply" opacity="0.4">
<g style="mix-blend-mode:multiply" opacity="0.4">
<path d="M94.1605 177.979C111.217 174.537 129.877 177.097 145.01 166.601C159.076 156.854 166.02 139.242 180.166 129.736C187.586 124.749 195.864 123.086 204.544 122.089C214.622 120.935 223.666 119.222 231.597 112.249C234.703 109.514 242.957 102.689 239.581 97.5769C236.955 93.6051 230.747 92.6479 226.489 91.9955C213.844 90.0526 199.831 89.9594 187.127 91.2033C178.153 92.0815 169.707 94.5478 161.391 98.0537C151.667 102.151 142.482 106.922 131.942 108.449C113.734 111.113 96.1564 106.711 78.2213 104.065C68.6025 102.631 58.6965 101.796 49.0427 103.395C47.8801 103.585 46.7456 103.822 45.6041 104.072C30.3819 140.485 27.8537 181.148 38.4434 219.243C48.3984 212.209 56.9317 203.402 65.9763 195.225C74.2855 187.718 82.9729 180.234 94.1605 177.979Z" fill="#C18EA7"/>
</g>
<g style="mix-blend-mode:multiply" opacity="0.4">
<path d="M124.137 325.383C131.017 323.675 137.608 320.921 143.69 317.213C153.806 311.08 161.426 303.114 169.329 294.389C175.982 287.044 183.685 280.731 192.509 276.304C208.399 268.321 226.124 265.593 243.202 261.546C253.489 259.112 263.675 257.581 274.268 258.406C284.072 259.176 293.659 261.302 303.229 263.535C314.434 266.156 326.094 269.117 337.758 270.228C356.215 243.098 366.643 211.097 367.794 178.057C368.944 145.016 360.769 112.337 344.247 83.9299C341.971 88.2567 339.264 92.4831 336.641 96.7238C332.299 103.736 328.556 110.948 327.428 119.282C326.108 129.072 327.845 138.618 329.967 148.15C331.879 156.754 333.819 165.418 332.702 174.283C331.714 182.076 327.691 190.873 321.497 195.741C314.585 201.175 304.892 203.197 298.964 209.915C294.612 214.855 295.221 220.096 294.927 226.272C294.703 230.932 293.684 234.843 290.981 238.654C286.852 244.479 281.274 249.462 273.875 249.541C266.256 249.623 259.12 246.235 252.166 243.421C241.766 239.206 232.343 231.642 221.376 229.011C216.898 227.935 211.159 226.602 206.614 228.251C203.924 229.233 201.834 231.144 199.561 232.847C192.054 238.471 182.666 241.83 173.699 244.11C164.43 246.468 154.997 247.031 145.48 246.479C135.283 245.888 125.85 242.873 116.571 238.593C106.917 234.133 97.5815 229.774 87.469 226.502C81.8665 224.688 75.5076 225.15 69.7475 225.57C62.1981 226.122 54.6907 227.15 47.2184 228.344C45.3415 228.642 43.4682 228.964 41.6158 229.287C56.0746 270.963 85.6155 305.363 124.137 325.383V325.383Z" fill="#C18EA7"/>
</g>
<g style="mix-blend-mode:multiply" opacity="0.4">
<path d="M258.157 51.9433C262.282 50.5094 266.277 48.4697 270.587 47.6416C275.549 46.6845 280.434 45.6485 285.522 45.7955C290.609 45.9425 295.648 46.7275 300.725 47.0573C305.516 47.3578 310.321 47.2763 315.099 46.8136C308.932 40.8606 302.335 35.3916 295.365 30.4529C282.195 41.0099 256.634 43.1249 243.191 49.6527C247.852 52.7284 252.628 53.8647 258.157 51.9433Z" fill="#C18EA7"/>
</g>
</g>
<g style="mix-blend-mode:multiply" opacity="0.4">
<g style="mix-blend-mode:multiply" opacity="0.4">
<path d="M71.6453 128.208C60.2547 126.85 48.759 122.777 37.8936 126.699C36.8642 130.561 35.9666 134.476 35.2009 138.443C40.7299 137.876 46.3534 136.292 51.3082 134.987C58.1117 133.195 65.2129 131.273 71.6453 128.208Z" fill="#C18EA7"/>
</g>
<g style="mix-blend-mode:multiply" opacity="0.4">
<path d="M130.475 153.269C139.278 153.663 147.391 147.892 153.733 141.87C153.162 141.956 152.598 142.07 152.038 142.192C145.087 146.349 137.885 150.049 130.475 153.269V153.269Z" fill="#C18EA7"/>
</g>
<g style="mix-blend-mode:multiply" opacity="0.4">
<path d="M159.951 116.558C158.861 116.581 157.773 116.675 156.695 116.841C154.889 117.325 153.113 117.924 151.38 118.633C150.443 119.179 149.594 119.868 148.862 120.677C157.049 121.182 164.073 120.419 170.484 114.999C167.198 115.066 163.921 115.382 160.68 115.945C160.646 116.118 160.556 116.273 160.423 116.385C160.29 116.497 160.123 116.558 159.951 116.558V116.558Z" fill="#C18EA7"/>
</g>
<g style="mix-blend-mode:multiply" opacity="0.4">
<path d="M33.6602 196.164C33.8282 197.372 34.0103 198.566 34.2169 199.749C39.7844 197.727 45.59 195.171 49.974 191.077C44.2524 191.927 38.7795 193.4 33.6602 196.164Z" fill="#C18EA7"/>
</g>
<g style="mix-blend-mode:multiply" opacity="0.4">
<path d="M208.214 103.28C211.754 101.574 215.017 99.3907 218.459 97.6055C208.434 99.111 198.661 101.495 189.379 105.793C195.755 105.553 202.359 106.101 208.214 103.28Z" fill="#C18EA7"/>
</g>
<g style="mix-blend-mode:multiply" opacity="0.4">
<path d="M89.8114 144.253C94.0343 141.823 97.6479 138.478 101.619 135.682C92.6127 138.461 84.1109 142.719 75.2939 146.053C80.3572 146.307 85.487 146.741 89.8114 144.253Z" fill="#C18EA7"/>
</g>
<g style="mix-blend-mode:multiply" opacity="0.4">
<path d="M133.728 299.698C137.384 298.759 141.936 297.884 144.807 295.239C147.678 292.593 150.003 289.689 152.955 287.427C141.4 289.55 129.799 291.417 118.552 294.909C110.604 297.375 101.783 300.666 95.0322 306.176C98.0086 308.613 101.069 310.947 104.213 313.177C109.858 308.298 116.444 304.416 123.363 302.358C126.795 301.336 130.276 300.587 133.728 299.698Z" fill="#C18EA7"/>
</g>
<g style="mix-blend-mode:multiply" opacity="0.4">
<path d="M139.937 267.686C143.631 267.278 147.339 267.328 151.142 267.364C157.57 267.45 163.334 266.625 168.933 263.693C159.101 262.682 148.859 263.331 139.937 267.686Z" fill="#C18EA7"/>
</g>
<g style="mix-blend-mode:multiply" opacity="0.4">
<path d="M364.562 137.737C364.265 136.227 363.939 134.736 363.603 133.245C360.02 135.274 356.43 137.287 352.832 139.285C356.754 138.848 360.669 138.364 364.562 137.737Z" fill="#C18EA7"/>
</g>
<g style="mix-blend-mode:multiply" opacity="0.4">
<path d="M220.676 244.328C222.346 242.895 223.866 241.303 225.55 240.113C218.442 240.902 211.134 244.318 204.386 246.587C210.063 247.203 216.337 248.085 220.676 244.328Z" fill="#C18EA7"/>
</g>
<g style="mix-blend-mode:multiply" opacity="0.4">
<path d="M331.063 198.2C336.315 196.902 342.653 196.089 345.206 190.905C345.696 189.916 346.148 188.926 346.607 187.958C340.759 190.367 335.135 193.149 331.063 198.2Z" fill="#C18EA7"/>
</g>
<g style="mix-blend-mode:multiply" opacity="0.4">
<path d="M341.267 220.067C348.431 219.181 355.753 218.744 362.227 216.314C362.689 214.521 363.134 212.729 363.544 210.937C360.098 211.295 356.653 211.689 353.424 212.983C349.075 214.711 345.314 217.737 341.267 220.067Z" fill="#C18EA7"/>
</g>
</g>
<g style="mix-blend-mode:multiply" opacity="0.6">
<path d="M200.37 0.000545255C107.61 -0.236047 32.2316 76.5524 32.0005 171.512C31.7694 266.471 106.766 343.64 199.53 343.876C292.294 344.113 367.669 267.328 367.9 172.39C368.131 77.4522 293.131 0.237137 200.37 0.000545255ZM187.092 297.332C110.334 297.139 48.2619 233.27 48.4544 154.689C48.647 76.1079 111.028 12.5543 187.789 12.7514C264.551 12.9486 326.623 76.8141 326.431 155.398C326.238 233.983 263.857 297.529 187.092 297.332Z" fill="#C2989C"/>
</g>
<g style="mix-blend-mode:color-dodge" opacity="0.7">
<path d="M71.1447 262.499C48.5175 225.698 40.7965 193.587 39.3259 168.938C39.3259 168.863 39.3013 168.78 39.2908 168.705C38.3791 160.902 38.0397 153.04 38.2754 145.186C33.8284 170.877 33.5202 211.464 58.6931 256.23C101.227 331.842 180.839 343.923 220.935 337.008C220.935 337.008 123.675 347.941 71.1447 262.499Z" fill="#C3E6F8"/>
</g>
<defs>
<linearGradient id="paint0_linear_154:53" x1="122.643" y1="-1.89264" x2="284.594" y2="345.504" gradientUnits="userSpaceOnUse">
<stop offset="0.03" stop-color="#8CCFD7"/>
<stop offset="0.27" stop-color="#E36132"/>
<stop offset="0.77" stop-color="#E79338"/>
<stop offset="1" stop-color="#A6ADA2"/>
</linearGradient>
<linearGradient id="paint1_linear_154:53" x1="151.002" y1="14.6753" x2="254.219" y2="331" gradientUnits="userSpaceOnUse">
<stop stop-color="#E36132"/>
<stop offset="0.28" stop-color="#E02230"/>
<stop offset="0.45" stop-color="#E35233"/>
<stop offset="0.59" stop-color="#E57035"/>
<stop offset="0.66" stop-color="#E67B36"/>
<stop offset="0.72" stop-color="#E67435"/>
<stop offset="0.8" stop-color="#E45F34"/>
<stop offset="0.9" stop-color="#E23D31"/>
<stop offset="0.92" stop-color="#E23831"/>
</linearGradient>
</defs>
</svg>
