<svg xmlns="http://www.w3.org/2000/svg" xmlns:xlink="http://www.w3.org/1999/xlink" viewBox="0 0 70.15 66.3"><defs><style>.cls-1{isolation:isolate;}.cls-10,.cls-11,.cls-12,.cls-13,.cls-14,.cls-15,.cls-16,.cls-17,.cls-18,.cls-19,.cls-2,.cls-20,.cls-21,.cls-22,.cls-23,.cls-24,.cls-25,.cls-26,.cls-27,.cls-28,.cls-29,.cls-3,.cls-30,.cls-31,.cls-32,.cls-33,.cls-34,.cls-35,.cls-4,.cls-5,.cls-6,.cls-7,.cls-8,.cls-9{fill-rule:evenodd;}.cls-2{fill:url(#radial-gradient);}.cls-12,.cls-16,.cls-17,.cls-19,.cls-23,.cls-25,.cls-27,.cls-29,.cls-3,.cls-31,.cls-33,.cls-35,.cls-7{mix-blend-mode:multiply;}.cls-3{fill:url(#New_Gradient_Swatch_76);}.cls-4{fill:url(#radial-gradient-2);}.cls-20,.cls-21,.cls-5,.cls-6,.cls-9{mix-blend-mode:screen;}.cls-5{fill:url(#radial-gradient-3);}.cls-6{fill:url(#radial-gradient-4);}.cls-7{fill:url(#radial-gradient-5);}.cls-8{fill:url(#New_Gradient_Swatch_22);}.cls-9{fill:url(#radial-gradient-6);}.cls-10{fill:url(#radial-gradient-7);}.cls-11{fill:url(#radial-gradient-8);}.cls-12{opacity:0.5;fill:url(#radial-gradient-9);}.cls-13{fill:url(#radial-gradient-10);}.cls-14{fill:url(#New_Gradient_Swatch_3);}.cls-15{fill:url(#radial-gradient-11);}.cls-16{fill:url(#radial-gradient-12);}.cls-17{fill:url(#radial-gradient-13);}.cls-18{fill:url(#radial-gradient-14);}.cls-19{fill:url(#radial-gradient-15);}.cls-20{fill:url(#radial-gradient-16);}.cls-21{fill:url(#radial-gradient-17);}.cls-22{fill:url(#radial-gradient-18);}.cls-23{fill:url(#New_Gradient_Swatch_76-2);}.cls-24{fill:url(#radial-gradient-19);}.cls-25{fill:url(#New_Gradient_Swatch_76-3);}.cls-26{fill:url(#radial-gradient-20);}.cls-27{fill:url(#New_Gradient_Swatch_76-4);}.cls-28{fill:url(#radial-gradient-21);}.cls-29{fill:url(#New_Gradient_Swatch_76-5);}.cls-30{fill:url(#radial-gradient-22);}.cls-31{fill:url(#New_Gradient_Swatch_76-6);}.cls-32{fill:url(#radial-gradient-23);}.cls-33{fill:url(#New_Gradient_Swatch_76-7);}.cls-34{fill:url(#radial-gradient-24);}.cls-35{fill:url(#New_Gradient_Swatch_76-8);}</style><radialGradient id="radial-gradient" cx="13.81" cy="21.84" r="20.06" gradientTransform="matrix(1, -0.08, 0.08, 1, -1, 0.93)" gradientUnits="userSpaceOnUse"><stop offset="0" stop-color="#9ecfff"/><stop offset="0.17" stop-color="#bcdeff"/><stop offset="0.39" stop-color="#d9ecff"/><stop offset="0.6" stop-color="#eef7ff"/><stop offset="0.8" stop-color="#fbfdff"/><stop offset="1" stop-color="#fff"/></radialGradient><radialGradient id="New_Gradient_Swatch_76" cx="13.48" cy="27.07" r="21.6" gradientTransform="matrix(1, -0.08, 0.08, 1, -1, 0.93)" gradientUnits="userSpaceOnUse"><stop offset="0" stop-color="#aac2e6"/><stop offset="1" stop-color="#fff"/></radialGradient><radialGradient id="radial-gradient-2" cx="26.13" cy="20.66" r="51.33" gradientUnits="userSpaceOnUse"><stop offset="0" stop-color="#009ced"/><stop offset="0.92" stop-color="#4e3bf5"/></radialGradient><radialGradient id="radial-gradient-3" cx="36.66" cy="37.56" r="35.59" gradientUnits="userSpaceOnUse"><stop offset="0.04"/><stop offset="0.84"/><stop offset="0.85" stop-color="#0d1516"/><stop offset="0.9" stop-color="#3e6268"/><stop offset="0.93" stop-color="#659fa9"/><stop offset="0.96" stop-color="#81cbd7"/><stop offset="0.99" stop-color="#93e6f4"/><stop offset="1" stop-color="#99f0ff"/></radialGradient><radialGradient id="radial-gradient-4" cx="20.16" cy="12.14" r="51.96" gradientUnits="userSpaceOnUse"><stop offset="0" stop-color="#1fceff"/><stop offset="1"/></radialGradient><radialGradient id="radial-gradient-5" cx="26.38" cy="23" r="48.81" gradientUnits="userSpaceOnUse"><stop offset="0.56" stop-color="#f5f5ff"/><stop offset="0.64" stop-color="#f0eafa"/><stop offset="0.79" stop-color="#e1cced"/><stop offset="0.99" stop-color="#ca9dd9"/><stop offset="1" stop-color="#c899d7"/></radialGradient><radialGradient id="New_Gradient_Swatch_22" cx="25.8" cy="26.02" r="33.96" gradientUnits="userSpaceOnUse"><stop offset="0" stop-color="#91eb00"/><stop offset="1" stop-color="#05a100"/></radialGradient><radialGradient id="radial-gradient-6" cx="31.11" cy="19.02" r="36.01" gradientUnits="userSpaceOnUse"><stop offset="0" stop-color="#8fe561"/><stop offset="1"/></radialGradient><radialGradient id="radial-gradient-7" cx="29.36" cy="15.54" r="42.5" gradientUnits="userSpaceOnUse"><stop offset="0" stop-color="#94ffe1"/><stop offset="0.18" stop-color="#88f9dd"/><stop offset="0.51" stop-color="#67e9d1"/><stop offset="0.95" stop-color="#33cebd"/><stop offset="1" stop-color="#2dcbbb"/></radialGradient><radialGradient id="radial-gradient-8" cx="15.96" cy="30.21" r="28.62" gradientUnits="userSpaceOnUse"><stop offset="0" stop-color="#dede00"/><stop offset="0.15" stop-color="#d2d200"/><stop offset="0.42" stop-color="#b2b200"/><stop offset="0.47" stop-color="#abab00"/><stop offset="0.51" stop-color="#a5a500"/><stop offset="0.77" stop-color="#7d7d00"/><stop offset="0.91" stop-color="#6e6e00"/></radialGradient><radialGradient id="radial-gradient-9" cx="22.92" cy="36.14" r="12.91" gradientUnits="userSpaceOnUse"><stop offset="0" stop-color="#fff"/><stop offset="1" stop-color="#093"/></radialGradient><radialGradient id="radial-gradient-10" cx="46.29" cy="25.84" r="26.58" gradientUnits="userSpaceOnUse"><stop offset="0" stop-color="#f0ab54"/><stop offset="1" stop-color="#b87126"/></radialGradient><radialGradient id="New_Gradient_Swatch_3" cx="37.53" cy="35.32" r="27.81" gradientUnits="userSpaceOnUse"><stop offset="0" stop-color="#78e05b"/><stop offset="1" stop-color="#0d9c00"/></radialGradient><radialGradient id="radial-gradient-11" cx="16.49" cy="7.43" r="31.37" gradientUnits="userSpaceOnUse"><stop offset="0" stop-color="#fff"/><stop offset="0.17" stop-color="#f9fcff"/><stop offset="0.4" stop-color="#e9f4ff"/><stop offset="0.66" stop-color="#cde6ff"/><stop offset="0.94" stop-color="#a8d4ff"/><stop offset="1" stop-color="#9ecfff"/></radialGradient><radialGradient id="radial-gradient-12" cx="53.07" cy="18.46" r="16.18" gradientUnits="userSpaceOnUse"><stop offset="0" stop-color="#fff"/><stop offset="1" stop-color="#848431"/></radialGradient><radialGradient id="radial-gradient-13" cx="9.14" cy="35.59" r="27.45" xlink:href="#radial-gradient-9"/><radialGradient id="radial-gradient-14" cx="16.62" cy="48.15" r="17.36" xlink:href="#radial-gradient-10"/><radialGradient id="radial-gradient-15" cx="16.37" cy="48.42" r="16.8" xlink:href="#radial-gradient-12"/><radialGradient id="radial-gradient-16" cx="28.42" cy="16.49" r="20.79" gradientUnits="userSpaceOnUse"><stop offset="0" stop-color="#f2f6ff"/><stop offset="1"/></radialGradient><radialGradient id="radial-gradient-17" cx="15.87" cy="27.85" r="18.01" gradientUnits="userSpaceOnUse"><stop offset="0" stop-color="#c5c55c"/><stop offset="1" stop-color="#000a00"/></radialGradient><radialGradient id="radial-gradient-18" cx="25.23" cy="4.31" r="8.96" gradientTransform="matrix(0.96, -0.27, 0.27, 0.96, 0.26, 7.36)" xlink:href="#radial-gradient"/><radialGradient id="New_Gradient_Swatch_76-2" cx="26.2" cy="9.84" r="12.75" gradientTransform="matrix(0.96, -0.27, 0.27, 0.96, 0.26, 7.36)" xlink:href="#New_Gradient_Swatch_76"/><radialGradient id="radial-gradient-19" cx="25.17" cy="45.64" r="31.94" gradientTransform="translate(20.37 -2.89) rotate(21.04)" xlink:href="#radial-gradient"/><radialGradient id="New_Gradient_Swatch_76-3" cx="27.34" cy="55.09" r="27.89" gradientTransform="translate(20.37 -2.89) rotate(21.04)" xlink:href="#New_Gradient_Swatch_76"/><radialGradient id="radial-gradient-20" cx="9.86" cy="41.23" r="16.26" gradientTransform="translate(-2.72 0.37) rotate(-4.66)" xlink:href="#radial-gradient"/><radialGradient id="New_Gradient_Swatch_76-4" cx="8.94" cy="43.93" r="18.16" gradientTransform="translate(-2.72 0.37) rotate(-4.66)" xlink:href="#New_Gradient_Swatch_76"/><radialGradient id="radial-gradient-21" cx="32.33" cy="23.18" r="22.62" gradientTransform="matrix(0.99, 0.15, -0.15, 0.99, 2.6, -4.75)" xlink:href="#radial-gradient"/><radialGradient id="New_Gradient_Swatch_76-5" cx="34.73" cy="26.67" r="23.25" gradientTransform="matrix(0.99, 0.15, -0.15, 0.99, 2.6, -4.75)" xlink:href="#New_Gradient_Swatch_76"/><radialGradient id="radial-gradient-22" cx="48.05" cy="32.1" r="24.84" gradientTransform="matrix(1, 0, 0, 1, 0, 0)" xlink:href="#radial-gradient"/><radialGradient id="New_Gradient_Swatch_76-6" cx="55.46" cy="36.01" r="34.25" gradientTransform="matrix(1, 0, 0, 1, 0, 0)" xlink:href="#New_Gradient_Swatch_76"/><radialGradient id="radial-gradient-23" cx="50.05" cy="31.9" r="9.6" gradientTransform="matrix(1, 0.06, -0.06, 1, 16.68, -5.39)" xlink:href="#radial-gradient"/><radialGradient id="New_Gradient_Swatch_76-7" cx="48.75" cy="34.68" r="9.87" gradientTransform="matrix(1, 0.06, -0.06, 1, 16.68, -5.39)" xlink:href="#New_Gradient_Swatch_76"/><radialGradient id="radial-gradient-24" cx="44.84" cy="56.68" r="32.33" gradientTransform="matrix(1, 0, 0, 1, 0, 0)" xlink:href="#radial-gradient"/><radialGradient id="New_Gradient_Swatch_76-8" cx="47.95" cy="58.95" r="22.46" gradientTransform="matrix(1, 0, 0, 1, 0, 0)" xlink:href="#New_Gradient_Swatch_76"/></defs><g class="cls-1"><g id="Camada_2" data-name="Camada 2"><g id="Layer_1" data-name="Layer 1"><path class="cls-2" d="M16.18,6.8a4.24,4.24,0,0,0-1.47,1.27,1.24,1.24,0,0,0-1.13-1.72c-3.36-.38-5.29,3.92-6,6.25a4,4,0,0,0-5,1.33c-2,2.7-1.52,6.53-.45,9.59A1.65,1.65,0,0,0,.37,24.64c-1.19,2.75.72,7.22,2.5,7.89C5.8,33.62,19.42,12,19.66,8.32c.14-2.14-2-2.26-3.48-1.52Z"/><path class="cls-3" d="M2.36,24.1c-2.59-.69-2,5.52-.41,7.77a2.69,2.69,0,0,0,.92.66c2.46.92,12.52-14.31,15.78-21.3.93-3.79-1.43-5.9-4.58-1.79a2.17,2.17,0,0,0-.52-2.06c-2.33-1.23-5.09,3.81-6.67,7.9.14-.72.27-1.24.43-1.85C1.21,13.05,2,21,2.77,25.07c-.14-.32-.28-.65-.41-1Z"/><path class="cls-4" d="M34,3A31.63,31.63,0,1,1,2.34,34.62,31.63,31.63,0,0,1,34,3Z"/><path class="cls-5" d="M34,3A31.63,31.63,0,1,1,2.34,34.62,31.63,31.63,0,0,1,34,3Z"/><path class="cls-6" d="M33.31,54.68c-.48.1-.85,0-1.11.26s-.33,1,.78,1c.53,0,.09.87.54,1a2.63,2.63,0,0,0,3-.67,1.66,1.66,0,0,1,1.12-.6c.55-.14-.58-.52,1-.86,1.79-.36.49-.58,1.7-1.61.35-.3-.86-1.12.74-1.6,1.27-.38,1.21-.28,1.39-1.52.1-.67-.17-.61-.82-.69-.9-.13-.9,1.28-2,1.58-.69.18-1.88.75-1.76,1.57.15,1-1,1.78-1,.08,0-1.29-.82-1.26-1.11-.6-.14.33-.21.79-.35,1.08-.29.64-.8.73-1.1,1a1.61,1.61,0,0,1-1.06.54ZM26.47,5.87a2.21,2.21,0,0,0,.37-.08,7.17,7.17,0,0,1,.76-.21,24.57,24.57,0,0,1,2.84-.26c.22,0,.38.2.59.25a3.73,3.73,0,0,0,.88.06A10.86,10.86,0,0,1,33,5.5,11.51,11.51,0,0,1,35.43,6c.68.21,1.27.65,1.94.9.44.16.93.16,1.36.35A4.2,4.2,0,0,1,40,8a6.71,6.71,0,0,1,.78,1.25l0,0c.33.28.63.58,1,.83s.77.43,1.12.7a5,5,0,0,1,.86.86A6.23,6.23,0,0,1,44.59,13c.35.77.57,1.59.85,2.39a22,22,0,0,1,1.23,3.59,11.6,11.6,0,0,1,.06,3.81,32.29,32.29,0,0,1-2,7.66c-.31.7-1.43.66-2,1.23s-.61,1.47-1.08,2.11c-.22.3-.73.3-.93.62-.81,1.29-1.29,2.78-2.05,4.11a5.51,5.51,0,0,1-1.24,1.59c-.88.71-2,1.09-2.93,1.75-.48.34-.76,1-1.28,1.23-1.32.7-2.79,1.07-4.17,1.65-.16.07-.28.2-.43.28-.75.38-1.5.75-2.26,1.08a5.91,5.91,0,0,1-1.73.67c-.46.05-.88-.3-1.33-.36a3.9,3.9,0,0,0-1.08,0,4.75,4.75,0,0,0-1.24.28c-.54.25-.94.78-1.51,1a1.06,1.06,0,0,1-.88-.24c-.28-.21-.28-.68-.56-.9s-.54-.07-.8-.12a5.66,5.66,0,0,1-1.8-.44c-.39-.25-.51-.77-.72-1.18s-.07-.71-.33-.88-.65.07-1,0-.58.06-.67-.15.27-.7.16-1-.4-.27-.62-.26-.56.41-.87.39a1.55,1.55,0,0,1-.83-.49,6.53,6.53,0,0,1-1-1.09.94.94,0,0,1-.17-.54c0-.21.21-.41.14-.6s-.36-.19-.45-.36.09-.37,0-.53-.17,0-.25,0a5,5,0,0,1-1.26-.38.57.57,0,0,1-.23-.5c0-.23.35-.41.31-.64s-.3-.33-.49-.45a3.54,3.54,0,0,0-.49-.18s0,0,0,0a2.12,2.12,0,0,1,.11-.45c.09-.18.28-.29.37-.46a1.35,1.35,0,0,0,.17-.56.3.3,0,0,0-.13-.27c-.3-.1-.63,0-.94-.09A.68.68,0,0,1,6,35a.89.89,0,0,1-.23-.51c0-.73.23-1.45.24-2.19a3,3,0,0,0-.21-1,10,10,0,0,1-.51-1.11,2,2,0,0,1,.07-.95c.09-.33.29-.61.41-.93a4.64,4.64,0,0,0,.34-.9,4.75,4.75,0,0,0,0-1,13.73,13.73,0,0,1-.05-1.57,4.57,4.57,0,0,1,.44-1.49,8.43,8.43,0,0,1,.92-1.15,3.62,3.62,0,0,0,.36-.54,6.26,6.26,0,0,0,.36-.9c.15-.42.22-.86.39-1.26a7.51,7.51,0,0,1,.87-1.72c.28-.36.76-.49,1.08-.8a5.92,5.92,0,0,0,.72-.93,8.42,8.42,0,0,1,.8-1.15c.24-.23.64-.21.87-.44s.25-.66.49-.9c.46-.47,1.1-.72,1.57-1.18a6,6,0,0,0,.72-1.08,7.29,7.29,0,0,1,.72-1.21,2.15,2.15,0,0,1,.87-.46c.53-.19,1.1-.23,1.62-.41a3.39,3.39,0,0,0,.62-.39c.54-.34,1.09-.66,1.62-1,.36-.25.65-.59,1-.82a5.69,5.69,0,0,1,1.19-.51c.2-.07.41,0,.61-.08s.39-.23.6-.3a6.83,6.83,0,0,1,1.11-.23c.27,0,.56,0,.83,0ZM43.76,8.19a.79.79,0,0,0-.46.08c0,.44-.15.29.09.7.43.73-.5.76.13,1.61.18.24,1-.14,1,.34s.84-.15,1.19.92a2.45,2.45,0,0,1,.32.65c.26,1.12-.7.32-.46,1.2.09.31.54.13.57.66,0,.05.61.48.69.85.17.72.94.63.93-.35a3.12,3.12,0,0,0,0-1.18c-.18-.57-.22-1.6-.74-2-.16-.14-.73-.3-.73-.52,0-1.37-.8-.64-.88-1.67,0-.35-.83-.33-.87-.73a.75.75,0,0,0-.68-.52Zm-1.1,27.14c-1.34-.19-.49,1.26-1.38,1.93-.28.22-.41,1.11-.69,1.29s-.29,1.48,1.11.56c.86-.56,0-.67,2-.58a1,1,0,0,0,1-1.54c-.47-.85.86-.58.28-1.66-.43-.83.69-.45,1.19-2.08.37-1.23-.59-.12-.45-1.55,0-.41-.61-.21-.94.14C43.68,33,44,32.2,44,34c0,.43-.56.51-1,.87s-.14.52-.32.49Zm-5.9,8.1c-1.54-.32-1.68.81-2.09,1.13-.09.07,0,.54-.69.7a5.39,5.39,0,0,1-1.94.63c-.29,0-2.27,1.58-.12,1.52,1,0,2.21-1.12,3.77-1.08a2.56,2.56,0,0,0,2.1-1.16c.28-.73,1.52-.22,1.35-1.67-.06-.49.51-.35.49-1.14a6.84,6.84,0,0,0,0-1.18c-.16-.74-.77-.66-1,.31a1.53,1.53,0,0,1-.66,1c-.64.41-.74-.1-1,.83,0,.09-.1.09-.19.07Zm4-13.81c-.8.19-.19,1.42-.91,1.93-.28.19.41.74-.67,1.45-.47.31-.48,1.57-1.86,2.3a3.65,3.65,0,0,1-1.51.68c-.67.06-.47.47-1.29.57-.11,0-1.71,1-1.75.65-.11,0,0-.77.64-.91a7.86,7.86,0,0,1,.83-.45c1.57-.56,1.35-1.82,1.59-1.88.51-.13,1-1.33,1.47-1.42a1.15,1.15,0,0,0,.4-1.3c-.19-.41.55-1.29,1.09-1.29,1.27,0,0-1.12,1.4-1.4.38-.07.37-.55.61-.62,1.2-.36,1.06-3.85,1.83-3.35,0,0,1,2.56.31,2.86-1.3.59.4,1.34-.93,2.08-.42.23-.83,0-1.25.1Z"/><path class="cls-7" d="M43.85,55c-1.66,0-1.41-.88-2.85.66-.44.48-.94,1-1.16,1.25a5.57,5.57,0,0,1-1,.77c-.37.21-.84.22-1.19.46s-.41.72-.77.87c-1,.45-2.21-.57-3.19-.66-2-.2-3.51,1.37-4.72,1.69-.35.09-.7-.37-1-.26s-.51.81-.93.93A1.25,1.25,0,0,1,26,60.37c-.73-.7-.92-2.08-2.11-2.67C22.28,56.92,18,55.83,17,55c-.73-.61-.91-1.71-1.6-2.36-.33-.32-1-.13-1.33-.41-.56-.44.28-1.32-1.78-1.24s-3.39,1.65-2.75-3.34c.07-.49.35-1.7-.56-1.08-.64.43-1.41,1.73-2.57,1.39-.38-.11-.56-.64-.57-1a7.8,7.8,0,0,1,.46-2.16c.29-1.05.73-2.07,1-3.13s-.41-1.16-.92-.62a13.11,13.11,0,0,1-1.6,1.8c-.73.52-1.13-1-1-1.6a5.53,5.53,0,0,1,.88-1.85c.17-.27.21-.5-.16-.37s-.79.32-1.18.43c-.16,0-.36,0-.26-.31A10.12,10.12,0,0,0,4,36c0-.43-.59-.66-.72-1.08s.16-.62.1-.92S3,33.66,3,33.43a12.74,12.74,0,0,1,.36-1.8,5.51,5.51,0,0,0,.13-1.28c0-.64-.58-.46-.69-1.31a32.08,32.08,0,0,0-.49,5.58A31.63,31.63,0,1,0,45.63,5.21l.3.17c1.58.86.94,1.23,1.16,1.51a2.2,2.2,0,0,0,.7.49c.64.39,1.34.68,2,1.13a2.6,2.6,0,0,1,.44.64,7.38,7.38,0,0,0,.69,1.11c.21.23.64.24.77.51s.07.62.31.89,1.2.1,1.75,1.32c.16.38-.16,1.56.15,2.27a6.58,6.58,0,0,0,1.08,1.54c.55.63,1.37,1,1.8,1.75a4.29,4.29,0,0,1,.69,1.87,1.7,1.7,0,0,1-.2.88c-.16.3-.63.43-.67.77-.17,1.62,2.77,5.36,3.42,7.43a17.58,17.58,0,0,1,.82,5.39c0,.47-.56,1.43-.87,1.08-.72-.79-.13-3.15-1-4.39s-1.18,1.15-1.13,1.57c.25,2.36,1.63,2.79.46,5.19-.11.22-.76.74-1,.62s-.16-.7-.41-.93-.32,0-.41.15a2.89,2.89,0,0,0-.72,1.34A22,22,0,0,0,56.11,42a3.52,3.52,0,0,1-.25,1.09,7.52,7.52,0,0,1-.39,1c-.14.28-.39.49-.51.77s-.15.71-.26,1.06a3.33,3.33,0,0,1-.36.87c-.21.3-.62.45-.8.77s-.08.86-.31,1.21-.61.21-.77.46,0,.88-.28,1.21-.59-.09-.74.1-.07.86-.31,1.18a.74.74,0,0,1-.75.21c-.18-.05-.16-.36-.31-.49-.84-.71-.84-.09-1.1.21a.59.59,0,0,1-.75.1c-.47-.23-.58-1.22-.74-1.62s-.73-.11-.93.34-.1.89-.26,1.31c0,.13-.29.14-.33.28-.3,1,.13,1.9-1.13,2.65a2,2,0,0,1-1,.25Z"/><path class="cls-8" d="M2.44,28.92c-.33.9-1.06,2.47-1.08,2.67s.39,1.26.41,1.91c0,.49-.36,1.27-.3,1.44a31.48,31.48,0,0,1,1.08,5.55c.06.51-.22,1.37-.16,1.54s1.08,2.23,1.49,3.39c.18.51,0,1.14.26,1.6,1.15,1.92,1.36,3.73,2.06,5.6A21.34,21.34,0,0,0,8,54c1.69,1.45,1.86,2.18,3,3.39a17.53,17.53,0,0,0,2.59,2.36c.64.47,1.45.64,2.11,1.06.47.3.8.8,1.29,1.08a22.28,22.28,0,0,0,2.85,1.31c.4.16.84.23,1.25.35a2,2,0,0,1-.69-.48c-.07-.09,0-.24-.09-.33s-.26-.11-.32-.22.08-.24,0-.34-.22-.17-.34-.25-.27-.1-.32-.22.1-.19.09-.28a.51.51,0,0,0-.15-.34c-.19-.16-.48-.17-.65-.35a.35.35,0,0,1-.05-.38c.08-.15.36-.14.43-.3s-.06-.29-.16-.39-.27-.12-.4-.2-.34-.1-.34-.24.23-.07.34,0c.26.06.48.26.75.28s.3-.12.46-.16a1,1,0,0,1,.5-.11c.2.05.33.26.52.35a.69.69,0,0,0,.25,0,5.91,5.91,0,0,0,1,.12.47.47,0,0,0,.42-.19.56.56,0,0,0-.05-.53.64.64,0,0,0-.49-.23c-.22,0-.39.2-.6.26a.91.91,0,0,1-.46,0c-.28-.1-.49-.35-.76-.44s-.46.09-.62,0c-.53-.42-.85-1.06-1.34-1.53a.5.5,0,0,0-.42-.15c-.31,0-.57.29-.87.37-.11,0-.22-.06-.32-.07s-.39.1-.57.06a.75.75,0,0,1-.46-.29c-.09-.12,0-.3-.08-.45s-.07-.3-.19-.37c-.36-.19-.81-.15-1.17-.33-.09,0,0-.22-.09-.3s-.44-.3-.62-.49-.06-.19,0-.16.31.28.5.37.25,0,.36,0,.21.27.36.31.48-.07.72,0,.51.21.78.23c.1,0,.23-.06.23-.16,0-.31-.24-.62-.18-.93a.43.43,0,0,1,.44-.31c.22,0,.28.41.5.45s.6-.19.91-.2.49.22.72.15-.05-.33.07-.4.24.14.37.14.2-.17.32-.17.24.15.38.16a2.15,2.15,0,0,0,.61-.09.83.83,0,0,0,.41-.2.81.81,0,0,0,.21-.47.55.55,0,0,0-.1-.35c-.15-.19-.43-.27-.54-.47s.11-.22.09-.33-.26-.38-.3-.6.14-.19.13-.3-.2-.26-.21-.42.21,0,.2-.12c-.05-.25-.29-.43-.35-.68a.23.23,0,0,1,.1-.24.49.49,0,0,1,.45,0c.35.19.56.57.89.79a1.41,1.41,0,0,0,.68.25c.14,0,.35,0,.41-.14s-.15-.28-.13-.43.24-.14.26-.27-.26-.15-.19-.22.26.07.38,0,.4-.31.63-.37.18.12.27.15a1.58,1.58,0,0,0,.59.16c.17,0,.29-.19.45-.25s.37,0,.49-.09,0-.31.08-.45.14-.22.2-.16.11.26.09.39-.15.3-.16.47.1.08.1.14-.14.25-.09.36a.9.9,0,0,0,.49.47,1.12,1.12,0,0,0,.72-.05,1.06,1.06,0,0,0,.59-.42c.09-.17-.17-.42-.05-.57s.34,0,.49,0,.36-.19.38-.36-.25-.38-.24-.59a.94.94,0,0,1,.27-.72c.31-.27.78-.27,1.13-.49.06,0,0-.17,0-.23s-.17-.07-.22-.14a2.41,2.41,0,0,1-.39-.7.26.26,0,0,1,.08-.28c.11-.07.28.05.4,0s.08-.26.19-.32.41,0,.58-.09a2.55,2.55,0,0,0,.68-.63.3.3,0,0,0,0-.26c0-.08-.17-.12-.18-.21a.48.48,0,0,1,.09-.42c.18-.16.5-.1.68-.26s0-.34.13-.46.29,0,.34-.08a1.63,1.63,0,0,0,.21-.94.43.43,0,0,0-.33-.32,2,2,0,0,0-.78.16c-.07,0-.11.1-.19.11s-.3.08-.36,0,.14-.21.18-.32,0-.19,0-.27c.13-.24.36-.42.47-.67s.2-.4.07-.52a1.34,1.34,0,0,0-.9-.19c-.2,0-.34.23-.53.28s-.59-.06-.82.08-.06.38-.17.54-.2.05-.27.12A.51.51,0,0,0,28,42c0,.23.21.53.05.7s-.43,0-.6-.12-.1-.4-.26-.5a.85.85,0,0,0-.72-.14,1.84,1.84,0,0,0-.73.71c-.12.16,0,.51-.21.56s-.51-.41-.78-.32-.56.49-.74.81c-.08.13.12.34,0,.46s-.32,0-.46.05-.24.28-.41.31-.25-.18-.39-.17-.2.19-.32.24-.58.1-.85.21-.17.25-.31.3-.27-.07-.39,0-.24.39-.43.37c-.44-.05-.75-.57-1.19-.57s-.41.55-.71.61-.21-.35-.39-.39-.4.13-.6.18-.74-.06-.76-.32a2.33,2.33,0,0,1,1.62-1.79c.5-.16,1.06.12,1.58,0a1.36,1.36,0,0,0,.8-.48.59.59,0,0,0,0-.56c-.1-.24-.43-.35-.49-.61s.17-.3.25-.46,0-.48.22-.51.27.23.33.39-.1.16-.11.25-.12.34,0,.49.21.08.32.09.34-.08.51-.07.43.25.64.18a.62.62,0,0,0,.39-.49c0-.25-.18-.49-.18-.75a4.32,4.32,0,0,1,.18-1.39c.07-.23.37-.32.46-.54.2-.46.15-1,.39-1.44a5.67,5.67,0,0,1,1.18-1.49c.34-.31.83-.4,1.18-.7s.34-.61.62-.79c.53-.34,1.24-.34,1.75-.7a2.66,2.66,0,0,0,.79-1.1c.12-.24.27-.57.13-.8s-.39,0-.54.1c-.43.34-.7.85-1.13,1.19a16.31,16.31,0,0,1-1.8,1.1,7.83,7.83,0,0,0-1.05.62c-.29.24-.44.62-.72.87a10.49,10.49,0,0,1-1.85,1.47c-.47.26-1.09.16-1.54.43-.24.14-.13.63-.39.72s-.66-.29-1-.23-.3.3-.39.49c-.15.34-.1.78-.33,1.08s-.56.17-.77.36c-.38.34-.58.84-.95,1.18a2.61,2.61,0,0,1-1.06.65,1.19,1.19,0,0,1-.92-.16c-.22-.15-.19-.5-.34-.72s-.36-.7-.69-.85-.44.15-.62.29-.4.67-.74.77-.81-.3-1.21-.23-.31.53-.57.54a.82.82,0,0,1-.69-.49c-.11-.24.15-.51.13-.77s-.34-.47-.28-.72a10,10,0,0,1,.77-1.49c.08-.2.22-.49.07-.65s-.31.15-.48.18c-.39.07-.81.26-1.16.11a.87.87,0,0,1-.49-.8c0-.24.47-.2.59-.41s0-.57.1-.82a.49.49,0,0,1,.39-.24c.23,0,.45.28.67.21s.32-.52.59-.62.75.12,1.08,0c.16-.07.17-.32.15-.49,0-.39-.37-.75-.31-1.13,0-.22.43-.18.54-.36s0-.46.08-.65a2.13,2.13,0,0,1,.75-.71c.37-.22.94-.11,1.23-.44s0-.67,0-1a3.3,3.3,0,0,1,.33-1.16c.07-.13.32-.06.41-.18.25-.34.26-.84.57-1.13a1.17,1.17,0,0,1,.85-.21c.26,0,.48.29.74.29s.21-.31.36-.29.26.4.46.41a.66.66,0,0,0,.65-.33c.13-.36-.11-.77-.08-1.16,0-.08.11-.18.18-.15a4.24,4.24,0,0,1,.69.51,5.21,5.21,0,0,0,1,.65.47.47,0,0,0,.51-.08c.31-.41.35-1,.62-1.42A2.24,2.24,0,0,1,22.5,25c.43-.23,1,0,1.44-.31a7.07,7.07,0,0,0,1.29-1.57,5.82,5.82,0,0,1,.77-.95c.27-.22.61-.57.95-.46s-.29.42-.41.64-.62.59-.47.88.57-.1.83-.21.45-.57.64-.41-.14.51-.31.69a6.06,6.06,0,0,1-1.23,1c-.21.14-.54.06-.72.23s-.17.55-.36.75c-.46.45-1.09.7-1.54,1.16a.92.92,0,0,0-.31.66c0,.12.22,0,.33-.07a2.43,2.43,0,0,1,.64-.13c.23,0,.43.22.65.18s.44-.45.72-.44,0,.33-.11.46c-.21.35-.55.61-.77,1-.12.19-.42.58-.2.64s.71-.2,1-.41c.51-.38.81-1,1.36-1.34.29-.17-.4.54-.54.85,0,.12-.09.29,0,.38s.26.07.39,0a2,2,0,0,0,.95-.46c.44-.55.54-1.31,1-1.88.08-.12.46-.22.44-.08-.12.62-.61,1.12-.75,1.73,0,.12.2.26.31.2A6.15,6.15,0,0,0,30,26.52c.49-.5.78-1.16,1.22-1.7a3.39,3.39,0,0,1,.77-.7c.12-.08.28,0,.4-.06s.42-.34.67-.38.55.21.82.15a1.27,1.27,0,0,0,.72-.46c.14-.16,0-.46.16-.62.28-.32.77-.41,1-.74.08-.11-.06-.3-.18-.35a2,2,0,0,0-1-.18c-.22,0-.35.3-.56.36s-.39-.12-.54,0c-.45.28-.7.82-1.15,1.08-.1.07-.24-.12-.27-.24a1.67,1.67,0,0,1,0-.77,3.09,3.09,0,0,1,.45-.91,1.12,1.12,0,0,1,.46-.4A8.66,8.66,0,0,1,34.87,20a1.79,1.79,0,0,1,.94.14s.08.64.51.48c.2-.07.2-.37.34-.53s.38-.18.45-.36a1.17,1.17,0,0,0,0-.74s-.21-.11-.33-.14c-.34,0-.62.23-.78.27a.31.31,0,0,1-.3-.12c0-.06,0-.14.1-.18s1.11-.36,1.34-.45a13.63,13.63,0,0,1,1.74-.68c.21-.05.43.18.65.14s.33-.28.53-.32a.33.33,0,0,1,.32.17c.12.23,0,.58.15.77.41.41,1.05.51,1.49.89.25.2.29.59.52.82s.49.51.77.42,0-.44,0-.64a9.68,9.68,0,0,1-.55-1.34c-.06-.31.21-.61.18-.92s-.39-.41-.34-.65.56-.6.68-1a1.09,1.09,0,0,0-.09-.81A.53.53,0,0,0,42.7,15a6.59,6.59,0,0,0-.76.1A5.74,5.74,0,0,0,40.71,15a2,2,0,0,0-.85.55c-.16.14-.19.41-.37.53-.37.23-.83.26-1.2.47s-.42.45-.69.58a9.89,9.89,0,0,1-1.84.6,11.57,11.57,0,0,1-2.17.36.44.44,0,0,1-.33-.2.2.2,0,0,1,0-.23c.16-.14.44-.11.59-.26a2,2,0,0,0,.45-.78c.08-.27.27-.67,0-.84s-.71,0-1,.1a1.44,1.44,0,0,0-.56.61c-.07.1,0,.25,0,.37s0,.22-.1.24c-.33.11-.7,0-1,.12-.55.24-1,.67-1.51,1a10.64,10.64,0,0,1-1.39.7,9.53,9.53,0,0,1-1.72.54.76.76,0,0,1-.57-.14c-.08-.06,0-.21,0-.3s-.28-.13-.24-.24c.1-.37.46-.62.59-1a.4.4,0,0,0-.09-.42c-.1-.08-.26,0-.38.05a7.91,7.91,0,0,0-1.38.73c-.3.21-.47.57-.76.8a1.56,1.56,0,0,1-.53.22s-.11,0-.11-.07.07-.19.05-.28a.49.49,0,0,0-.18-.28.31.31,0,0,0-.31-.07,1.89,1.89,0,0,0-.57.52c-.1.12-.06.35-.2.43-.38.22-.86.18-1.24.39-.14.08-.13.31-.25.42s-.2.07-.22,0,.09-.22.1-.35-.1-.16,0-.21c.28-.33.69-.53,1-.86a.19.19,0,0,0-.06-.24.67.67,0,0,0-.5,0,21.75,21.75,0,0,0-2.68,1.56.38.38,0,0,0-.1.33c0,.09.23.13.18.21-.16.27-.49.41-.68.66s0,.28-.13.39-.27.09-.33.21a6.83,6.83,0,0,0-.39,1.1,1.69,1.69,0,0,1-.14.45c-.1.15-.3.22-.42.36A10,10,0,0,1,15.45,25a1.11,1.11,0,0,1-.74.18c-.1,0-.12-.18-.21-.21s-.41.07-.6,0a.18.18,0,0,1-.08-.23,12.2,12.2,0,0,1,.82-1.25c.28-.4.6-.77.85-1.19,0-.07.06-.18,0-.23s-.16,0-.22,0-.24.26-.37.36-.19.07-.26.15-.05.19-.11.27c-.39.46-.86.86-1.24,1.33s-.38.77-.69,1c-.15.13-.4,0-.58.08-.42.2-.75.56-1.17.75-.07,0-.17-.1-.15-.17s.19-.19.24-.31.08-.55.25-.76.18.18.26.13a2.08,2.08,0,0,0,.7-.62c.48-.63.84-1.36,1.31-2s.92-1.06,1.34-1.62a4.46,4.46,0,0,0,.43-.77s0-.13,0-.13c-.22,0-.42.17-.63.17a.18.18,0,0,1-.13-.2c.33-.69.82-1.3,1.18-2,.07-.12.15-.27.09-.39s-.2-.07-.29,0a2.29,2.29,0,0,0-.69.41c-.61.58-1.09,1.3-1.73,1.84-.26.22-.67.17-.93.4-.56.5-.87,1.24-1.45,1.72A7.43,7.43,0,0,1,8.7,22.89c-.12.05-.28-.05-.36-.16s0-.2,0-.29c.18-.33.47-.58.63-.91s0-.58.2-.8.66-.47.93-.76a9.38,9.38,0,0,0,.95-1.23c.09-.13.28-.32.17-.43s-.38,0-.53.09A20,20,0,0,0,9,19.75,10.88,10.88,0,0,0,7.62,21c-.23.27-.18.74-.46,1s-.74.08-1,.29-.48.71-.77,1-.7.5-.94.84c-1.1,1.58-1.34,3-2,4.76Z"/><path class="cls-9" d="M12.6,25.25c-.15.13-.4,0-.58.08-.42.2-.75.56-1.17.75-.07,0-.17-.1-.15-.17s.19-.19.24-.31.08-.55.25-.76.18.18.26.13a2.08,2.08,0,0,0,.7-.62c.48-.63.84-1.36,1.31-2s.92-1.06,1.34-1.62a4.46,4.46,0,0,0,.43-.77s0-.13,0-.13c-.22,0-.42.17-.63.17a.18.18,0,0,1-.13-.2c.33-.69.82-1.3,1.18-2,.07-.12.15-.27.09-.39s-.2-.07-.29,0a2.29,2.29,0,0,0-.69.41c-.61.58-1.09,1.3-1.73,1.84-.26.22-.67.17-.93.4-.56.5-.87,1.24-1.45,1.72A7.43,7.43,0,0,1,8.7,22.89c-.12.05-.28-.05-.36-.16s0-.2,0-.29c.18-.33.47-.58.63-.91s0-.58.2-.8.66-.47.93-.76a9.38,9.38,0,0,0,.95-1.23c.09-.13.28-.32.17-.43s-.38,0-.53.09A20,20,0,0,0,9,19.75l-.78.65a3,3,0,0,1-.12.4,6.26,6.26,0,0,1-.36.9,3.62,3.62,0,0,1-.36.54,8.43,8.43,0,0,0-.92,1.15,4.57,4.57,0,0,0-.44,1.49,13.73,13.73,0,0,0,.05,1.57,4.75,4.75,0,0,1,0,1,4.64,4.64,0,0,1-.34.9c-.12.32-.32.6-.41.93a2,2,0,0,0-.07.95,10,10,0,0,0,.51,1.11,3,3,0,0,1,.21,1c0,.74-.24,1.46-.24,2.19A.89.89,0,0,0,6,35a.68.68,0,0,0,.39.23c.31.08.64,0,.94.09a.3.3,0,0,1,.13.27,1.35,1.35,0,0,1-.17.56c-.09.17-.28.28-.37.46a2.12,2.12,0,0,0-.11.45s0,0,0,0a3.54,3.54,0,0,1,.49.18c.19.12.46.23.49.45s-.29.41-.31.64a.57.57,0,0,0,.23.5A5,5,0,0,0,9,39.27c.08,0,.22-.07.25,0s-.1.37,0,.53.39.17.45.36-.14.39-.14.6a.94.94,0,0,0,.17.54,6.53,6.53,0,0,0,1,1.09,1.55,1.55,0,0,0,.83.49c.31,0,.55-.36.87-.39s.54,0,.62.26-.3.71-.16,1,.44.14.67.15.7-.22,1,0,.19.6.33.88.33.93.72,1.18a5.66,5.66,0,0,0,1.8.44c.26,0,.58,0,.8.12s.28.69.56.9a1.06,1.06,0,0,0,.88.24c.57-.18,1-.71,1.51-1a4.75,4.75,0,0,1,1.24-.28,3.9,3.9,0,0,1,1.08,0c.45.06.87.41,1.33.36a5.91,5.91,0,0,0,1.73-.67c.76-.33,1.51-.7,2.26-1.08.15-.08.27-.21.43-.28.65-.27,1.32-.5,2-.73a.33.33,0,0,1,.06-.22c.08-.09.29,0,.34-.08a1.63,1.63,0,0,0,.21-.94.43.43,0,0,0-.33-.32,2,2,0,0,0-.78.16c-.07,0-.11.1-.19.11s-.3.08-.36,0,.14-.21.18-.32,0-.19,0-.27c.13-.24.36-.42.47-.67s.2-.4.07-.52a1.34,1.34,0,0,0-.9-.19c-.2,0-.34.23-.53.28s-.59-.06-.82.08-.06.38-.17.54-.2.05-.27.12A.51.51,0,0,0,28,42c0,.23.21.53.05.7s-.43,0-.6-.12-.1-.4-.26-.5a.85.85,0,0,0-.72-.14,1.84,1.84,0,0,0-.73.71c-.12.16,0,.51-.21.56s-.51-.41-.78-.32-.56.49-.74.81c-.08.13.12.34,0,.46s-.32,0-.46.05-.24.28-.41.31-.25-.18-.39-.17-.2.19-.32.24-.58.1-.85.21-.17.25-.31.3-.27-.07-.39,0-.24.39-.43.37c-.44-.05-.75-.57-1.19-.57s-.41.55-.71.61-.21-.35-.39-.39-.4.13-.6.18-.74-.06-.76-.32a2.33,2.33,0,0,1,1.62-1.79c.5-.16,1.06.12,1.58,0a1.36,1.36,0,0,0,.8-.48.59.59,0,0,0,0-.56c-.1-.24-.43-.35-.49-.61s.17-.3.25-.46,0-.48.22-.51.27.23.33.39-.1.16-.11.25-.12.34,0,.49.21.08.32.09.34-.08.51-.07.43.25.64.18a.62.62,0,0,0,.39-.49c0-.25-.18-.49-.18-.75a4.32,4.32,0,0,1,.18-1.39c.07-.23.37-.32.46-.54.2-.46.15-1,.39-1.44a5.67,5.67,0,0,1,1.18-1.49c.34-.31.83-.4,1.18-.7s.34-.61.62-.79c.53-.34,1.24-.34,1.75-.7a2.66,2.66,0,0,0,.79-1.1c.12-.24.27-.57.13-.8s-.39,0-.54.1c-.43.34-.7.85-1.13,1.19a16.31,16.31,0,0,1-1.8,1.1,7.83,7.83,0,0,0-1.05.62c-.29.24-.44.62-.72.87a10.49,10.49,0,0,1-1.85,1.47c-.47.26-1.09.16-1.54.43-.24.14-.13.63-.39.72s-.66-.29-1-.23-.3.3-.39.49c-.15.34-.1.78-.33,1.08s-.56.17-.77.36c-.38.34-.58.84-.95,1.18a2.61,2.61,0,0,1-1.06.65,1.19,1.19,0,0,1-.92-.16c-.22-.15-.19-.5-.34-.72s-.36-.7-.69-.85-.44.15-.62.29-.4.67-.74.77-.81-.3-1.21-.23-.31.53-.57.54a.82.82,0,0,1-.69-.49c-.11-.24.15-.51.13-.77s-.34-.47-.28-.72a10,10,0,0,1,.77-1.49c.08-.2.22-.49.07-.65s-.31.15-.48.18c-.39.07-.81.26-1.16.11a.87.87,0,0,1-.49-.8c0-.24.47-.2.59-.41s0-.57.1-.82a.49.49,0,0,1,.39-.24c.23,0,.45.28.67.21s.32-.52.59-.62.75.12,1.08,0c.16-.07.17-.32.15-.49,0-.39-.37-.75-.31-1.13,0-.22.43-.18.54-.36s0-.46.08-.65a2.13,2.13,0,0,1,.75-.71c.37-.22.94-.11,1.23-.44s0-.67,0-1a3.3,3.3,0,0,1,.33-1.16c.07-.13.32-.06.41-.18.25-.34.26-.84.57-1.13a1.17,1.17,0,0,1,.85-.21c.26,0,.48.29.74.29s.21-.31.36-.29.26.4.46.41a.66.66,0,0,0,.65-.33c.13-.36-.11-.77-.08-1.16,0-.08.11-.18.18-.15a4.24,4.24,0,0,1,.69.51,5.21,5.21,0,0,0,1,.65.47.47,0,0,0,.51-.08c.31-.41.35-1,.62-1.42A2.24,2.24,0,0,1,22.5,25c.43-.23,1,0,1.44-.31a7.07,7.07,0,0,0,1.29-1.57,5.82,5.82,0,0,1,.77-.95c.27-.22.61-.57.95-.46s-.29.42-.41.64-.62.59-.47.88.57-.1.83-.21.45-.57.64-.41-.14.51-.31.69a6.06,6.06,0,0,1-1.23,1c-.21.14-.54.06-.72.23s-.17.55-.36.75c-.46.45-1.09.7-1.54,1.16a.92.92,0,0,0-.31.66c0,.12.22,0,.33-.07a2.43,2.43,0,0,1,.64-.13c.23,0,.43.22.65.18s.44-.45.72-.44,0,.33-.11.46c-.21.35-.55.61-.77,1-.12.19-.42.58-.2.64s.71-.2,1-.41c.51-.38.81-1,1.36-1.34.29-.17-.4.54-.54.85,0,.12-.09.29,0,.38s.26.07.39,0a2,2,0,0,0,.95-.46c.44-.55.54-1.31,1-1.88.08-.12.46-.22.44-.08-.12.62-.61,1.12-.75,1.73,0,.12.2.26.31.2A6.15,6.15,0,0,0,30,26.52c.49-.5.78-1.16,1.22-1.7a3.39,3.39,0,0,1,.77-.7c.12-.08.28,0,.4-.06s.42-.34.67-.38.55.21.82.15a1.27,1.27,0,0,0,.72-.46c.14-.16,0-.46.16-.62.28-.32.77-.41,1-.74.08-.11-.06-.3-.18-.35a2,2,0,0,0-1-.18c-.22,0-.35.3-.56.36s-.39-.12-.54,0c-.45.28-.7.82-1.15,1.08-.1.07-.24-.12-.27-.24a1.67,1.67,0,0,1,0-.77,3.09,3.09,0,0,1,.45-.91,1.12,1.12,0,0,1,.46-.4A8.66,8.66,0,0,1,34.87,20a1.79,1.79,0,0,1,.94.14s.08.64.51.48c.2-.07.2-.37.34-.53s.38-.18.45-.36a1.17,1.17,0,0,0,0-.74s-.21-.11-.33-.14c-.34,0-.62.23-.78.27a.31.31,0,0,1-.3-.12c0-.06,0-.14.1-.18s1.11-.36,1.34-.45a13.63,13.63,0,0,1,1.74-.68c.21-.05.43.18.65.14s.33-.28.53-.32a.33.33,0,0,1,.32.17c.12.23,0,.58.15.77.41.41,1.05.51,1.49.89.25.2.29.59.52.82s.49.51.77.42,0-.44,0-.64a9.68,9.68,0,0,1-.55-1.34c-.06-.31.21-.61.18-.92s-.39-.41-.34-.65.56-.6.68-1a1.09,1.09,0,0,0-.09-.81A.53.53,0,0,0,42.7,15a6.59,6.59,0,0,0-.76.1A5.74,5.74,0,0,0,40.71,15a2,2,0,0,0-.85.55c-.16.14-.19.41-.37.53-.37.23-.83.26-1.2.47s-.42.45-.69.58a9.89,9.89,0,0,1-1.84.6,11.57,11.57,0,0,1-2.17.36.44.44,0,0,1-.33-.2.2.2,0,0,1,0-.23c.16-.14.44-.11.59-.26a2,2,0,0,0,.45-.78c.08-.27.27-.67,0-.84s-.71,0-1,.1a1.44,1.44,0,0,0-.56.61c-.07.1,0,.25,0,.37s0,.22-.1.24c-.33.11-.7,0-1,.12-.55.24-1,.67-1.51,1a10.64,10.64,0,0,1-1.39.7,9.53,9.53,0,0,1-1.72.54.76.76,0,0,1-.57-.14c-.08-.06,0-.21,0-.3s-.28-.13-.24-.24c.1-.37.46-.62.59-1a.4.4,0,0,0-.09-.42c-.1-.08-.26,0-.38.05a7.91,7.91,0,0,0-1.38.73c-.3.21-.47.57-.76.8a1.56,1.56,0,0,1-.53.22s-.11,0-.11-.07.07-.19.05-.28a.49.49,0,0,0-.18-.28.31.31,0,0,0-.31-.07,1.89,1.89,0,0,0-.57.52c-.1.12-.06.35-.2.43-.38.22-.86.18-1.24.39-.14.08-.13.31-.25.42s-.2.07-.22,0,.09-.22.1-.35-.1-.16,0-.21c.28-.33.69-.53,1-.86a.19.19,0,0,0-.06-.24.67.67,0,0,0-.5,0,21.75,21.75,0,0,0-2.68,1.56.38.38,0,0,0-.1.33c0,.09.23.13.18.21-.16.27-.49.41-.68.66s0,.28-.13.39-.27.09-.33.21a6.83,6.83,0,0,0-.39,1.1,1.69,1.69,0,0,1-.14.45c-.1.15-.3.22-.42.36A10,10,0,0,1,15.45,25a1.11,1.11,0,0,1-.74.18c-.1,0-.12-.18-.21-.21s-.41.07-.6,0a.18.18,0,0,1-.08-.23,12.2,12.2,0,0,1,.82-1.25c.28-.4.6-.77.85-1.19,0-.07.06-.18,0-.23s-.16,0-.22,0-.24.26-.37.36-.19.07-.26.15-.05.19-.11.27c-.39.46-.86.86-1.24,1.33s-.38.77-.69,1Z"/><path class="cls-10" d="M26,20.94c.55-.23,1-1.2,2-.92.18.05.34,1.1,1.39.59.74-.36,1.29-1,2-1.44,1.51-.86,2-.06.61,1.49-.58.66-1.18,1.31-1.72,2a.91.91,0,0,0-.23.53c0,.21.16.38.23.57.18.43.31.42-.23.8-.34.24-.74.37-1.08.61a2.75,2.75,0,0,0-.77.75,15.61,15.61,0,0,0-.59,1.53,2.5,2.5,0,0,1-.23.39.74.74,0,0,0,.13-.12c.44-.55.54-1.31,1-1.88.08-.12.46-.22.44-.08-.12.62-.61,1.12-.75,1.73,0,.12.2.26.31.2A6.15,6.15,0,0,0,30,26.52c.49-.5.78-1.16,1.22-1.7a3.39,3.39,0,0,1,.77-.7c.12-.08.28,0,.4-.06s.42-.34.67-.38.55.21.82.15a1.27,1.27,0,0,0,.72-.46c.14-.16,0-.46.16-.62.28-.32.77-.41,1-.74.08-.11-.06-.3-.18-.35a2,2,0,0,0-1-.18c-.22,0-.35.3-.56.36s-.39-.12-.54,0c-.45.28-.7.82-1.15,1.08-.1.07-.24-.12-.27-.24a1.67,1.67,0,0,1,0-.77,3.09,3.09,0,0,1,.45-.91,1.12,1.12,0,0,1,.46-.4A8.66,8.66,0,0,1,34.87,20a1.79,1.79,0,0,1,.94.14s.08.64.51.48c.2-.07.2-.37.34-.53s.38-.18.45-.36a1.17,1.17,0,0,0,0-.74s-.21-.11-.33-.14c-.34,0-.62.23-.78.27a.31.31,0,0,1-.3-.12c0-.06,0-.14.1-.18s1.11-.36,1.34-.45a13.63,13.63,0,0,1,1.74-.68c.21-.05.43.18.65.14s.33-.28.53-.32a.33.33,0,0,1,.32.17c.12.23,0,.58.15.77.41.41,1.05.51,1.49.89.25.2.29.59.52.82s.49.51.77.42,0-.44,0-.64a9.68,9.68,0,0,1-.55-1.34c-.06-.31.21-.61.18-.92s-.39-.41-.34-.65.56-.6.68-1a1.09,1.09,0,0,0-.09-.81A.53.53,0,0,0,42.7,15a6.59,6.59,0,0,0-.76.1A5.74,5.74,0,0,0,40.71,15a2,2,0,0,0-.85.55c-.16.14-.19.41-.37.53-.37.23-.83.26-1.2.47s-.42.45-.69.58a9.89,9.89,0,0,1-1.84.6,11.57,11.57,0,0,1-2.17.36.44.44,0,0,1-.33-.2.2.2,0,0,1,0-.23c.16-.14.44-.11.59-.26a2,2,0,0,0,.45-.78c.08-.27.27-.67,0-.84s-.71,0-1,.1a1.44,1.44,0,0,0-.56.61c-.07.1,0,.25,0,.37s0,.22-.1.24c-.33.11-.7,0-1,.12-.55.24-1,.67-1.51,1a10.64,10.64,0,0,1-1.39.7,9.53,9.53,0,0,1-1.72.54.76.76,0,0,1-.57-.14c-.08-.06,0-.21,0-.3s-.28-.13-.24-.24c.1-.37.46-.62.59-1a.4.4,0,0,0-.09-.42c-.1-.08-.26,0-.38.05a7.91,7.91,0,0,0-1.38.73c-.3.21-.47.57-.76.8a1.56,1.56,0,0,1-.53.22s-.11,0-.11-.07.07-.19.05-.28a.49.49,0,0,0-.18-.28.31.31,0,0,0-.31-.07,1.89,1.89,0,0,0-.57.52c-.1.12-.06.35-.2.43-.38.22-.86.18-1.24.39-.14.08-.13.31-.25.42s-.2.07-.22,0,.09-.22.1-.35-.1-.16,0-.21c.28-.33.69-.53,1-.86a.19.19,0,0,0-.06-.24.67.67,0,0,0-.5,0,21.75,21.75,0,0,0-2.68,1.56.38.38,0,0,0-.1.33c0,.09.23.13.18.21-.16.27-.49.41-.68.66s0,.28-.13.39-.27.09-.33.21a6.83,6.83,0,0,0-.39,1.1,1.69,1.69,0,0,1-.14.45c-.1.15-.3.22-.42.36A10,10,0,0,1,15.45,25l-.14.09A1.49,1.49,0,0,0,15.7,25c.22-.14.36-.38.57-.53.06-.05.17-.1.24-.05a.27.27,0,0,1,.08.27c-.63,2.3,1.07-.23,1.66-.8.06-.06.21.06.27,0,.47-.59.71-1.57,1.13-2.07.72-.88-.7,3,1,1.55,0,0,2.82-3.81,1.95-1.9-.23.52.46.11.67,0s.47-.56.8-.62.32.35.54.36A3.13,3.13,0,0,0,26,20.94ZM6.12,23.69a1.15,1.15,0,0,1,.56-.51c.12,0,.13.26.26.28s.57-.41,1-.05a.35.35,0,0,1,0,.39c-.23.38-.65.62-.87,1s.3.69.56.46a12.52,12.52,0,0,0,1.08-1.41c.26-.29.46-.22.46,0,0,.43-.28.91,0,.95a.52.52,0,0,0,.39-.18,5.41,5.41,0,0,0,.7-.95c.29-.52.25-1.38.87-1.49.16,0,.3.11.46.13.51.07.61-.88.93-1.36s.65.06.79.08a.47.47,0,0,0,.34-.11c.66-.55.34-.55.46-1a2.53,2.53,0,0,1,.24-.53,5.47,5.47,0,0,1,1.39-1.81.2.2,0,0,0,0-.11c0-.09-.2-.07-.29,0a2.29,2.29,0,0,0-.69.41c-.61.58-1.09,1.3-1.73,1.84-.26.22-.67.17-.93.4-.56.5-.87,1.24-1.45,1.72A7.43,7.43,0,0,1,8.7,22.89c-.12.05-.28-.05-.36-.16s0-.2,0-.29c.18-.33.47-.58.63-.91s0-.58.2-.8.66-.47.93-.76a9.38,9.38,0,0,0,.95-1.23c.09-.13.28-.32.17-.43s-.38,0-.53.09A20,20,0,0,0,9,19.75,10.88,10.88,0,0,0,7.62,21c-.23.27-.18.74-.46,1s-.74.08-1,.29-.48.71-.77,1-.7.5-.94.84a8.94,8.94,0,0,0-.7,1.21,13,13,0,0,0-.51,1.24l.27-.43c.51-.76,1.11-1.45,1.4-1.41s0,.33,0,.49.12.42.33,0c.31-.53.53-1.11.88-1.62Z"/><path class="cls-11" d="M9.16,36.34c.14-.24,0-.57.1-.82a.49.49,0,0,1,.39-.24c.23,0,.45.28.67.21s.32-.52.59-.62.75.12,1.08,0c.16-.07.17-.32.15-.49,0-.39-.37-.75-.31-1.13,0-.22.43-.18.54-.36s0-.46.08-.65a2.13,2.13,0,0,1,.75-.71c.37-.22.94-.11,1.23-.44s0-.67,0-1a3.3,3.3,0,0,1,.33-1.16c.07-.13.32-.06.41-.18.25-.34.26-.84.57-1.13a.46.46,0,0,1,.16-.11,1,1,0,0,0-.45.18c-.18.15-.1.68-.45.7-.1,0-.54-.28-.73,0s.12.71.07.86-.19.08-.23.17,0,.67-.45.87c-.27.11-.9-.34-1.12.27-.1.29.26.91-.18,1.07-.13.05-.3,0-.39.14s0,.3-.11.38c-1.59,1.26-2.9.18-4.42,1.53-.68.61-.64,1.16.06,1.08.3,0,.58-.12.71.16a.63.63,0,0,1-.15.59c-.34.46-1.85,1.07-2,1.67s.85.31.81.57-1.22,1.56-.1,2.1c.54.26,1.22-.34,1.8-.15.24.08,0,.53.1.77s.48.39.56.67-.19.41-.15.62.48.48.41.77c-.16.69-1.52,2.06-1,2.75.37.48,1.7-.61,2.51-1.31,1.58-1.35.43,1,1.57.15a11.62,11.62,0,0,0,1.28-1.34c.62-.61.73.3,1.7-.1a6.66,6.66,0,0,0,.86-.56c.92-.58.91-.06.59.28s.17.73.35.27c.11-.27.24-.75.38-1.17.27-.79.7-1.32,1.07-.83.1.14.28.18.42-.08a11.71,11.71,0,0,0,.36-1.19c.23-.76.4-.68.31,0a4,4,0,0,0,0,.68c.05.44.33.5.53.06s.38-1.16.53-1.6a1.56,1.56,0,0,1,.69-.84c.28-.14.31,0,.3.16A.16.16,0,0,0,22,38c.51.14,2.2-2.12,2.48-2.57a3.67,3.67,0,0,1,.45-.64,6.89,6.89,0,0,1,1.35-.78c.42-.19.88-.32,1.28-.55a2.69,2.69,0,0,0,.71-.59,6,6,0,0,0,.45-.73c.19-.27.49-.61.62-.36a.37.37,0,0,0-.05-.11c-.09-.16-.39,0-.54.1-.43.34-.7.85-1.13,1.19a16.31,16.31,0,0,1-1.8,1.1,7.83,7.83,0,0,0-1.05.62c-.29.24-.44.62-.72.87a10.49,10.49,0,0,1-1.85,1.47c-.47.26-1.09.16-1.54.43-.24.14-.13.63-.39.72s-.66-.29-1-.23-.3.3-.39.49c-.15.34-.1.78-.33,1.08s-.56.17-.77.36c-.38.34-.58.84-.95,1.18a2.61,2.61,0,0,1-1.06.65,1.19,1.19,0,0,1-.92-.16c-.22-.15-.19-.5-.34-.72s-.36-.7-.69-.85-.44.15-.62.29-.4.67-.74.77-.81-.3-1.21-.23-.31.53-.57.54a.82.82,0,0,1-.69-.49c-.11-.24.15-.51.13-.77s-.34-.47-.28-.72a10,10,0,0,1,.77-1.49c.08-.2.22-.49.07-.65s-.31.15-.48.18c-.39.07-.81.26-1.16.11a.87.87,0,0,1-.49-.8c0-.24.47-.2.59-.41Zm.74-4.91a.88.88,0,0,0-.87-.1c-.09,0-.13.2-.22.26a7.89,7.89,0,0,0-1,.49,1.09,1.09,0,0,0-.38.39c-.1.21,0,.25.08.24.51,0,1-.27,1.49-.35a6.06,6.06,0,0,1,.92-.08c.52,0,.43-.5,0-.85Z"/><path class="cls-12" d="M25.74,42.64c-.12.16,0,.51-.21.56s-.51-.41-.78-.32-.56.49-.74.81c-.08.13.12.34,0,.46s-.32,0-.46.05-.24.28-.41.31-.25-.18-.39-.17-.2.19-.32.24-.58.1-.85.21-.17.25-.31.3-.27-.07-.39,0-.24.39-.43.37c-.44-.05-.75-.57-1.19-.57s-.41.55-.71.61-.21-.35-.39-.39-.4.13-.6.18-.74-.06-.76-.32a1.45,1.45,0,0,1,.33-.83l-.13.13c-.21.24-.84,1.56-.25,1.55.19,0,.48-.32.73-.18s.1.25.22.28.36-.33.58,0,.13.62.75.74.7-.37,1-.54c.09-.05.2.06.3,0s.44-.71,1-.59c.16,0,.26.29.42.24s.15-.43.43-.61.44.08.61,0,.13-.13.23-.15.17,0,.29,0,.45-.19.68-.16.53.9,1.23.38c.39-.3.18-1,.36-1.43s.48-.29.48,0a1.12,1.12,0,0,1-.09.44c0,.17-.12.4.15.38a.28.28,0,0,0,.23-.15,4.36,4.36,0,0,0,.14-.72c0-.2.13-.38.37-.36a.14.14,0,0,1,.13.11.81.81,0,0,1-.05.31.08.08,0,0,0,.13.08,1,1,0,0,0,.19-.21c.33-.45.29-.57.69-.6.24,0,.67-.13.76-.37s-.18-.45-.2-.63.12-.14.21-.11.15,0,.18,0,.22-.6.43-.67.11.25.32.14.24-.32.4-.47a.76.76,0,0,1,.72-.16,1.36,1.36,0,0,0-.87-.17c-.2,0-.34.23-.53.28s-.59-.06-.82.08-.06.38-.17.54-.2.05-.27.12A.51.51,0,0,0,28,42c0,.23.21.53.05.7s-.43,0-.6-.12-.1-.4-.26-.5a.85.85,0,0,0-.72-.14,1.84,1.84,0,0,0-.73.71Z"/><path class="cls-13" d="M53.93,11.13a5.61,5.61,0,0,1-1.09-.85c-.34-.29-.59-.69-1-1a1.36,1.36,0,0,0-.68-.24.2.2,0,0,0-.19.15.31.31,0,0,0,.09.27c.4.43.86.81,1.3,1.2a10.89,10.89,0,0,1,1,.87c.15.18.15.44.27.64a.93.93,0,0,0,.27.29,10.18,10.18,0,0,1,.92.5.84.84,0,0,1,.31.45c0,.06-.08.15-.14.12-.25-.13-.42-.4-.67-.55-.09-.06-.26-.14-.33,0s0,.27,0,.4.17.18.21.29-.1.15-.07.22a15.51,15.51,0,0,0,.94,1.57,4.56,4.56,0,0,1,.42.59.24.24,0,0,1,0,.27.28.28,0,0,1-.32.05c-.22-.17-.29-.48-.49-.68a1.13,1.13,0,0,0-.51-.29.47.47,0,0,0-.45,0,.83.83,0,0,0-.22.63c0,.14.21.22.24.37s-.08.29-.07.43.15.54.16.81a4.76,4.76,0,0,1-.06.65c0,.53-.07,1.06-.06,1.59a5.52,5.52,0,0,1,.09.68c0,.26-.18.53-.2.79,0,.44,0,.79,0,1.24,0,.21-.11.39-.12.61a6.84,6.84,0,0,0,.12.79,4.13,4.13,0,0,1-.13.77,2.56,2.56,0,0,0,0,.39,3.94,3.94,0,0,1,.1.9,3,3,0,0,1-.31.75,6.15,6.15,0,0,0-.28.71c-.05.2,0,.41-.05.6a1.76,1.76,0,0,0-.18.5c0,.43.21.73.2,1.17a3,3,0,0,1-.35,1.1c-.3.65-.8,1.1-1.08,1.65a.6.6,0,0,0-.08.43c0,.07.13.06.2.06a2,2,0,0,0,1.26-.62c.26-.4.11-1.05.23-1.39,0-.11.25-.05.34-.13a2.4,2.4,0,0,0,.46-.59.85.85,0,0,0,.13-.51c-.05-.35-.29-.66-.33-1A4.63,4.63,0,0,1,54,27.57a1.33,1.33,0,0,1,.23-.62c.08-.09.26,0,.36-.05a.55.55,0,0,0,.29-.25c.08-.2,0-.44.1-.65s.08-.26.18-.25.23.14.26.27-.12.43-.08.64.19.19.27.29a.51.51,0,0,1,.09.18c0,.16-.06.32,0,.48a.34.34,0,0,0,.17.26c.11,0,.3,0,.35-.09a6.8,6.8,0,0,0,.19-1c.05-.16.22-.26.26-.42a1.63,1.63,0,0,0,0-.79c-.07-.28-.33-.49-.43-.77-.23-.6.24-.64.34-1.21a1.2,1.2,0,0,0-.05-.65c-.11-.31-.42-.54-.5-.86a2.25,2.25,0,0,1,.08-.77c0-.18.07-.36.08-.54s-.07-.48-.06-.72.12-.34.15-.52a4,4,0,0,1,0-.49s.08-.09.1-.06a1.12,1.12,0,0,1,.18.5,4.85,4.85,0,0,1,0,.85c0,.31-.07.62-.06.92,0,.74,0,.6.51,1,.1.09.58.58.73.25a4.74,4.74,0,0,0,.21-1.25c0-.16.11-.32.07-.47s-.25-.38-.32-.6.07-.21,0-.32-.2-.34-.24-.54a4.66,4.66,0,0,1,0-.65c0-.12-.09-.23-.07-.35s.08-.13.13-.1a.63.63,0,0,1,.2.32c.09.27.09.57.18.84,0,.11.18.18.21.3a7.51,7.51,0,0,0,.07.84c.07.18.29.26.39.42s0,.29.12.41.28.24.36.4,0,.44.12.63.54,0,.49-.24-.27-.36-.38-.62c-.05-.1,0-.31-.05-.41s-.29-.32-.38-.51a.4.4,0,0,1,0-.34c0-.1.16-.12.2-.22s0-.18.08-.31a.66.66,0,0,1,.09-.19c.08-.13,0-.33.14-.43s.19,0,.24.06,0,.34.09.46.36.2.51.35.27.41.44.58.4.1.54.71c0,.19-.09.41,0,.59s.33.32.45.52,0,.17,0,.24c.14.23.37.4.49.63a1.49,1.49,0,0,1,.14.55c0,.11-.07.24,0,.34.12.26.39.45.51.72s0,.41.06.6a.32.32,0,0,0,.26.22.25.25,0,0,0,.23-.21,2,2,0,0,0-.07-.84c-.07-.23-.28-.4-.36-.62-.25-.62-.37-1.29-.62-1.9s-.47-.89-.7-1.34c-.13-.26-.23-.52-.38-.77s-.26-.27-.34-.44a1,1,0,0,1-.16-.65c0-.12.2.15.27.25.16.25.22.56.4.8s.4.32.54.53.1.42.2.6.38.47.54.72.42.68.62,1,.36.69.54,1a28.66,28.66,0,0,0-1.34-3.95c-.07-.13-1.89-3.48-1.95-3.55a11.62,11.62,0,0,1-1-.82c-.27-.27-.44-.63-.69-.92s-.5-.42-.7-.67-.36-.7-.44-.72a12.08,12.08,0,0,1-2.13-1.06c-.27-.22-.37-.62-.67-.82s-.58-.06-.83-.2Zm-2.38,23c-.66-.5-.63.9-.92,1.15a2,2,0,0,0-.49,1.09,3.7,3.7,0,0,1-.37,1.52c-.07.17-.19.53.08.53.72,0,.77-2.47,1.14-2.44s.85-.39.65-.8c-.11-.25-.35-.43-.06-.66s0-.37,0-.39Z"/><path class="cls-14" d="M52,49.14c-.33,0-.29-.29-.29-.57s1.28-1.5,1.48-2c.07-.17.51-.87.78-.67.09.07.17.4.48-.08.17-.27,0-.77.76-1.52.16-.16.66-.19.52.48s.73,0,.78,1.06c0,.09-.15.14-.16.23,0,.26-.77,0-.77.45s.55.54,0,.95c-.27.21.84.67.91,1.08,0,0,.07.17.08.2s0,.21.05.29.17.85.6-.07c.1-.21.53-.63.73-.33s.27,0,.24.62c0,.32.6.83.27,1.18-.15.17-.61.54-.66.63s-.11.66-.47.58c0,0-.16-.39-.28,0,0,0,0,.05,0,.07s-.08.28-.09.42c0,.42-.29,1-.76,1s-.34.24-.61.69c-.17.29-.68,1.6-1.16,1.47-.1,0,.15-.43-.15-.43s-.43.35-.55.56.6-.13.38.47a1.71,1.71,0,0,1-.26.42,1.35,1.35,0,0,1-.28.25,12.19,12.19,0,0,0-1.3.63c-.08.11-.11-.09-.28.37-.11.27-1.48.1-1.13.49.14.15.67-.23.63.24s-1.47-.31-1.3.4c.11.47-.68,0-1,.64a1.08,1.08,0,0,1-.85.34,3.46,3.46,0,0,0-1.19.61c-.35.44-.65,0-.17-.37.72-.59.05-.38.55-.82,0,0,1.46-.93.68-.85a4.33,4.33,0,0,0-.68.29c-.08.06-.58.19-.58,0,0-.58.43-.13.43-.76,0-.21,1.37-.86.28-.68-.36.07-.25-.14-.66.34-.07.08-.72.22-1,.38l-.34.21a5.66,5.66,0,0,1-.87.48c-.45.16-1.21.87-1.87,1a6.14,6.14,0,0,1-1.07.38c-1,.13-.44-.33-1-.29-.2,0,.21.22-.16.48a4,4,0,0,1-1.33.45,5.55,5.55,0,0,1-1.72.11,1.29,1.29,0,0,0-.73.13,1.74,1.74,0,0,1-2.16.58c-.3-.09-1.79.22-1.29-.49.16-.24,2.86-.32,3.37-.64.29-.18,1.32.14,1.32-.53,0-.9-.09-.51.6-1s.15-.7.8-.9.54-.09,1.15-.65c.31-.29.44-.44.79-.73s.54-.08,1.05-.21a.64.64,0,0,0,.22-.14c.31-.22.7-1,.48-1.38-.12-.18.3-.43,0-.72s.55-1.11.7-1.33c.33-.47,1.18-1.06,1-1.62-.06-.18-.71.74-.79.52-.15-.4-1.06.08-.21-1.48.47-.88.44-.32.77-.53,0,0,0-.25.15-.32a1.3,1.3,0,0,0,.35-.48c0-.07.35-.84.44-.85s.26.46.07.71a2.39,2.39,0,0,0-.47,1.57c.06.2-.15.41.1.55,0,0,.24.4.44.07.1-.17-.15-.53.49-.53.3,0,.51-.68,1-.95s.15.74.48.28c0,0,.38-.28.44,0,0,.12.14.13.13.44s.46,0,.59-.28,1-1.08,1-.28c0,.34-.27.43,0,.85,0,0-.14.37.34.13,0,0,.58-.7.61-.12,0,.07-.12.31.25.12s.16-.58.66-.94a2.78,2.78,0,0,0,.53-.49c.62-.65-.11-.49-.26,0,0,.06-.05,0-.14,0ZM47.1,50.83c-.23-.29-.46.33-.46.61a1.47,1.47,0,0,1-.17,1c-.36.48.42,1.46-.23,1.69-.18.07-.28.79-.58,1-.11.09-.61.75-.83.9s.18.22-.1.43-1.48,1.17-.64,1.13c.53,0,1-.48,1.47-.75.2-.11.26-.3.72-.49.14-.05.62-.43.64,0,0,.18.58.45.59-.23,0-.37.73.05.89-.57.06-.21,1-.08.74-.65-.15-.31.64-.18.09-.49-.26-.14-.5.2-.72-.43-.09-.23-.37-.26-.45.1s0,.91-.65,1c-.37.05-.21-.81,0-1s-.47-.72-.11-1.28c.18-.29-.32-.42-.07-1.15a.86.86,0,0,0-.11-.82Zm4.39,2.07a1.27,1.27,0,0,0,.67,1.35c.33.18,1.1-.1,1-.32s-.33,0-.68,0-.41-.33-.38-.72A1.86,1.86,0,0,1,52.5,52c.14-.18.57-.45.44-.09-.07.17-1.12,2.65,1.51.69.79-.59,1.57-1.45,1.21-2.41-.54-1.42-3.93.06-4.17,2.67Zm2.13-2.37c-.47.4-.89,1-.39,1,.08,0,1.17-1.14,1.33-.37.07.34-.48.89-.82,1-.07,0-.64.3-.37.41.51.22,2-1,2.05-1.88,0-.39-.29-.54-.64-.57a1.63,1.63,0,0,0-1.16.43Zm-7.06-5c-.25-.36-.64-.06-.59-.75,0-.43.17-.18.1-1.11-.1-1.2,1.28-.22,1.72-2,.08-.31.25.11.41-1,.06-.33.94-1,1.06-1.58,0-.2.78-.58,0,.93-.09.18-.51,1.21-.36,1.4a.68.68,0,0,1-.27.87c-.52.26-.75,1.15-.95,1.69-.33.88-.19,1.38-1,2.12,0,0-.92,1.76-.8.5,0-.4.93-.76.65-1.15Z"/><path class="cls-15" d="M30,3.24c.28-.07,3.38-.76,3.44-.73a1.85,1.85,0,0,0,1.59.07A19.82,19.82,0,0,0,38,3a26.35,26.35,0,0,1,3.21.85c-.29,0-1.37-.33-1.74.05a.86.86,0,0,1-.77.21c-.44.18-.08.45.27.48a3.23,3.23,0,0,1,.78.08c1.23.85,2.57.5,2.81.74.48.51,1.7.43,1.75.63.19.73-.88.07-1.08.45s-.51.12-1,0c-1.28-.32-1,.47-.21.51.56,0,1.17.68.84.66S42.58,8,42.2,8c-2.19-.09.43.62.57.86.63,1.05-1.12.07-1.15.07-1-.07-.25.67-.23.68.18.14,1.57.5,1.61.68.18.84-1.27-.06-1.47,0-.93,0-.28.74.08.9a7,7,0,0,1,1.15.92c.43.14.29-.14.29-.3,0-.87,2,.19,2.21.36,1.19,1.16-1.84-.28-1.49.51.54,1.17-1.05,1.13-1.13.57A1.73,1.73,0,0,0,41,12c-.58,0-.64-.22-.67-.44-.11-.76-1.14-.53-1.06,0a1.87,1.87,0,0,0,.3.68.63.63,0,0,1,.09.73c-.19.42-.61-.29-.81-.49a1.31,1.31,0,0,1-.47-1.27c.07-.54-.13-.83-.94-.7-.28,0-.44-.2-.54-.29-.39-.35-1-.62-1.13,0-.07.24.15,1.93-.33,2-.93.19-.33-1.08-.48-1.24-.34-.38,0-1.08-.22-1.28-.54-.54-.55,1-1,1.1-1,.26-.19-.59-.19-.61C33.6,9,32.33,10,32.33,10c-.72,0-1.12,1.37-1.69.88s.53-.63.34-1-1.15.29-1.61.1c-.18-.06.28-1.16-1.18-.07-.87.64-.86-.17-.75-.26.34-.29-.19-.26-.61-.11a8.88,8.88,0,0,0-2.3,1.68c-.36.3-.67.29-.56,0s.35-.59.14-.72c-.41-.24-1.48.38-1.79.06s-.12-.54.2-.66,1.57-.42,1.87-.48c1.06-.21,2.64-.35,2.68-.77.05-.78-3,.52-3.46.38-.64-.18-1.55.86-2.09.38s.45-.83.5-.89c.59-.84,3.34-.46,3.93-1.22s-.68-.44-1-.64C24.13,6.05,26.72,6,26.8,6c.88-.78-.69-.31-.91-.31-.59,0-3.48,1.18-3.48.52s1.75-.51,2.55-1a4.84,4.84,0,0,1,1.95-.16c2.33,0,.79-.45.74-.54-.46-.7.55-.34.75-.53s1.89-.13,2.29-.06c.18,0,.65.08.62-.15s-.27,0-.11-.2-.5-.44-1.18-.34Zm-8.9,6.64c-1.23-.55-1.22.85-2,.8-.57,0-1.08.7-1.42,1.11s-.26.61.19.39c.67-.32,1.19-1,2.05-.83s0-.8,1.06-.75c.55,0,.79-.43.13-.72Zm-4.33,2.66c-.42.29-.18-.12-.44.35-.14.26-.49-.05-.58.4,0,.15-.63.48-.76.68s-1.19,1.11-.26.76c.15-.06.39-.57.92-.78.17-.07.76-.51.76-.69,0-.52.15-.13.51-.46.11-.1-.11-.29-.15-.26Z"/><path class="cls-16" d="M62.37,19.89c-.07-.13-1.89-3.48-1.95-3.55a11.62,11.62,0,0,1-1-.82c-.27-.27-.44-.63-.69-.92s-.5-.42-.7-.67-.36-.7-.44-.72a4.56,4.56,0,0,1-.5-.2,10,10,0,0,1-1.63-.86c-.27-.22-.37-.62-.67-.82s-.58-.06-.83-.2a5.61,5.61,0,0,1-1.09-.85c-.34-.29-.59-.69-1-1a1.36,1.36,0,0,0-.68-.24.2.2,0,0,0-.19.15.31.31,0,0,0,.09.27c.4.43.86.81,1.3,1.2a10.89,10.89,0,0,1,1,.87c.15.18.15.44.27.64a.93.93,0,0,0,.27.29,10.18,10.18,0,0,1,.92.5.84.84,0,0,1,.31.45c0,.06-.08.15-.14.12-.25-.13-.42-.4-.67-.55-.09-.06-.26-.14-.33,0s0,.27,0,.4.17.18.21.29-.1.15-.07.22a15.51,15.51,0,0,0,.94,1.57,4.56,4.56,0,0,1,.42.59.24.24,0,0,1,0,.27.28.28,0,0,1-.32.05c-.22-.17-.29-.48-.49-.68a1.13,1.13,0,0,0-.51-.29.66.66,0,0,0-.34,0,6.72,6.72,0,0,0,1,1.42c.55.63,1.37,1,1.8,1.75a4.29,4.29,0,0,1,.69,1.87,1.7,1.7,0,0,1-.2.88c-.14.27-.54.4-.65.67l.34.26c.1.09.58.58.73.25a4.74,4.74,0,0,0,.21-1.25c0-.16.11-.32.07-.47s-.25-.38-.32-.6.07-.21,0-.32-.2-.34-.24-.54a4.66,4.66,0,0,1,0-.65c0-.12-.09-.23-.07-.35s.08-.13.13-.1a.63.63,0,0,1,.2.32c.09.27.09.57.18.84,0,.11.18.18.21.3a7.51,7.51,0,0,0,.07.84c.07.18.29.26.39.42s0,.29.12.41.28.24.36.4,0,.44.12.63.54,0,.49-.24-.27-.36-.38-.62c-.05-.1,0-.31-.05-.41s-.29-.32-.38-.51a.4.4,0,0,1,0-.34c0-.1.16-.12.2-.22s0-.18.08-.31a.66.66,0,0,1,.09-.19c.08-.13,0-.33.14-.43s.19,0,.24.06,0,.34.09.46.36.2.51.35.27.41.44.58.4.1.54.71c0,.19-.09.41,0,.59s.33.32.45.52,0,.17,0,.24c.14.23.37.4.49.63a1.49,1.49,0,0,1,.14.55c0,.11-.07.24,0,.34.12.26.39.45.51.72s0,.41.06.6a.32.32,0,0,0,.26.22.25.25,0,0,0,.23-.21,2,2,0,0,0-.07-.84c-.07-.23-.28-.4-.36-.62-.25-.62-.37-1.29-.62-1.9s-.47-.89-.7-1.34c-.13-.26-.23-.52-.38-.77s-.26-.27-.34-.44a1,1,0,0,1-.16-.65c0-.12.2.15.27.25.16.25.22.56.4.8s.4.32.54.53.1.42.2.6.38.47.54.72.42.68.62,1,.36.69.54,1a28.66,28.66,0,0,0-1.34-3.95Z"/><path class="cls-17" d="M12.31,51c-2.06.08-3.39,1.65-2.75-3.34.07-.49.35-1.7-.56-1.08-.64.43-1.41,1.73-2.57,1.39-.38-.11-.56-.64-.57-1a7.8,7.8,0,0,1,.46-2.16c.29-1.05.73-2.07,1-3.13s-.41-1.16-.92-.62a13.11,13.11,0,0,1-1.6,1.8c-.73.52-1.13-1-1-1.6a5.53,5.53,0,0,1,.88-1.85c.17-.27.21-.5-.16-.37s-.79.32-1.18.43c-.16,0-.36,0-.26-.31A10.12,10.12,0,0,0,4,36c0-.43-.59-.66-.72-1.08s.16-.62.1-.92S3,33.66,3,33.43a12.74,12.74,0,0,1,.36-1.8,5.51,5.51,0,0,0,.13-1.28c-.07-.91-1.16-.14-.49-3.2-.18.57-.36,1.15-.59,1.77-.33.9-1.06,2.47-1.08,2.67s.39,1.26.41,1.91c0,.49-.36,1.27-.3,1.44a31.48,31.48,0,0,1,1.08,5.55c.06.51-.22,1.37-.16,1.54s1.08,2.23,1.49,3.39c.18.51,0,1.14.26,1.6,1.15,1.92,1.36,3.73,2.06,5.6A21.34,21.34,0,0,0,8,54c1.69,1.45,1.86,2.18,3,3.39a17.53,17.53,0,0,0,2.59,2.36c.64.47,1.45.64,2.11,1.06.47.3.8.8,1.29,1.08a22.28,22.28,0,0,0,2.85,1.31c.4.16.84.23,1.25.35a2,2,0,0,1-.69-.48c-.07-.09,0-.24-.09-.33s-.26-.11-.32-.22.08-.24,0-.34-.22-.17-.34-.25-.27-.1-.32-.22.1-.19.09-.28a.51.51,0,0,0-.15-.34c-.19-.16-.48-.17-.65-.35a.35.35,0,0,1-.05-.38c.08-.15.36-.14.43-.3s-.06-.29-.16-.39-.27-.12-.4-.2-.34-.1-.34-.24.23-.07.34,0c.26.06.48.26.75.28s.3-.12.46-.16a1,1,0,0,1,.5-.11c.2.05.33.26.52.35a.69.69,0,0,0,.25,0,5.91,5.91,0,0,0,1,.12.47.47,0,0,0,.42-.19.56.56,0,0,0-.05-.53.64.64,0,0,0-.49-.23c-.22,0-.39.2-.6.26a.91.91,0,0,1-.46,0c-.28-.1-.49-.35-.76-.44s-.46.09-.62,0c-.53-.42-.85-1.06-1.34-1.53a.5.5,0,0,0-.42-.15c-.31,0-.57.29-.87.37-.11,0-.22-.06-.32-.07s-.39.1-.57.06a.75.75,0,0,1-.46-.29c-.09-.12,0-.3-.08-.45s-.07-.3-.19-.37c-.36-.19-.81-.15-1.17-.33-.09,0,0-.22-.09-.3s-.44-.3-.62-.49-.06-.19,0-.16.31.28.5.37.25,0,.36,0,.21.27.36.31.48-.07.72,0,.51.21.78.23c.1,0,.23-.06.23-.16,0-.31-.24-.62-.18-.93a.43.43,0,0,1,.44-.31h0a7.69,7.69,0,0,0-1.07-1.71c-.33-.32-1-.13-1.33-.41-.56-.44.28-1.32-1.78-1.24Z"/><path class="cls-18" d="M17.63,56.84c-.31,0-.57.29-.87.37-.11,0-.22-.06-.32-.07s-.39.1-.57.06a.75.75,0,0,1-.46-.29c-.09-.12,0-.3-.08-.45s-.07-.3-.19-.37c-.36-.19-.81-.15-1.17-.33-.09,0,0-.22-.09-.3s-.44-.3-.62-.49-.06-.19,0-.16.31.28.5.37.25,0,.36,0,.21.27.36.31.48-.07.72,0,.51.21.78.23c.1,0,.23-.06.23-.16,0-.31-.24-.62-.18-.93a.43.43,0,0,1,.44-.31c.22,0,.28.41.5.45s.6-.19.91-.2.49.22.72.15-.05-.33.07-.4.24.14.37.14.2-.17.32-.17.24.15.38.16a2.15,2.15,0,0,0,.61-.09.83.83,0,0,0,.41-.2.81.81,0,0,0,.21-.47.55.55,0,0,0-.1-.35c-.15-.19-.43-.27-.54-.47s.11-.22.09-.33-.26-.38-.3-.6.14-.19.13-.3-.2-.26-.21-.42.21,0,.2-.12c-.05-.25-.29-.43-.35-.68a.23.23,0,0,1,.1-.24h0a.39.39,0,0,0-.28.23c0,.15.16.49,0,.64s-.51,0-.45.35c0,.14.14.28.11.43s-.18.11-.23.2,0,.3-.07.39-.49.19-.67.36a.32.32,0,0,0-.05.33c.07.23.25.42.34.65s-.14.23-.28.22-.76-.28-.92-.14c-.32.27-.38.73-.89.28-.24-.21-.38.07-.59,0-.62-.28-1.5-.76-1.66-.57s.44,1-.33.73a13.32,13.32,0,0,1-1.24-.66c-2-1.06-.77.19-.28.94a.19.19,0,0,1-.05.22c-.11.08-.29,0-.39.1a.24.24,0,0,0,0,.27c.31.45.73.82,1.06,1.25a1.27,1.27,0,0,1,.18.39s0,.12-.06.12c-.27,0-.55-.27-.7-.28s-.33.33-.49.3-.29-.23-.45-.3a1.94,1.94,0,0,0-.43-.06h0a1.25,1.25,0,0,1-.48-.11,3.54,3.54,0,0,1-.74-.6c-.21-.21-.34-.48-.56-.68a5,5,0,0,0-.52-.38c.94,1,1.23,1.63,2.12,2.59a17.53,17.53,0,0,0,2.59,2.36c.64.47,1.45.64,2.11,1.06.47.3.8.8,1.29,1.08a22.28,22.28,0,0,0,2.85,1.31c.4.16.84.23,1.25.35a1.87,1.87,0,0,1-.69-.48c-.07-.09,0-.24-.09-.33s-.26-.11-.32-.22.08-.24,0-.34-.22-.17-.34-.25-.27-.1-.32-.22.1-.19.09-.28a.51.51,0,0,0-.15-.34c-.19-.16-.48-.17-.65-.35a.35.35,0,0,1-.05-.38c.08-.15.36-.14.43-.3s-.06-.29-.16-.39-.27-.12-.4-.2-.34-.1-.34-.24.23-.07.34,0c.26.06.48.26.75.28s.3-.12.46-.16a1,1,0,0,1,.5-.11c.2.05.33.26.52.35a.69.69,0,0,0,.25,0,5.91,5.91,0,0,0,1,.12.47.47,0,0,0,.42-.19.56.56,0,0,0-.05-.53.64.64,0,0,0-.49-.23c-.22,0-.39.2-.6.26a.91.91,0,0,1-.46,0c-.28-.1-.49-.35-.76-.44s-.46.09-.62,0c-.53-.42-.85-1.06-1.34-1.53a.5.5,0,0,0-.42-.15Z"/><path class="cls-19" d="M17.63,56.84c-.31,0-.57.29-.87.37-.11,0-.22-.06-.32-.07s-.39.1-.57.06a.75.75,0,0,1-.46-.29c-.09-.12,0-.3-.08-.45s-.07-.3-.19-.37c-.36-.19-.81-.15-1.17-.33-.09,0,0-.22-.09-.3s-.44-.3-.62-.49-.06-.19,0-.16.31.28.5.37.25,0,.36,0,.21.27.36.31.48-.07.72,0,.51.21.78.23c.1,0,.23-.06.23-.16,0-.31-.24-.62-.18-.93a.43.43,0,0,1,.44-.31h0a2.54,2.54,0,0,1-.16-.28c-.11,0-.21.1-.33,0-.62-.28-1.5-.76-1.66-.57s.44,1-.33.73a13.32,13.32,0,0,1-1.24-.66c-2-1.06-.77.19-.28.94a.19.19,0,0,1-.05.22c-.11.08-.29,0-.39.1a.24.24,0,0,0,0,.27c.31.45.73.82,1.06,1.25a1.27,1.27,0,0,1,.18.39s0,.12-.06.12c-.27,0-.55-.27-.7-.28s-.33.33-.49.3-.29-.23-.45-.3a1.94,1.94,0,0,0-.43-.06h0a1.25,1.25,0,0,1-.48-.11,3.54,3.54,0,0,1-.74-.6c-.21-.21-.34-.48-.56-.68a5,5,0,0,0-.52-.38c.94,1,1.23,1.63,2.12,2.59a17.53,17.53,0,0,0,2.59,2.36c.64.47,1.45.64,2.11,1.06.47.3.8.8,1.29,1.08a22.28,22.28,0,0,0,2.85,1.31c.4.16.84.23,1.25.35a1.87,1.87,0,0,1-.69-.48c-.07-.09,0-.24-.09-.33s-.26-.11-.32-.22.08-.24,0-.34-.22-.17-.34-.25-.27-.1-.32-.22.1-.19.09-.28a.51.51,0,0,0-.15-.34c-.19-.16-.48-.17-.65-.35a.35.35,0,0,1-.05-.38c.08-.15.36-.14.43-.3s-.06-.29-.16-.39-.27-.12-.4-.2-.34-.1-.34-.24.23-.07.34,0c.26.06.48.26.75.28s.3-.12.46-.16a1,1,0,0,1,.5-.11c.2.05.33.26.52.35a.69.69,0,0,0,.25,0,5.91,5.91,0,0,0,1,.12.47.47,0,0,0,.42-.19.56.56,0,0,0-.05-.53.64.64,0,0,0-.49-.23c-.22,0-.39.2-.6.26a.91.91,0,0,1-.46,0c-.28-.1-.49-.35-.76-.44s-.46.09-.62,0c-.53-.42-.85-1.06-1.34-1.53a.5.5,0,0,0-.42-.15Z"/><path class="cls-20" d="M16.43,13.26c0-.52.15-.13.51-.46.11-.1-.11-.29-.15-.26-.42.29-.18-.12-.44.35-.14.26-.49-.05-.58.4,0,.15-.63.48-.76.68s-1.19,1.11-.26.76c.15-.06.39-.57.92-.78.17-.07.76-.51.76-.69Zm1.45-1.08c.67-.32,1.19-1,2.05-.83s0-.8,1.06-.75c.55,0,.79-.43.13-.72-1.23-.55-1.22.85-2,.8-.57,0-1.08.7-1.42,1.11s-.26.61.19.39Zm4.44-1.63c.31.32,1.38-.3,1.79-.06.21.13,0,.43-.14.72s.2.32.56,0a8.88,8.88,0,0,1,2.3-1.68c.42-.15,1-.18.61.11-.11.09-.12.9.75.26,1.46-1.09,1,0,1.18.07.46.19,1.35-.63,1.61-.1s-.86.57-.34,1,1-.86,1.69-.88c0,0,1.27-1.08,1.19.18,0,0-.76.87.19.61.46-.13.47-1.64,1-1.1.19.2-.12.9.22,1.28.15.16-.45,1.43.48,1.24.48-.1.26-1.79.33-2,.16-.63.74-.36,1.13,0,.1.09.26.33.54.29.81-.13,1,.16.94.7a1.31,1.31,0,0,0,.47,1.27c.2.2.62.91.81.49a.63.63,0,0,0-.09-.73,1.87,1.87,0,0,1-.3-.68c-.08-.53,1-.76,1.06,0,0,.22.09.44.67.44a1.73,1.73,0,0,1,1.66,1.21c.08.56,1.67.6,1.13-.57-.12-.27.16-.28.53-.22-.15-.24-.32-.48-.49-.7l-.24-.28c-.3,0-.52,0-.52.33s.14.44-.29.3a7,7,0,0,0-1.15-.92c-.36-.16-1-.86-.08-.9.12,0,.71.33,1.11.4-.27-.17-.56-.3-.81-.49s-.65-.55-1-.83l0,0A6.71,6.71,0,0,0,40,8a4.2,4.2,0,0,0-1.3-.79C38.3,7,37.81,7,37.37,6.88c-.67-.25-1.26-.69-1.94-.9A11.51,11.51,0,0,0,33,5.5a10.86,10.86,0,0,0-1.13.13A3.73,3.73,0,0,1,31,5.57c-.21-.05-.37-.25-.59-.25a24.57,24.57,0,0,0-2.84.26,3.06,3.06,0,0,0-.59.17L26.8,6c-.08.07-2.67.09-1.81.69.28.2,1.61-.2,1,.64S22.61,7.67,22,8.51c-.05.06-1.07.39-.5.89S23,8.84,23.61,9c.48.14,3.51-1.16,3.46-.38,0,.42-1.62.56-2.68.77-.3.06-1.67.4-1.87.48s-.5.33-.2.66Z"/><path class="cls-21" d="M13.84,40c-.21-.09-.44.15-.62.29s-.4.67-.74.77-.81-.3-1.21-.23-.31.53-.57.54a.82.82,0,0,1-.69-.49c-.11-.24.15-.51.13-.77s-.34-.47-.28-.72a10,10,0,0,1,.77-1.49c.08-.2.22-.49.07-.65s-.31.15-.48.18c-.39.07-.81.26-1.16.11a.87.87,0,0,1-.49-.8c0-.24.47-.2.59-.41s0-.57.1-.82a.49.49,0,0,1,.39-.24c.23,0,.45.28.67.21s.32-.52.59-.62.75.12,1.08,0c.16-.07.17-.32.15-.49,0-.39-.37-.75-.31-1.13,0-.22.43-.18.54-.36s0-.46.08-.65a2.13,2.13,0,0,1,.75-.71c.37-.22.94-.11,1.23-.44s0-.67,0-1a3.3,3.3,0,0,1,.33-1.16c.07-.13.32-.06.41-.18.25-.34.26-.84.57-1.13a.46.46,0,0,1,.16-.11,1,1,0,0,0-.45.18c-.18.15-.1.68-.45.7-.1,0-.54-.28-.73,0s.12.71.07.86-.19.08-.23.17,0,.67-.45.87c-.27.11-.9-.34-1.12.27-.1.29.26.91-.18,1.07-.13.05-.3,0-.39.14s0,.3-.11.38c-1.59,1.26-2.9.18-4.42,1.53-.68.61-.64,1.16.06,1.08.3,0,.58-.12.71.16a.63.63,0,0,1-.15.59,3.58,3.58,0,0,1-.81.61v0c-.09.17-.28.28-.37.46a2.12,2.12,0,0,0-.11.45s0,0,0,0a3.54,3.54,0,0,1,.49.18c.19.12.46.23.49.45s-.29.41-.31.64a.57.57,0,0,0,.23.5A5,5,0,0,0,9,39.27c.08,0,.22-.07.25,0s-.1.37,0,.53.39.17.45.36-.14.39-.14.6a.94.94,0,0,0,.17.54,6.53,6.53,0,0,0,1,1.09,1.55,1.55,0,0,0,.83.49c.31,0,.55-.36.87-.39s.54,0,.62.26-.3.71-.16,1a.19.19,0,0,0,.07.08c.35-.33.64-.73,1-1.08.62-.61.73.3,1.7-.1a6.66,6.66,0,0,0,.86-.56c.92-.58.91-.06.59.28s.17.73.35.27c.11-.27.24-.75.38-1.17.27-.79.7-1.32,1.07-.83.1.14.28.18.42-.08a11.71,11.71,0,0,0,.36-1.19c.23-.76.4-.68.31,0a4,4,0,0,0,0,.68c.05.44.33.5.53.06s.38-1.16.53-1.6a1.56,1.56,0,0,1,.69-.84c.28-.14.31,0,.3.16A.16.16,0,0,0,22,38c.51.14,2.2-2.12,2.48-2.57a3.67,3.67,0,0,1,.45-.64,6.89,6.89,0,0,1,1.35-.78c.42-.19.88-.32,1.28-.55a2.69,2.69,0,0,0,.71-.59,6,6,0,0,0,.45-.73c.19-.27.49-.61.62-.36a.37.37,0,0,0-.05-.11c-.09-.16-.39,0-.54.1-.43.34-.7.85-1.13,1.19a16.31,16.31,0,0,1-1.8,1.1,7.83,7.83,0,0,0-1.05.62c-.29.24-.44.62-.72.87a10.49,10.49,0,0,1-1.85,1.47c-.47.26-1.09.16-1.54.43-.24.14-.13.63-.39.72s-.66-.29-1-.23-.3.3-.39.49c-.15.34-.1.78-.33,1.08s-.56.17-.77.36c-.38.34-.58.84-.95,1.18a2.61,2.61,0,0,1-1.06.65,1.19,1.19,0,0,1-.92-.16c-.22-.15-.19-.5-.34-.72s-.36-.7-.69-.85ZM9,32.36a6.06,6.06,0,0,1,.92-.08c.52,0,.43-.5,0-.85a.88.88,0,0,0-.87-.1c-.09,0-.13.2-.22.26a7.89,7.89,0,0,0-1,.49,1.09,1.09,0,0,0-.38.39c-.1.21,0,.25.08.24.51,0,1-.27,1.49-.35Z"/><path class="cls-22" d="M21.19,4.17C22,4,23.88,3.07,25,2.76a9.9,9.9,0,0,1,2.93-.37c.39,0,.55-.19.58-.41C28.68.76,25.81-.8,24.24.48c-1.28-.66-2.92-.79-3.9.62-.76,1.1-1.31,3.43.85,3.07Z"/><path class="cls-23" d="M21.1,1.78c-1,.59-1.25,2.09-.27,2.43a2.47,2.47,0,0,0,.36,0C22,4,23.88,3.07,25,2.76a8.81,8.81,0,0,1,2.65-.36C28.73,1.69,26.33.69,25.51.78a1.12,1.12,0,0,0-1,1.3,3.54,3.54,0,0,0-3.43-.3Z"/><path class="cls-24" d="M11.56,49.8a9.64,9.64,0,0,1-2.11-7.28c.47-2.89,2.58-2.82,3.37-2.46a8.06,8.06,0,0,1,2.36-6.25c2.19-2,4.1.2,3.38,1.9C15.82,42.13,14,46.23,17,53.47A25,25,0,0,0,28.35,65.72c-4.76,1.73-10.84-.5-15-5.56-1.4-1.68-2.36-4.36-.9-5.22A4.08,4.08,0,0,1,10.06,52a1.86,1.86,0,0,1,1.5-2.24Z"/><path class="cls-25" d="M17.4,38.47c.11-2.5-1.44-3.49-3-1.38a6.07,6.07,0,0,0-.64,5.4C9,41,10.22,47.88,12.63,50.65c-3.49.76-1.33,4.21,1.12,4.42-3,3.61,4,10.39,11.06,11.23a9.78,9.78,0,0,0,3.54-.58A25,25,0,0,1,17,53.47c-2.56-6.15-1.63-10,.39-15Z"/><path class="cls-26" d="M5.25,44.53c.73-1.75-.17-4,1.63-11.3.33-1.32.91-2.6,1.31-3.87.09-.27.25-.75-.56-.65-1,.11-2.53,1.79-3,2.59A3.22,3.22,0,0,0,4.74,35C2.3,35.84.44,37.68.6,40.46c.21,3.64,4,5.54,4.65,4.07Z"/><path class="cls-27" d="M3.38,41.1C.72,42.39.58,39.62,1.23,37.67A5,5,0,0,0,.6,40.46c.21,3.64,4,5.54,4.65,4.07.73-1.75-.17-4,1.63-11.3.33-1.32.91-2.6,1.31-3.87.09-.27.25-.75-.56-.65A3.88,3.88,0,0,0,5.79,29.9c.83-.68,1.37-.88,1.42-.71s-.62,1.58-1,3.31C6,33.72,6.37,35.3,5,35.17A4.12,4.12,0,0,1,3.38,41.1Z"/><path class="cls-28" d="M15.41,23.45a6.46,6.46,0,0,1,2.95-3.74c-.9-.5-2.66-2.23-.34-5.22s6.81-4.72,8-1.64a2.84,2.84,0,0,1,2.62-1.18,1.44,1.44,0,0,1,1,.92,6,6,0,0,1,6.15-4c4.28.52,5.07,4.5.65,6.07-3,1.07-5.71.93-9.11,2.45C23.67,18.69,22,19.75,19.87,23c-.42.62-.71,1.32-1.16,1.92-1.76,2.37-3.88,1.24-3.3-1.45Z"/><path class="cls-29" d="M19.9,21a7.4,7.4,0,0,1-2.58,4.22c-.8.52-1.6.51-2-.54.23,1.71,1.92,2.13,3.37.18.45-.6.74-1.3,1.16-1.92,2.16-3.23,3.8-4.29,7.41-5.89,3.4-1.52,6.13-1.38,9.11-2.45,4.42-1.57,3.63-5.55-.65-6.07l-.33,0c3.71.76,3.68,3.34,1.82,4.87A7.94,7.94,0,0,1,31.42,15,2.35,2.35,0,0,1,29.5,13.6c-.5,2.35-3.25,2.48-3.59-.19.09,4.26-4.1,7.08-7.11,6.35.83.27,1.11.73,1.1,1.28Z"/><path class="cls-30" d="M63.22,22.18c2.47-4.79-3.35-9.64-6.63-5.85-1-2.36-5.58-3.14-7.29-.85a3.71,3.71,0,0,0-.57,3.17c-1.4-.87-2.8,0-3,2.12a12.72,12.72,0,0,0-13.93,7.39c-2.21,5.21.29,9,4.22,8.68s4.75-5.1,6.45-8c1-1.71,2.54-4,4.53-2.6.75.52,2.29,1.69,3.87.51,1.78-1.32,3.06-3.86,5.71-5.61s5.79-2.22,6.67,1Z"/><path class="cls-31" d="M45.39,22.79c-3.13,1.4-4.1,5-5.87,7.65-3.25,4.93-8.55,5.71-8.31-.63-1.09,4.35,1.28,7.35,4.78,7,4-.37,4.75-5.1,6.45-8,1-1.71,2.54-4,4.53-2.6.75.52,2.29,1.69,3.87.51,1.78-1.32,3.06-3.86,5.71-5.61s5.79-2.22,6.67,1a5,5,0,0,0-1.8-6.61c.66.8,1.37,2,.23,2.7s-3.88-.39-5-1.22c-.07,3.74-3.63,4.48-6.49,2.83a5.84,5.84,0,0,1,1.67,1.54c1.38,2-.76,3.56-2.41,3.06a2,2,0,0,1-1.22-1.24c-.49-1.11-1.7-.94-2.8-.45Z"/><path class="cls-32" d="M67.22,23.79a1.2,1.2,0,0,0-1-.49.81.81,0,0,0-.56.73c-.07,1,1.61,3.77,1.2,7-.11.8-.37,1.38-.17,1.52s.69-.08,1.49-.76c1.46-1.24,2.71-3.31,1.31-4.76a4.23,4.23,0,0,0-1.77-1.12,2.28,2.28,0,0,0-.55-2.12Z"/><path class="cls-33" d="M69.13,28.48a2.74,2.74,0,0,0-2.3-2.16c.22-1-.52-2.23-1-1.72.33,1.27,1.47,3.7,1.12,6.43-.11.8-.37,1.38-.17,1.52s.37,0,.76-.22a4.67,4.67,0,0,0,1.63-3.85Z"/><path class="cls-34" d="M46.73,63.56c-9.67,7.2-18.2-6.78-11.1-9.48-1.88-6.23,2.5-13.72,7.14-12.65a3.19,3.19,0,0,1,2.3,3.14c1.12-4.08,7.11-7.46,7.82-3.14,3.2-5.79,10.86-5.41,8.65,3.83a17.52,17.52,0,0,1-4.12,8.25c-3.34,3.81-10.36,3-4.74-3.52.36-.41,1.17-1.44,1.93-2.54,1.57-2.28,1.9-5.17-1.58-3.8-.93.37-2.29,1.52-3,1.87-1.77.89-2.69.79-4.38,1.83-4.66,2.85-3.17,5-2.87,7.61.21,1.72-.29,2.33-.93,2.74-1.72,1.12-3,2.76-1.6,4.86,1.15,1.79,4.35,2.18,6.47,1Z"/><path class="cls-35" d="M40.26,62.56c-1.35-2.1-.12-3.74,1.6-4.86.64-.41,1.14-1,.93-2.74-.3-2.59-1.79-4.76,2.87-7.61,1.69-1,2.61-.94,4.38-1.83.7-.35,2.06-1.5,3-1.87,3.48-1.37,3.15,1.52,1.58,3.8-.76,1.1-1.57,2.13-1.93,2.54-4.1,4.77-1.47,6.49,1.55,5.58a4.78,4.78,0,0,0,2.22-1.38c3.17-3.39,5.33-10.1,1.78-12.76-1.43-1.06-3.62-.87-5.82,1.89.89-4.84-6.44-1-7.63,3.6-.15-5.64-4.94-3.4-6,1.15a12.25,12.25,0,0,0,.82,7.49,3.07,3.07,0,0,0-3.54,1.83c-1.66,4.49,5.18,9.35,10.64,6.17-2.12,1.18-5.32.79-6.47-1Z"/></g></g></g></svg>